<svg xmlns="http://www.w3.org/2000/svg" width="12.582" height="12.583" viewBox="0 0 12.582 12.583"><defs><style>.a{fill:#1b1464;opacity:0.5;}</style></defs><path class="a" d="M6.291,0a6.291,6.291,0,1,0,6.291,6.291A6.273,6.273,0,0,0,6.291,0ZM9.923,4.318h0L5.347,9.065a.26.26,0,0,1-.2.086.223.223,0,0,1-.2-.086l-2.23-2.4-.057-.057a.276.276,0,0,1,0-.4l.4-.4a.276.276,0,0,1,.4,0l.029.029L5.062,7.521a.138.138,0,0,0,.2,0L9.094,3.546h.029a.276.276,0,0,1,.4,0l.4.4A.244.244,0,0,1,9.923,4.318Z" transform="translate(0 0)"/></svg>