<svg xmlns="http://www.w3.org/2000/svg" width="26" height="26" viewBox="0 0 26 26"><defs><style>.a{fill:#929292;}</style></defs><path class="a" d="M22.1,3.728V3.719l-.134-.128c-.062-.059-.125-.114-.188-.171l-.085-.077Q21.5,3.169,21.3,3l-.072-.059q-.211-.173-.428-.336l-.055-.041q-.229-.17-.463-.33l-.038-.026Q20,2.047,19.752,1.9l-.032-.019q-.252-.153-.511-.294l-.035-.019q-.256-.138-.517-.265l-.049-.023q-.254-.122-.513-.232l-.071-.03q-.247-.1-.5-.2L17.508.809,17.49.8,17.424.778c-.158-.057-.316-.11-.476-.162L16.812.573c-.149-.046-.3-.088-.452-.129L16.191.4c-.142-.036-.285-.068-.429-.1-.066-.014-.133-.03-.2-.043-.136-.027-.274-.051-.411-.074C15.077.17,15,.156,14.928.145c-.134-.02-.27-.036-.405-.052-.078-.009-.155-.02-.233-.028C14.146.052,14,.042,13.855.032c-.07,0-.139-.011-.208-.015Q13.326,0,13,0t-.648.016c-.07,0-.139.01-.208.015-.145.01-.29.019-.435.033-.078.008-.156.019-.233.028-.136.016-.271.032-.405.052-.075.011-.149.025-.223.037-.137.023-.275.046-.411.074-.067.013-.133.029-.2.043-.143.031-.287.063-.429.1L9.638.443c-.151.04-.3.083-.452.129L9.051.615q-.24.076-.476.162L8.509.8,8.49.807,8.473.814q-.251.094-.5.2l-.071.03q-.259.111-.513.232L7.342,1.3q-.261.127-.517.265l-.035.019q-.259.141-.511.294l-.032.019q-.25.152-.493.316l-.038.026q-.235.159-.463.33L5.2,2.606c-.145.109-.287.221-.428.336L4.7,3q-.2.166-.393.341l-.084.077c-.061.058-.125.114-.187.172L3.9,3.719v.009a13,13,0,1,0,18.2,0ZM13,22.517l0,0h-.007ZM9.538,17.525a4.764,4.764,0,0,1,6.925,0L13,21.863ZM17,16.846a5.614,5.614,0,0,0-8.009,0L4.942,11.768l3.725-2.98,3.906,3.125v.042l.132.064.234.173.067-.033.072.033.214-.172.141-.077v-.035l3.9-3.12,3.725,2.98ZM4.845,4.023l0,0A12.188,12.188,0,0,1,7.216,2.336l.016-.008q.245-.133.5-.255l.044-.021q.227-.109.461-.209V8.025L4.767,10.8V4.1ZM9.464,1.394q.2-.061.405-.115l.174-.045c.127-.032.256-.061.384-.089.066-.014.133-.029.2-.042.123-.024.246-.046.37-.066.072-.012.145-.025.218-.036.123-.018.247-.033.37-.047.074-.009.147-.019.221-.026.132-.013.266-.022.4-.03.065,0,.13-.01.2-.014s.111,0,.166,0V10.8L9.1,8.025V1.513c.073-.025.146-.051.22-.075ZM13.8.9c.133.009.267.017.4.03.074.007.147.017.221.026.124.014.247.029.37.047.073.011.145.024.218.036.124.021.247.042.37.066l.2.042c.129.028.257.057.384.089l.174.046q.2.055.405.115l.144.045c.074.024.147.05.22.075V8.025L13.433,10.8V.878c.055,0,.111,0,.166,0S13.73.891,13.8.9Zm4.477,1.177c.168.081.333.166.5.255l.016.008A12.188,12.188,0,0,1,21.151,4.02l0,0,.078.075v6.7L17.767,8.025V1.843q.233.1.462.209ZM13,25.133A12.124,12.124,0,0,1,3.9,4.987v6.864l8.672,10.864,0,.087h0v0l.139.065.215.169.009,0,0,0,.067-.033.068.031,0,0,.008,0,.2-.168.06-.033.085-.043v-.086L22.1,11.852V4.987A12.124,12.124,0,0,1,13,25.133Z"/></svg>