<svg xmlns="http://www.w3.org/2000/svg" width="11" height="11" viewBox="0 0 11 11"><defs><style>.a{fill:#fff;}</style></defs><g transform="translate(-0.001)"><g transform="translate(0.001)"><path class="a" d="M5.5,0A5.5,5.5,0,1,0,11,5.5,5.5,5.5,0,0,0,5.5,0Zm0,1.932,3.255,2.03H2.246ZM8.8,7.2h0a.589.589,0,0,1-.589.589H2.8A.589.589,0,0,1,2.206,7.2V4.091a.586.586,0,0,1,.009-.1l3.11,1.939.012.006.012.007a.326.326,0,0,0,.068.026l.007,0a.335.335,0,0,0,.077.01h0a.329.329,0,0,0,.077-.01l.007,0a.33.33,0,0,0,.068-.026l.012-.007.012-.006L8.787,3.99a.585.585,0,0,1,.009.1V7.2Z" transform="translate(-0.001)"/></g></g></svg>