<svg xmlns="http://www.w3.org/2000/svg" width="13.96" height="13.96" viewBox="0 0 13.96 13.96"><defs><style>.a{fill:#1b1464;}</style></defs><path class="a" d="M6.98,4.442A2.538,2.538,0,1,0,9.518,6.98,2.546,2.546,0,0,0,6.98,4.442Zm5.648,1.9A5.668,5.668,0,0,0,7.615,1.333V0H6.346V1.333A5.552,5.552,0,0,0,1.333,6.346H0V7.615H1.333a5.668,5.668,0,0,0,5.013,5.013V13.96H7.615V12.628a5.668,5.668,0,0,0,5.013-5.013H13.96V6.346ZM6.98,11.422A4.442,4.442,0,1,1,11.422,6.98,4.415,4.415,0,0,1,6.98,11.422Z"/></svg>