<svg xmlns="http://www.w3.org/2000/svg" xmlns:xlink="http://www.w3.org/1999/xlink" width="1024" height="367" viewBox="0 0 1024 367"><defs><style>.a{fill:none;}.b{clip-path:url(#a);}.c{fill:#ffa73b;}.d{fill:#0c2e3a;}.e{fill:#78001b;}.f{fill:#f5340b;}.g{fill:#ff823b;}.h{fill:#018790;}.i{fill:#e3651d;}.j{fill:#00a6a6;}.k{fill:#1dcdc3;}.l{fill:#ffd497;}.m{fill:#ff7c4e;}.n{fill:#f54132;}</style><clipPath id="a"><rect class="a" width="1024" height="367"/></clipPath></defs><g class="b"><g transform="translate(502 -87)"><path class="c" d="M577.965,416.077v44.91L539.1,438.537v-.019Z"/><path class="d" d="M539.1,438.585V483.4l-.039.019-38.8-22.411Z"/><path class="e" d="M539.1,438.517v.068l-38.843,22.421-.029-.019v-44.91Z"/><path class="c" d="M539.1,348.756v44.91l-38.867-22.45V371.2Z"/><path class="f" d="M539.1,393.666v.034l-38.819,22.406-.048-.029V371.216Z"/><path class="f" d="M539.1,393.7v44.818l-38.819-22.411Z"/><path class="g" d="M577.928,416.1,539.1,438.517V393.7l.029-.015Z"/><path class="h" d="M539.1,483.4v44.91l-38.867-22.45v-.019Z"/><path class="h" d="M539.1,528.308v.034l-38.819,22.406-.048-.029V505.858Z"/><path class="i" d="M539.1,528.342v44.818l-38.819-22.411Z"/><path class="c" d="M577.967,505.839v.068l-38.843,22.421-.029-.019V483.4Z"/><path class="c" d="M577.965,416.077v44.91L539.1,438.537v-.019Z"/><path class="j" d="M539.059,483.418l-38.833,22.421V461.021l.029-.015Z"/><path class="d" d="M539.1,438.585V483.4l-.039.019-38.8-22.411Z"/><path class="c" d="M539.1,438.517v.068l-38.843,22.421-.029-.019v-44.91Z"/><path class="e" d="M500.226,416.077v44.91l-38.867-22.45v-.019Z"/><path class="e" d="M500.226,460.987v.034l-38.819,22.406-.048-.029V438.537Z"/><path class="e" d="M539.1,438.517v.068l-38.843,22.421-.029-.019v-44.91Z"/><path class="e" d="M461.358,438.585V483.4l-.039.019-38.8-22.411Z"/><path class="f" d="M461.358,438.517v.068l-38.843,22.421-.029-.019v-44.91Z"/><path class="k" d="M461.356,348.756v44.91l-38.867-22.45V371.2Z"/><path class="d" d="M461.356,393.666v.034l-38.819,22.406-.048-.029V371.216Z"/><path class="d" d="M461.356,393.7v44.818l-38.819-22.411Z"/><path class="h" d="M500.189,416.1l-38.833,22.421V393.7l.029-.015Z"/><path class="h" d="M500.228,371.264v44.813l-.039.019-38.8-22.411Z"/><path class="h" d="M486.446,279.016v13.012l-.011.006-11.267-6.507Z"/><path class="k" d="M500.228,326.267v.068l-38.843,22.421-.029-.019v-44.91Z"/><path class="e" d="M461.356,483.4v44.91l-38.867-22.45v-.019Z"/><path class="e" d="M461.356,528.308v.034l-38.819,22.406-.048-.029V505.858Z"/><path class="j" d="M461.356,528.342v44.818l-38.819-22.411Z"/><path class="j" d="M500.189,550.739l-38.833,22.421V528.342l.029-.015Z"/><path class="d" d="M500.228,505.906v44.813l-.039.019-38.8-22.411Z"/><path class="d" d="M500.228,505.839v.068l-38.843,22.421-.029-.019V483.4Z"/><path class="f" d="M500.226,416.077v44.91l-38.867-22.45v-.019Z"/><path class="f" d="M500.226,460.987v.034l-38.819,22.406-.048-.029V438.537Z"/><path class="j" d="M500.226,461.021v44.818l-38.819-22.411Z"/><path class="g" d="M539.059,483.418l-38.833,22.421V461.021l.029-.015Z"/><path class="c" d="M539.1,438.517v.068l-38.843,22.421-.029-.019v-44.91Z"/><path class="f" d="M461.32,483.418l-38.833,22.421V461.021l.029-.015Z"/><path class="f" d="M461.358,438.585V483.4l-.039.019-38.8-22.411Z"/><path class="a" d="M461.358,438.517v.068l-38.843,22.421-.029-.019v-44.91Z"/><path class="f" d="M422.486,416.077v44.91l-38.867-22.45v-.019Z"/><path class="i" d="M422.486,460.987v.034l-38.819,22.406-.048-.029V438.537Z"/><path class="c" d="M461.358,438.517v.068l-38.843,22.421-.029-.019v-44.91Z"/><path class="l" d="M383.617,348.756v44.91l-38.867-22.45V371.2Z"/><path class="g" d="M422.45,416.1l-38.833,22.421V393.7l.029-.015Z"/><path class="g" d="M357.129,416.1,338.993,426.57V405.639l.014-.007Z"/><path class="l" d="M356.8,352.219l-12.388,7.153v-14.3l.009,0Z"/><path class="g" d="M422.489,371.264v44.813l-.039.019-38.8-22.411Z"/><path class="c" d="M422.489,371.2v.068l-38.843,22.421-.029-.019v-44.91Z"/><path class="m" d="M383.617,483.4v44.91l-38.867-22.45v-.019Z"/><path class="n" d="M422.45,550.739l-38.833,22.421V528.342l.029-.015Z"/><path class="n" d="M344.75,550.739l-38.833,22.421V528.342l.029-.015Z"/><path class="n" d="M422.489,505.906v44.813l-.039.019-38.8-22.411Z"/><path class="n" d="M422.489,505.839v.068l-38.843,22.421-.029-.019V483.4Z"/><path class="c" d="M422.486,416.077v44.91l-38.867-22.45v-.019Z"/><path class="c" d="M422.486,460.987v.034l-38.819,22.406-.048-.029V438.537Z"/><path class="i" d="M422.486,461.021v44.818l-38.819-22.411Z"/><path class="e" d="M461.32,483.418l-38.833,22.421V461.021l.029-.015Z"/><path class="c" d="M461.358,438.517v.068l-38.843,22.421-.029-.019v-44.91Z"/></g><path class="c" d="M-117.392,118.706V73.8l38.867,22.45v.019Z"/><path class="d" d="M-78.525,96.2V51.385l.039-.019,38.8,22.411Z"/><path class="e" d="M-78.525,96.266V96.2l38.843-22.421.029.019v44.91Z"/><path class="c" d="M-78.523,186.027v-44.91l38.867,22.45v.019Z"/><path class="f" d="M-78.523,141.118v-.034L-39.7,118.677l.049.029v44.861Z"/><path class="f" d="M-78.523,141.084V96.266L-39.7,118.677Z"/><path class="g" d="M-117.356,118.687l38.833-22.421v44.818l-.029.015Z"/><path class="h" d="M-78.523,51.385V6.476l38.867,22.45v.019Z"/><path class="h" d="M-78.523,6.476V6.442L-39.7-15.965l.049.029V28.926Z"/><path class="i" d="M-78.523,6.442V-38.376L-39.7-15.965Z"/><path class="c" d="M-117.395,28.945v-.068L-78.552,6.456l.029.019v44.91Z"/><path class="c" d="M-117.392,118.706V73.8l38.867,22.45v.019Z"/><path class="j" d="M-78.486,51.366l38.833-22.421V73.763l-.029.015Z"/><path class="d" d="M-78.525,96.2V51.385l.039-.019,38.8,22.411Z"/><path class="c" d="M-78.525,96.266V96.2l38.843-22.421.029.019v44.91Z"/><path class="e" d="M-39.653,118.706V73.8L-.786,96.247v.019Z"/><path class="e" d="M-39.653,73.8v-.034L-.834,51.356l.048.029V96.247Z"/><path class="e" d="M-78.525,96.266V96.2l38.843-22.421.029.019v44.91Z"/><path class="e" d="M-.786,96.2V51.385l.039-.019,38.8,22.411Z"/><path class="f" d="M-.786,96.266V96.2L38.057,73.777l.029.019v44.91Z"/><path class="k" d="M-.783,186.027v-44.91l38.867,22.45v.019Z"/><path class="d" d="M-.783,141.118v-.034l38.819-22.406.049.029v44.861Z"/><path class="d" d="M12.109,189.713V189.7l13.066-7.542.016.01v15.1Z"/><path class="d" d="M-.783,141.084V96.266l38.819,22.411Z"/><path class="h" d="M-39.617,118.687-.783,96.266v44.818l-.029.015Z"/><path class="h" d="M-39.655,163.519V118.706l.039-.019L-.812,141.1Z"/><path class="k" d="M-39.655,208.516v-.068L-.812,186.027l.029.019v44.91Z"/><path class="e" d="M-.783,51.385V6.476l38.867,22.45v.019Z"/><path class="e" d="M-.783,6.476V6.442L38.035-15.965l.049.029V28.926Z"/><path class="j" d="M-.783,6.442V-38.376L38.035-15.965Z"/><path class="j" d="M-39.617-15.955-.783-38.376V6.442l-.029.015Z"/><path class="d" d="M-39.655,28.877V-15.936l.039-.019L-.812,6.456Z"/><path class="d" d="M-39.655,28.945v-.068L-.812,6.456l.029.019v44.91Z"/><path class="f" d="M-39.653,118.706V73.8L-.786,96.247v.019Z"/><path class="f" d="M-39.653,73.8v-.034L-.834,51.356l.048.029V96.247Z"/><path class="j" d="M-39.653,73.763V28.945L-.834,51.356Z"/><path class="g" d="M-78.486,51.366l38.833-22.421V73.763l-.029.015Z"/><path class="c" d="M-78.525,96.266V96.2l38.843-22.421.029.019v44.91Z"/><path class="f" d="M-.747,51.366,38.086,28.945V73.763l-.029.015Z"/><path class="f" d="M-.786,96.2V51.385l.039-.019,38.8,22.411Z"/><path class="a" d="M-.786,96.266V96.2L38.057,73.777l.029.019v44.91Z"/><path class="f" d="M38.086,118.706V73.8l38.867,22.45v.019Z"/><path class="i" d="M38.086,73.8v-.034L76.9,51.356l.048.029V96.247Z"/><path class="c" d="M-.786,96.266V96.2L38.057,73.777l.029.019v44.91Z"/><path class="c" d="M76.953,96.2V51.385l.039-.019,38.8,22.411Z"/><path class="l" d="M127.284,82.884v-18.2l.016-.008,15.756,9.1Z"/><path class="l" d="M76.956,186.027v-44.91l38.867,22.45v.019Z"/><path class="g" d="M38.123,118.687,76.956,96.266v44.818l-.029.015Z"/><path class="g" d="M38.084,163.519V118.706l.039-.019,38.8,22.411Z"/><path class="c" d="M38.084,163.587v-.068L76.927,141.1l.029.019v44.91Z"/><path class="m" d="M76.956,51.385V6.476l38.867,22.45v.019Z"/><path class="n" d="M38.123-15.955,76.956-38.376V6.442l-.029.015Z"/><path class="n" d="M38.084,28.877V-15.936l.039-.019,38.8,22.411Z"/><path class="n" d="M38.084,28.945v-.068L76.927,6.456l.029.019v44.91Z"/><path class="c" d="M38.086,118.706V73.8l38.867,22.45v.019Z"/><path class="c" d="M38.086,73.8v-.034L76.9,51.356l.048.029V96.247Z"/><path class="i" d="M38.086,73.763V28.945L76.9,51.356Z"/><path class="e" d="M-.747,51.366,38.086,28.945V73.763l-.029.015Z"/><path class="c" d="M-.786,96.266V96.2L38.057,73.777l.029.019v44.91Z"/></g></svg>