<svg xmlns="http://www.w3.org/2000/svg" width="611.399" height="468.529" viewBox="0 0 611.399 468.529"><defs><style>.a{fill:#00b8e5;}.b{fill:#fff;}.c{fill:#ebf5f7;}.d{fill:#dae4e5;}.ac,.ad,.ae,.ag,.ai,.ap,.e,.g,.h,.p,.r,.w,.x{fill:none;}.e{stroke:#023d5f;stroke-width:2px;}.ad,.ae,.ag,.ai,.ap,.e,.p,.w{stroke-miterlimit:10;}.f{fill:#2b99ff;}.g{stroke:#767f82;}.ac,.g,.h,.r,.x{stroke-linecap:round;stroke-linejoin:round;}.g,.h{stroke-dasharray:3 2.5;}.h{stroke:#63bace;}.i{fill:#fdd247;}.j{fill:#fcded6;}.k{fill:#71606e;}.k,.s{opacity:0.2;}.l{fill:#fc9549;}.m{fill:#fc5e49;}.n{fill:#2085b7;}.o{fill:#167f7f;}.ac,.ag,.p,.w{stroke:#fff;}.p{stroke-width:3px;}.q{fill:#007fdd;}.r,.x{stroke:#00ebff;}.s{fill:#ffb839;}.t{fill:#ffad00;}.u{fill:#00ebff;}.v,.y{fill:#dbe2e8;}.ac,.ad,.x{stroke-width:0.5px;}.ab,.au,.y{opacity:0.55;}.z{fill:#ffe1b0;}.aa,.ab{fill:#767f82;}.ac{stroke-dasharray:2 2.5;}.ad,.ae{stroke:#dbe2e8;}.ae,.ag{stroke-width:0.25px;}.af{fill:#f39f86;}.ah{fill:#023d5f;}.ai{stroke:#062f44;}.aj{fill:#062f44;}.ak{fill:#16405a;}.al{fill:#103649;}.am{opacity:0.5;}.an{fill:#3a3a3a;}.ao{fill:#ffe7c5;}.ap{stroke:#ffe7c5;stroke-width:0.588px;}.aq{fill:#ffc25b;}.ar{fill:#ffa92c;}.as{fill:#0b0b3a;}.at{fill:#ff703d;}.av{fill:#afd4dd;}.aw{fill:#c5e6ef;}.ax{fill:#ffb27e;}.ay{fill:#db856e;}.az{fill:#ed9c80;}</style></defs><g transform="translate(-320 -130.072)"><rect class="a" width="33.806" height="33.806" rx="3.896" transform="translate(804.059 397.182) rotate(-50.994)"/><g transform="translate(813.447 380.712)"><path class="b" d="M600.434,266.893a26.079,26.079,0,0,1,6.576,5.292,5.214,5.214,0,0,1,.469,6.212,5.628,5.628,0,0,1-6.065,2.7,9.366,9.366,0,0,1-4.074-2.154c-.287-.244-.586-.476-.942-.764-1.321,1.632-2.623,3.239-3.948,4.875-1.055-.855-2.052-1.662-3.085-2.5C593.035,276.027,596.7,271.5,600.434,266.893Zm-2,8.824a5.676,5.676,0,0,0,2.671,1.79,2.689,2.689,0,0,0,3-1.3,2.319,2.319,0,0,0-.346-2.96,21.563,21.563,0,0,0-1.993-1.641Z" transform="translate(-589.366 -266.893)"/><path class="b" d="M609.724,278.692q-1.129.838-2.173,1.608c-.529-.687-1.007-1.363-1.548-1.984a2.033,2.033,0,0,0-.927-.639,1.266,1.266,0,0,0-1.029.148,1.166,1.166,0,0,0-.218,1,10.4,10.4,0,0,0,.755,1.531,12.649,12.649,0,0,1,.868,1.876,3.746,3.746,0,0,1-4.074,4.834,7.048,7.048,0,0,1-4.217-2.257c-.777-.786-1.418-1.709-2.178-2.643l2.317-1.77c.826.989,1.6,1.944,2.407,2.861a1.374,1.374,0,0,0,.8.438,1.265,1.265,0,0,0,.956-.216,1.306,1.306,0,0,0,.253-1.015,5.476,5.476,0,0,0-.586-1.215,16.572,16.572,0,0,1-1.017-2.123,3.608,3.608,0,0,1,3.732-4.814A7.67,7.67,0,0,1,609.724,278.692Z" transform="translate(-584.693 -260.721)"/></g><path class="c" d="M680.573,254.814H544.831c-20.469,0-20.724-25.392-2.557-30.5,18.692-5.254,31.957,6.761,31.957,6.761s4.93-62.4,51.657-55.077c36.837,5.776,34.7,45.892,34.7,45.892s7.582-16.509,27.453-10.262C708.773,218.149,706.526,254.814,680.573,254.814Z" transform="translate(173.9 37.71)"/><ellipse class="d" cx="175.381" cy="22.559" rx="175.381" ry="22.559" transform="translate(437.221 463.082)"/><ellipse class="d" cx="128.698" cy="28.059" rx="128.698" ry="28.059" transform="translate(659.117 470.366)"/><path class="c" d="M452.756,301.359H333.831c-17.932,0-18.158-20.391-2.24-24.492a33.175,33.175,0,0,1,28,5.432s4.318-50.12,45.257-44.234c32.274,4.638,30.4,36.858,30.4,36.858s6.644-13.259,24.054-8.243C477.463,271.914,475.494,301.359,452.756,301.359Z" transform="translate(0 89.437)"/><path class="c" d="M413.978,181.409h95.727c14.435,0,14.615-16.414,1.8-19.717a26.7,26.7,0,0,0-22.536,4.373s-3.477-40.342-36.429-35.606c-25.978,3.735-24.468,29.667-24.468,29.667s-5.347-10.673-19.361-6.633C394.093,157.706,395.678,181.409,413.978,181.409Z" transform="translate(65.608 0)"/><g transform="translate(382.201 469.533)"><path class="d" d="M468.446,323.434c0,4.446-25.63,8.053-57.248,8.053s-57.243-3.607-57.243-8.053,25.63-8.055,57.243-8.055S468.446,318.986,468.446,323.434Z" transform="translate(-353.955 -315.379)"/></g><g transform="translate(403.87 289.547)"><line class="e" y1="188.631" x2="18.029"/><line class="e" x1="18.029" y1="188.631" transform="translate(53.847)"/><line class="e" x2="38.693" transform="translate(16.592 15.039)"/><line class="e" x2="43.02" transform="translate(14.428 37.678)"/><line class="e" x2="47.348" transform="translate(12.264 60.318)"/><line class="e" x2="51.676" transform="translate(10.1 82.957)"/><line class="e" x2="55.925" transform="translate(7.936 105.597)"/><line class="e" x2="60.266" transform="translate(5.773 128.236)"/><line class="e" x2="64.641" transform="translate(3.609 150.876)"/><line class="e" x2="68.264" transform="translate(1.445 173.515)"/></g><path class="f" d="M415.913,219.872h-40.5a2.341,2.341,0,0,1-2.341-2.341h0a2.342,2.342,0,0,1,2.341-2.341h40.5a2.343,2.343,0,0,1,2.341,2.341h0A2.342,2.342,0,0,1,415.913,219.872Z" transform="translate(44.147 70.808)"/><g transform="translate(473.451 459.556)"><path class="g" d="M502.58,318.841V330.4a20.762,20.762,0,0,1-20.763,20.761H446.359a12.4,12.4,0,0,1-12.4-12.4V320.948" transform="translate(-378.649 -302.523)"/><path class="g" d="M403.767,330.657v23.157a24.194,24.194,0,0,0,24.194,24.194h76.668a35.936,35.936,0,0,0,35.936-35.936V309.933" transform="translate(-403.767 -309.933)"/><path class="h" d="M433.242,347.094" transform="translate(-379.247 -279.019)"/><path class="g" d="M414.016,321.246V344.4A24.194,24.194,0,0,0,438.21,368.6h31.252" transform="translate(-395.241 -300.522)"/><path class="g" d="M423.9,321.246V344.4A24.194,24.194,0,0,0,448.092,368.6h33.654" transform="translate(-387.02 -300.522)"/></g><g transform="translate(466.567 389.358)"><g transform="translate(0 0.007)"><path class="i" d="M413.506,281.36v82.153l-13.216.02-.28-82.153Z" transform="translate(-400.009 -263.511)"/><g transform="translate(0.011)"><path class="j" d="M406.592,271.616l1.347,1.912,5.563,15.937-13.486.02,5.287-16.018Z" transform="translate(-400.015 -271.616)"/><path class="i" d="M404.191,271.616l1.347,1.912-.709.443-.635-.506-.684.688-.609-.686Z" transform="translate(-397.614 -271.616)"/></g><g transform="translate(0.011 17.849)"><path class="j" d="M400.015,281.373l1.933,1.452,1.369-1.458Z" transform="translate(-400.015 -281.353)"/><path class="j" d="M401.818,281.37l1.933,1.453,1.369-1.457Z" transform="translate(-398.515 -281.355)"/><path class="j" d="M403.62,281.367l1.933,1.452,1.369-1.457Z" transform="translate(-397.016 -281.357)"/><path class="j" d="M405.422,281.365l1.933,1.453L409,281.36Z" transform="translate(-395.517 -281.36)"/></g></g><path class="k" d="M404.475,271.613l1.347,1.913,5.563,15.943,0,82.148-4.284.007-.28-82.154-4.263-14.1.626-1.9Z" transform="translate(-397.888 -271.613)"/><rect class="i" width="13.221" height="2.429" transform="translate(0.278 99.126)"/></g><g transform="translate(485.094 389.358)"><g transform="translate(0 0.007)"><path class="l" d="M423.62,281.36v82.153l-13.217.02-.28-82.153Z" transform="translate(-410.123 -263.511)"/><g transform="translate(0.011)"><path class="j" d="M416.706,271.616l1.346,1.912,5.563,15.937-13.486.02,5.287-16.018Z" transform="translate(-410.129 -271.616)"/><path class="l" d="M414.3,271.616l1.346,1.912-.709.443-.635-.506-.684.688-.609-.686Z" transform="translate(-407.728 -271.616)"/></g><g transform="translate(0.011 17.849)"><path class="j" d="M410.129,281.373l1.933,1.452,1.369-1.458Z" transform="translate(-410.129 -281.353)"/><path class="j" d="M411.931,281.37l1.933,1.453,1.369-1.457Z" transform="translate(-408.629 -281.355)"/><path class="j" d="M413.734,281.367l1.933,1.452,1.369-1.457Z" transform="translate(-407.13 -281.357)"/><path class="j" d="M415.536,281.365l1.933,1.453,1.647-1.457Z" transform="translate(-405.63 -281.36)"/></g></g><path class="k" d="M414.589,271.613l1.346,1.913,5.563,15.943,0,82.148-4.284.007-.28-82.154-4.263-14.1.626-1.9Z" transform="translate(-408.001 -271.613)"/><rect class="l" width="13.221" height="2.429" transform="translate(0.278 99.126)"/></g><g transform="translate(503.621 389.358)"><g transform="translate(0 0.007)"><path class="m" d="M433.733,281.36v82.153l-13.216.02-.28-82.153Z" transform="translate(-420.236 -263.511)"/><g transform="translate(0.011)"><path class="j" d="M426.819,271.616l1.346,1.912,5.563,15.937-13.486.02,5.287-16.018Z" transform="translate(-420.242 -271.616)"/><path class="m" d="M424.418,271.616l1.346,1.912-.709.443-.634-.506-.684.688-.609-.686Z" transform="translate(-417.841 -271.616)"/></g><g transform="translate(0.011 17.849)"><path class="j" d="M420.242,281.373l1.933,1.452,1.369-1.458Z" transform="translate(-420.242 -281.353)"/><path class="j" d="M422.045,281.37l1.933,1.453,1.369-1.457Z" transform="translate(-418.743 -281.355)"/><path class="j" d="M423.847,281.367l1.933,1.452,1.369-1.457Z" transform="translate(-417.243 -281.357)"/><path class="j" d="M425.65,281.365l1.933,1.453,1.647-1.457Z" transform="translate(-415.744 -281.36)"/></g></g><path class="k" d="M424.7,271.613l1.346,1.913,5.563,15.943,0,82.148-4.284.007-.28-82.154-4.263-14.1.626-1.9Z" transform="translate(-418.115 -271.613)"/><rect class="m" width="13.221" height="2.429" transform="translate(0.278 99.126)"/></g><g transform="translate(522.148 389.358)"><g transform="translate(0 0.007)"><path class="f" d="M443.847,281.36v82.153l-13.217.02-.28-82.153Z" transform="translate(-430.35 -263.511)"/><g transform="translate(0.011)"><path class="j" d="M436.933,271.616l1.346,1.912,5.563,15.937-13.486.02,5.287-16.018Z" transform="translate(-430.356 -271.616)"/><path class="n" d="M434.532,271.616l1.346,1.912-.709.443-.635-.506-.683.688-.61-.686Z" transform="translate(-427.955 -271.616)"/></g><g transform="translate(0.011 17.849)"><path class="j" d="M430.356,281.373l1.933,1.452,1.369-1.458Z" transform="translate(-430.356 -281.353)"/><path class="j" d="M432.158,281.37l1.933,1.453,1.369-1.457Z" transform="translate(-428.856 -281.355)"/><path class="j" d="M433.961,281.367l1.933,1.452,1.369-1.457Z" transform="translate(-427.357 -281.357)"/><path class="j" d="M435.763,281.365l1.933,1.453,1.647-1.457Z" transform="translate(-425.857 -281.36)"/></g></g><path class="k" d="M434.816,271.613l1.346,1.913,5.563,15.943,0,82.148-4.284.007-.28-82.154-4.263-14.1.626-1.9Z" transform="translate(-428.228 -271.613)"/><rect class="o" width="13.221" height="2.429" transform="translate(0.278 99.126)"/></g><path class="g" d="M696.6,359.227h83.589a7.619,7.619,0,0,1,7.619,7.619h0a7.619,7.619,0,0,1-7.619,7.619H517.045a25.03,25.03,0,0,1-25.029-25.031V319.776" transform="translate(143.097 157.811)"/><path class="g" d="M498.819,321.829v50.516a25.311,25.311,0,0,1-25.311,25.311h-8.9" transform="translate(120.298 159.519)"/><path class="g" d="M501.254,313.775v20.9a15.175,15.175,0,0,0,15.173,15.173h91.521" transform="translate(150.782 152.819)"/><path class="i" d="M637.67,189.419c-21.71-26.874-53.982-45.934-89.2-46.55-20.372-.355-41.837,2.345-60.027,12.052a135.671,135.671,0,0,0-41.194,34.5c-19.449,24.075-30.653,55.477-27.286,86.24,2.81,25.687,15.507,49.245,32.28,68.529,16.359,18.806,40.2,34.328,44.291,60.892,1.165,7.584-1.63,18.072,4.157,24.137,6.886,7.221,18.07,4.706,26.881,4.636q15.726-.124,31.453-.2c7.516-.042,19.531,2.044,25.2-4.44,5.785-6.065,2.99-16.553,4.157-24.137,3.078-20.011,18.682-36.225,33.045-49.263,16.485-14.963,29.55-32.166,36.912-53.409C671.97,263.081,663.638,221.568,637.67,189.419Z" transform="translate(82.662 10.62)"/><path class="p" d="M501.988,397.81s-2.616-70.117-5.831-104.481c-.857-9.176-1.577-18.59-6.051-32.655-7.393-23.234-19.222-26.614-26.4-21.334-9.068,6.668-3.239,20.7,9.929,26.456,7.936,3.47,22.622,1.894,30.206-2.587,13.323-7.87,19.189-26.535,17.32-40.556-.94-7.045-14.574-15-19.433-1.9-3.4,9.163,4.135,42.624,21.8,43.6,9.323.517,18.52-3.155,25.626-9.112,5.968-5,16.159-17.123,12.27-25.584-1.872-4.076-7.221-5.631-11.541-4.422s-7.727,4.516-10.515,8.029c-11,13.853-15.223,31.364-16.1,48.684-2.1,41.335-2.625,73.829-3.942,115.194" transform="translate(115.898 69.594)"/><rect class="q" width="71.06" height="7.012" transform="translate(588.884 444.079)"/><path class="a" d="M544.322,330.583a4.135,4.135,0,0,1,.126-5.272l.442-.471a4.141,4.141,0,0,0,.178-5.208l-.716-.9a4.12,4.12,0,0,1,.324-5.355,4.118,4.118,0,0,0,.385-5.278l-1.9-2.537a3.677,3.677,0,0,0-2.94-1.469H469.605a3.671,3.671,0,0,0-2.938,1.469l-1.9,2.537a4.12,4.12,0,0,0,.385,5.278,4.118,4.118,0,0,1,.324,5.355l-.716.9a4.139,4.139,0,0,0,.18,5.208l.44.471a4.135,4.135,0,0,1,.128,5.272l-.562.672a4.126,4.126,0,0,0,.2,5.349l.293.295a7.6,7.6,0,0,0,5.375,2.334h68.2a7.6,7.6,0,0,0,5.375-2.334l.293-.295a4.124,4.124,0,0,0,.2-5.349Z" transform="translate(119.726 144.762)"/><line class="r" x2="32.909" transform="translate(627.573 458.362)"/><line class="r" x2="18.243" transform="translate(594.664 458.362)"/><line class="r" x2="47.694" transform="translate(589.895 466.424)"/><line class="r" x2="14.07" transform="translate(646.531 466.424)"/><line class="r" x2="25.516" transform="translate(594.664 474.485)"/><line class="r" x2="10.254" transform="translate(636.873 474.485)"/><line class="r" x2="3.696" transform="translate(617.478 458.362)"/><path class="s" d="M601.4,189.418c-21.71-26.874-53.982-45.934-89.2-46.55-4.014-.07-8.071-.015-12.138.183,56.389,3.449,105.232,52.458,103.386,111.426-1.552,49.573-25.76,84.922-75.816,106.6-10.475,4.536-17.989,11.458-19.656,23.457-1.541,11.092,1.96,22.327-.341,33.386a9.337,9.337,0,0,1-2.05,4.624,10.14,10.14,0,0,1-4.105,2.3c-12.33,4.389-25.615,4.854-38.515,2.44a11.172,11.172,0,0,0,1.456,1.935c6.886,7.221,18.07,4.706,26.881,4.636q15.726-.124,31.453-.2c7.516-.042,19.531,2.044,25.2-4.44,5.785-6.065,2.99-16.553,4.157-24.137,3.078-20.011,18.682-36.225,33.045-49.263,16.485-14.963,29.55-32.166,36.912-53.409C635.7,263.08,627.371,221.568,601.4,189.418Z" transform="translate(118.93 10.621)"/><path class="t" d="M747.622,338.488s-10.944-7.764-19.79-9.026c-17.388-2.479-27.326,4.4-36.718-.87-3.893-2.184,5.763-3.669,6.782-6.111a32.6,32.6,0,0,0,.057-3.724,6.039,6.039,0,0,1-4.587.165c-17.612-6.353-32.563-5.741-58.127-5.741-57.184,0-104.375,10.29-111.324,23.593h-.883v3.547h.009c.333,14.84,50.435,26.844,112.2,26.844,59.62,0,111.776-11.447,112.379-25.34Zm-73.832,1.625c-8.09,0-14.648-2.361-14.648-5.272s6.558-5.272,14.648-5.272,14.65,2.36,14.65,5.272S681.881,340.113,673.789,340.113Z" transform="translate(168.898 152.311)"/><path class="i" d="M747.444,338.465c-1.486-5.924-10.766-9.447-19.612-10.707-17.388-2.48-27.326,4.4-36.718-.87-5.475-3.072,15.855-4.765,2.251-9.672-17.612-6.353-32.563-5.741-58.127-5.741-61.969,0-112.206,12.085-112.206,26.991s50.238,26.993,112.206,26.993S751.111,353.091,747.444,338.465Zm-73.654-.059c-8.09,0-14.648-2.359-14.648-5.272s6.558-5.272,14.648-5.272,14.65,2.361,14.65,5.272S681.881,338.407,673.789,338.407Z" transform="translate(168.898 150.892)"/><path class="l" d="M573.962,331.547a6.568,6.568,0,0,0-1.859-2.028,19.988,19.988,0,0,0-5.644-3.116,1.029,1.029,0,0,0,.37-1.381,2.237,2.237,0,0,0-1.193-.96c-2.171-.931-4.593-.813-6.926-.683A104.1,104.1,0,0,0,544.7,324.8c-2.154.416-4.563,1.2-5.5,3.321a4.253,4.253,0,0,0-.234,2.687,6.3,6.3,0,0,1-1.72.506c-.575.181-1.156.755-.984,1.368a1.432,1.432,0,0,0,.4.6c4.32,4.378,10.632,5.4,16.346,5.421a60.056,60.056,0,0,0,18.546-2.669,4.009,4.009,0,0,0,2.568-1.744A3.087,3.087,0,0,0,573.962,331.547Z" transform="translate(179.879 160.736)"/><path class="m" d="M597.51,323.465a6.6,6.6,0,0,0-1.858-2.028,20.041,20.041,0,0,0-5.646-3.116,1.027,1.027,0,0,0,.37-1.381,2.231,2.231,0,0,0-1.191-.96c-2.173-.931-4.593-.813-6.928-.683a104.141,104.141,0,0,0-14.01,1.423c-2.154.416-4.563,1.2-5.5,3.321a4.258,4.258,0,0,0-.235,2.689,6.34,6.34,0,0,1-1.72.5c-.573.181-1.156.755-.984,1.368a1.43,1.43,0,0,0,.4.6c4.321,4.378,10.632,5.4,16.346,5.421a60.1,60.1,0,0,0,18.546-2.667,4.018,4.018,0,0,0,2.568-1.746A3.081,3.081,0,0,0,597.51,323.465Z" transform="translate(199.468 154.012)"/><path class="u" d="M637.636,334.885a5.686,5.686,0,0,0-1.592-1.737,17.145,17.145,0,0,0-4.834-2.665.88.88,0,0,0,.317-1.183,1.916,1.916,0,0,0-1.02-.823,13.07,13.07,0,0,0-5.932-.584,88.947,88.947,0,0,0-12,1.218c-1.845.357-3.907,1.026-4.71,2.843a3.636,3.636,0,0,0-.2,2.3,5.5,5.5,0,0,1-1.475.432c-.491.156-.987.645-.841,1.171a1.243,1.243,0,0,0,.343.511c3.7,3.748,9.1,4.62,14,4.642a51.488,51.488,0,0,0,15.879-2.286,3.442,3.442,0,0,0,2.2-1.493A2.651,2.651,0,0,0,637.636,334.885Z" transform="translate(237.36 164.501)"/><path class="b" d="M607.377,336.469a6.593,6.593,0,0,0-1.859-2.03,19.979,19.979,0,0,0-5.644-3.114,1.028,1.028,0,0,0,.37-1.381,2.238,2.238,0,0,0-1.193-.96c-2.171-.931-4.593-.813-6.926-.683a104.122,104.122,0,0,0-14.012,1.423c-2.154.416-4.562,1.2-5.5,3.321a4.265,4.265,0,0,0-.234,2.687,6.349,6.349,0,0,1-1.72.506c-.573.181-1.154.753-.984,1.368a1.452,1.452,0,0,0,.4.6c4.32,4.378,10.63,5.4,16.346,5.421a60.038,60.038,0,0,0,18.544-2.669,4.009,4.009,0,0,0,2.57-1.744A3.087,3.087,0,0,0,607.377,336.469Z" transform="translate(207.675 164.83)"/><g transform="translate(381.94 559.599)"><path class="d" d="M445.115,369.907c0,2.96-20.438,5.362-45.654,5.362s-45.649-2.4-45.649-5.362,20.438-5.362,45.649-5.362S445.115,366.945,445.115,369.907Z" transform="translate(-353.812 -364.545)"/></g><g transform="translate(374.355 494.501)"><path class="v" d="M353.825,380.388c-4.516-8.883-5.728-19.625-1.738-28.969,2.308-5.406,5.549-10.738,10.249-14.382a39.1,39.1,0,0,1,13.937-6.776c8.63-2.282,18.218-1.53,25.919,2.982,6.432,3.768,11.136,9.888,14.236,16.577,3.021,6.523,4.3,14.631,10.808,18.839,1.858,1.2,4.948,1.7,5.864,3.939,1.088,2.665-.892,5.312-1.949,7.624q-1.888,4.125-3.759,8.256c-.9,1.973-1.766,5.382-4.14,6.111-2.279.808-4.71-1.163-6.846-1.751-5.629-1.548-11.737.648-16.863,2.893a37.193,37.193,0,0,1-18.412,3.42A33.694,33.694,0,0,1,353.825,380.388Z" transform="translate(-349.672 -329.009)"/><path class="w" d="M417.015,371.675s-18.15-8.954-26.817-13.853a39.353,39.353,0,0,1-7.844-5.408c-2.033-1.812-6.151-6.087-3.512-8.91,3.12-3.332,6.791,2.109,6.763,5.142-.022,2.5-2.167,6.179-4.241,7.646-3.642,2.579-9.246,1.923-12.717-.22a2.9,2.9,0,0,1,1.788-5.342c2.814.187,10.735,6.115,8.908,10.88a10.771,10.771,0,0,1-5.4,5.664c-4.342,2.118-9.973-3.387-3.873-5.344,4.334-1.392,9.876.106,13.941,1.684,11.127,4.321,19.744,8.013,30.788,12.543" transform="translate(-335.034 -317.819)"/><rect class="q" width="20.497" height="2.023" transform="translate(85.738 46.372) rotate(114.124)"/><path class="a" d="M398.112,377.412a1.19,1.19,0,0,0-1.4-.588l-.178.06a1.19,1.19,0,0,1-1.39-.568l-.154-.295a1.188,1.188,0,0,0-1.447-.546,1.189,1.189,0,0,1-1.436-.52l-.443-.8a1.064,1.064,0,0,1-.04-.947l8.324-18.588a1.063,1.063,0,0,1,.735-.6l.892-.2a1.189,1.189,0,0,1,1.345.724,1.187,1.187,0,0,0,1.37.716l.322-.082a1.2,1.2,0,0,1,1.35.661l.071.172a1.193,1.193,0,0,0,1.374.654l.244-.068a1.187,1.187,0,0,1,1.383.683l.044.112a2.2,2.2,0,0,1-.02,1.691l-8.04,17.954a2.2,2.2,0,0,1-1.247,1.139l-.114.042a1.19,1.19,0,0,1-1.431-.577Z" transform="translate(-314.851 -308.394)"/><line class="x" x1="3.88" y2="8.663" transform="translate(79.212 57.414)"/><line class="x" x1="2.151" y2="4.802" transform="translate(84.82 48.751)"/><line class="x" x1="5.623" y2="12.555" transform="translate(84.033 48.445)"/><line class="x" x1="1.659" y2="3.704" transform="translate(81.32 63.355)"/><line class="x" x1="3.008" y2="6.717" transform="translate(88.207 50.651)"/><line class="x" x1="1.209" y2="2.699" transform="translate(85.031 61.763)"/><line class="x" x1="0.436" y2="0.973" transform="translate(83.846 54.756)"/><path class="y" d="M353.825,371.653c-4.516-8.883-5.728-19.625-1.738-28.969q.682-1.6,1.478-3.175c-5.739,15.25,1.4,33.886,17.145,40.353,13.234,5.435,25.392,3.23,37-7.392,2.427-2.224,5.137-3.385,8.491-2.409,3.1.9,5.648,3.147,8.83,3.845a2.683,2.683,0,0,0,1.458.005,2.892,2.892,0,0,0,1.09-.81,21.337,21.337,0,0,0,5.182-9.852,3.352,3.352,0,0,1,.339.612c1.088,2.665-.892,5.312-1.949,7.624q-1.888,4.125-3.759,8.256c-.9,1.973-1.766,5.382-4.14,6.111-2.279.808-4.71-1.163-6.846-1.751-5.629-1.548-11.737.648-16.863,2.893a37.193,37.193,0,0,1-18.412,3.42A33.694,33.694,0,0,1,353.825,371.653Z" transform="translate(-349.672 -320.274)"/></g><g transform="translate(739.299 550.084)"><path class="d" d="M620.584,363.563c0,2.325-16.049,4.21-35.848,4.21s-35.846-1.885-35.846-4.21,16.049-4.211,35.846-4.211S620.584,361.238,620.584,363.563Z" transform="translate(-548.89 -359.351)"/></g><path class="v" d="M615.209,372.373c3.484-6.52,4.547-14.468,1.731-21.459-1.63-4.043-3.953-8.047-7.382-10.821a29.034,29.034,0,0,0-10.235-5.239,25.5,25.5,0,0,0-19.268,1.817,27.256,27.256,0,0,0-10.808,12.078c-2.341,4.792-3.411,10.784-8.3,13.807-1.4.863-3.7,1.185-4.409,2.832-.848,1.958.581,3.953,1.33,5.682q1.336,3.089,2.662,6.181c.636,1.478,1.227,4.019,2.979,4.6,1.676.634,3.51-.791,5.1-1.194,4.2-1.062,8.7.66,12.462,2.4a27.616,27.616,0,0,0,13.6,2.817A25,25,0,0,0,615.209,372.373Z" transform="translate(196.551 169.457)"/><path class="w" d="M556.916,364.783s13.6-6.366,20.1-9.867A29.188,29.188,0,0,0,582.943,351c3.962-3.394,3.64-6.007,2-6.981-2.07-1.231-4.349,1.088-4.384,4.164a8.567,8.567,0,0,0,3.03,5.736c2.662,1.967,6.829,1.566,9.436.029,1.31-.773,1.739-4.124-1.247-3.988-2.088.1-8.053,4.371-6.772,7.932a7.988,7.988,0,0,0,3.933,4.288,8.482,8.482,0,0,0,5.375.672c3.048-.921-.211-3.975-1.861-4.433a17.949,17.949,0,0,0-10.934.888c-8.319,3.035-14.765,5.642-23.025,8.833" transform="translate(197.086 177.699)"/><rect class="q" width="15.204" height="1.5" transform="translate(752.711 536.289) rotate(67.052)"/><path class="a" d="M559.884,369.309a.885.885,0,0,1,1.05-.414l.13.048a.887.887,0,0,0,1.041-.4l.117-.216a.881.881,0,0,1,1.083-.383.883.883,0,0,0,1.072-.365l.341-.586a.79.79,0,0,0,.046-.7l-5.891-13.913a.79.79,0,0,0-.535-.458l-.66-.163a.883.883,0,0,0-1.008.517.88.88,0,0,1-1.028.511l-.238-.066a.888.888,0,0,0-1.011.469l-.055.126a.886.886,0,0,1-1.028.465l-.18-.055a.881.881,0,0,0-1.037.485l-.035.082a1.638,1.638,0,0,0-.011,1.255l5.69,13.437a1.618,1.618,0,0,0,.909.865l.083.033a.882.882,0,0,0,1.07-.407Z" transform="translate(192.936 184.397)"/><line class="x" x2="2.745" y2="6.484" transform="translate(753.124 545.103)"/><line class="x" x2="1.522" y2="3.594" transform="translate(750.379 538.619)"/><line class="x" x2="3.979" y2="9.397" transform="translate(748.392 538.352)"/><line class="x" x2="1.174" y2="2.772" transform="translate(753.117 549.511)"/><line class="x" x2="2.128" y2="5.028" transform="translate(747.202 539.964)"/><line class="x" x2="0.855" y2="2.02" transform="translate(750.723 548.28)"/><line class="x" x2="0.308" y2="0.728" transform="translate(752.282 543.114)"/><path class="y" d="M615.209,365.669c3.484-6.52,4.547-14.468,1.731-21.459-.322-.8-.671-1.592-1.05-2.376,4.025,11.4-1.557,25.109-13.329,29.665-9.9,3.829-18.881,2.008-27.328-6.045-1.768-1.685-3.757-2.59-6.261-1.916-2.314.621-4.235,2.248-6.606,2.717a1.992,1.992,0,0,1-1.083-.018,2.181,2.181,0,0,1-.8-.616,15.854,15.854,0,0,1-3.693-7.386,2.519,2.519,0,0,0-.26.449c-.848,1.958.581,3.953,1.33,5.682q1.336,3.089,2.662,6.181c.636,1.478,1.227,4.019,2.979,4.6,1.676.634,3.51-.791,5.1-1.194,4.2-1.062,8.7.66,12.462,2.4a27.616,27.616,0,0,0,13.6,2.817A25,25,0,0,0,615.209,365.669Z" transform="translate(196.551 176.161)"/><path class="z" d="M434.424,253.5a7.125,7.125,0,0,1-7.122-7.071c-.256-33.452,10.077-51.954,21.283-66.966A7.124,7.124,0,0,1,460,187.987c-9.051,12.127-18.689,27.634-18.453,58.333a7.125,7.125,0,0,1-7.067,7.181Z" transform="translate(89.259 38.705)"/><path class="z" d="M457.847,179.809a7.126,7.126,0,0,1-5.567-11.568,28.235,28.235,0,0,1,7.163-6.542,7.125,7.125,0,0,1,7.318,12.228,15.568,15.568,0,0,0-3.34,3.2A7.119,7.119,0,0,1,457.847,179.809Z" transform="translate(108.748 25.487)"/><g transform="translate(500.398 581.288)"><path class="d" d="M513.572,385.042c0,4.778-21.286,8.656-47.548,8.656s-47.547-3.878-47.547-8.656,21.288-8.657,47.547-8.657S513.572,380.261,513.572,385.042Z" transform="translate(-418.477 -376.385)"/></g><g transform="translate(537.798 538.66)"><path class="aa" d="M480.42,373.287H438.893l20.72-6.758h42.106l-.156.445-20.021,6.135A3.628,3.628,0,0,1,480.42,373.287Z" transform="translate(-438.893 -341.956)"/><path class="v" d="M479.689,372.578H439.105l20.332-6.049H500.6L480.811,372.4A3.582,3.582,0,0,1,479.689,372.578Z" transform="translate(-438.717 -341.956)"/><path class="ab" d="M471.684,371.1H444.75l13.494-4.014h27.317l-13.131,3.9A2.439,2.439,0,0,1,471.684,371.1Z" transform="translate(-434.021 -341.494)"/><path class="aa" d="M492.31,377.688H450.2l5.307-23.281a1.988,1.988,0,0,1,1.92-1.292h37.958a1.828,1.828,0,0,1,1.9,2.29Z" transform="translate(-429.484 -353.115)"/><path class="aa" d="M491.365,377.688H450.2l5.307-23.281a1.988,1.988,0,0,1,1.92-1.292h37.015a1.828,1.828,0,0,1,1.9,2.29Z" transform="translate(-429.484 -353.115)"/><path class="v" d="M488.547,375.581h-37.14l4.778-21.664a.019.019,0,0,1,.016-.011h37.125Z" transform="translate(-428.483 -352.457)"/><path class="ac" d="M481.824,371.459H454.4l3.527-16,.013-.009h27.413Z" transform="translate(-425.993 -351.169)"/><line class="ad" x2="33.781" transform="translate(10.73 28.504)"/><line class="ae" x2="33.781" transform="translate(16.959 26.776)"/><path class="af" d="M442.841,368.347c1.412-1.169,3.895-1.445,5.712-1.7a29.739,29.739,0,0,1,5.494-.081c1.055.049.786,1.277-.123,1.429a10.638,10.638,0,0,1-3.143.049,5.018,5.018,0,0,1-2.768,1.836,11.232,11.232,0,0,1-3.358.321c-.317-.007-.716-.086-.782-.4" transform="translate(-435.609 -341.994)"/><g transform="translate(37.129 4.285)"><line class="ag" x1="7.724" y1="7.724" transform="translate(6.736 0.375)"/><path class="b" d="M467.063,359.884a.376.376,0,1,1,0,.531A.376.376,0,0,1,467.063,359.884Z" transform="translate(-452.679 -351.86)"/><path class="b" d="M465.479,361.323a.376.376,0,1,1,0,.531A.376.376,0,0,1,465.479,361.323Z" transform="translate(-453.997 -350.663)"/><path class="b" d="M461.1,356.946a.375.375,0,1,1,0,.529A.376.376,0,0,1,461.1,356.946Z" transform="translate(-457.638 -354.304)"/><path class="b" d="M462.743,355.564a.376.376,0,1,1,0,.531A.376.376,0,0,1,462.743,355.564Z" transform="translate(-456.273 -355.454)"/><path class="ag" d="M461.2,357.274a6.064,6.064,0,0,1,8.018,8.02" transform="translate(-457.468 -354.368)"/><g transform="translate(1.658 4.131)"><path class="b" d="M463.916,358.484l4.986-.775-3.84,4.146a1.132,1.132,0,1,0,.009.009l-.007-.007,4.028-3.955s-.586,3.444-.786,5.155a63.061,63.061,0,0,0-6.043,3.691c-.2.147-2.283-2.021-2.195-2.129C461.375,362.963,463.916,358.484,463.916,358.484Z" transform="translate(-460.066 -357.709)"/></g><g transform="translate(0 9.893)"><path class="b" d="M459.278,361.81l.837-.837a.4.4,0,0,1,.568,0l3.363,3.363a.4.4,0,0,1,.02.546l-.02.022-.837.837a.4.4,0,0,1-.566,0l-3.365-3.365A.4.4,0,0,1,459.278,361.81Z" transform="translate(-459.161 -360.854)"/></g></g></g><path class="ah" d="M426.8,369.1c-.835,2.918-.652,5.263-1.2,8.249-.823,4.446-1.152,9.568,1.845,12.955a8.75,8.75,0,0,0,7.34,3.42c2.759.038,5.5-.451,8.253-.524,1.85-.049,7.516.452,9.366.526,8.254.328,12.922-1.495,21.089-2.5a194.722,194.722,0,0,0,21.457-4.309c21.134-5.787,13.481-14.311,8.81-15.67-1.017-.3-5.618-1.83-5.618-1.83l-6.175,1.726h-21.62s-9.02-.419-12.882-1.323" transform="translate(87.367 198.847)"/><path class="af" d="M460.533,362.739a12.492,12.492,0,0,1,1.3.879,15.271,15.271,0,0,0,2.94,1.445q1.481.6,2.964,1.2a1.68,1.68,0,0,1,.575.326,1.65,1.65,0,0,1,.355.874c.616,3.1,1.227,6.326.4,9.6a12.365,12.365,0,0,1-1.735-3.464,3.8,3.8,0,0,0-.817-1.693,4.824,4.824,0,0,0-.945-.6,10.1,10.1,0,0,1-2.618-2.49,1.638,1.638,0,0,1-.429-.779.976.976,0,0,0-.06-.321.575.575,0,0,0-.224-.205l-3.653-2.347" transform="translate(115.289 193.552)"/><path class="f" d="M434.22,396.373c-1.7-1.255-3.552-2.664-5.314-4.133-4.01-3.369-7.593-7.029-8.036-9.692-.98-5.97-.214-23.716.26-32.091.015-.5.046-.98.077-1.423.474-7.916,4.73-11.422,6.859-12.708,1.086,10.29,3.536,33.514,3.735,34.709C432.061,372.566,434.22,396.373,434.22,396.373Z" transform="translate(83.517 171.579)"/><path class="q" d="M433.513,391.048c-1.7-1.255-3.552-2.664-5.312-4.133-.152-6.543-2.533-5.122-5.274-16.558a76.269,76.269,0,0,1-.773-27.628l6.538.995c1.086,10.182,2.264,21.175,2.4,21.986C431.355,367.24,433.513,391.048,433.513,391.048Z" transform="translate(84.227 176.905)"/><path class="af" d="M430.763,347.84s1.4-4.745.788-8.245-2.715-9.8-1.927-14.53,6.741-8.667,13.043-8.053,8.141,6.652,9.192,10.154.874,8.841.612,11.73-1.837,5.164-2.889,5.778-5-.2-5.7.559-1.22,5.217-1.22,5.217" transform="translate(91.048 155.459)"/><path class="f" d="M428.541,337.953s.35-2.768,1.4-3.748,8.055-.98,10.154-.716,7.282,2.676,7.967,3.188-.667,3.169-.667,3.169Z" transform="translate(90.293 169.095)"/><path class="ah" d="M432.277,343.593s8.753.744,10.416,0,4.07-2.365,4.29-5.34-.394-3.9.744-5.56,2.145-1.094,2.319.482.244,4.422.658,4.631c.557.282,1.22-1.722,1.006-4.763a18.8,18.8,0,0,0-1.269-6.434c-.788-1.749-1.215-1.652-1.925-1.969.766-.372,1.594-.416,3.107-2.779,1.753-2.735.788-7-3.851-6.981-8.1.031-16.72,1.619-16.9,7.617,0,0-2.845-.438-2.931,5.032s3.413,12.079,3.677,13.787S431.4,343.2,432.277,343.593Z" transform="translate(89.796 153.738)"/><path class="f" d="M461.808,391c.321,2.74,2.724,6.981,1.086,7.579-.658.229-3.338.077-6.613-.2h-.092c-.062,0-.108-.015-.154-.015-2.909-.245-6.232-.566-9.018-.78-11.13-.474-16.809,1.746-17.929,1.117-.535-.322-.55-1.286-.383-2.281a25.954,25.954,0,0,0,.185-7.381c-.277-2.066-.659-4.532-1.194-7.35-1.837-9.753-5.435-24.65-5.972-33.606-.857-14.039,14.179-12.708,14.179-12.708,19.138-1.194,28.125,4.318,29.165,12.539.077.583.123,1.209.169,1.869.489,8.482-2.1,22.169-3.323,32.4A51.654,51.654,0,0,0,461.808,391Z" transform="translate(84.594 170.65)"/><path class="q" d="M446.1,384.921c.321,2.74,2.724,6.981,1.086,7.579-.658.229-3.338.077-6.613-.2,2.955.214,3.506-2.052,2.847-3.567a21.656,21.656,0,0,1-1.9-9.064c.137-4.072,1.669-13.259,2.572-21.94a70.555,70.555,0,0,0,.015-15.217c.46.918,1.777,2.2,5.481,3.063.077,8.527-2.25,21.021-3.383,30.528A51.654,51.654,0,0,0,446.1,384.921Z" transform="translate(100.302 176.724)"/><path class="f" d="M438.452,336.355s8.773-.7,12.631,2.541c3.079,2.587,9.006,35.319,9.006,35.319L451.9,377.6s-8.925-22.371-11.251-22.025" transform="translate(98.538 171.55)"/><path class="f" d="M445.612,360.05c2.784,8.81,25.5,12.142,25.5,12.142l1.266-4.045s-13.871-10.33-18.878-11.731" transform="translate(104.494 188.292)"/><path class="ai" d="M461.625,370.287q3.036.165,6.065.449" transform="translate(117.815 199.831)"/><path class="aj" d="M485.064,379.7c-7.531-.366-14.974,1.427-22.435,2.523s-15.366,1.438-22.25-1.638a2.821,2.821,0,0,0-3.717.425,11,11,0,0,1-4.067,1.975c-2.1.44-2.7-.081-4.82-.432a.922.922,0,0,0-.621.044c-.051.029-.057.082-.09.123,2.116,1.561,3.341,2.2,6.014,2.237,2.759.038,5.5-.451,8.253-.524,1.85-.049,7.516.452,9.366.526,8.254.328,12.922-1.495,21.089-2.5,3.387-.42,8.441-1.343,13.131-2.338A1.057,1.057,0,0,0,485.064,379.7Z" transform="translate(89.065 207.621)"/><g transform="translate(697.395 223.216)"><path class="f" d="M588.741,217.412a12.191,12.191,0,0,0-3.644-1.7c-1.892-.535-.938-1.933-2.9-1.6-3.741.628-12.361,2.356-17.586,3.792-.049.011-.09.013-.145.026-2.623.645-3.515,0-3.515,0l-1.1,1.24.145.438a4.232,4.232,0,0,0-1.616,3.03c-.026.275-.3,1.332-.41,2.376-.125.958-.114,1.916.3,2.277l.024.026a.76.76,0,0,0,.15.049,14.35,14.35,0,0,0,4.838.672c2.737.148,9.244-.672,15.215-1.469,3.719-.5,7.24-.982,9.517-1.218a4.059,4.059,0,0,0,2.3-1.046,3.559,3.559,0,0,0,1.132-1.953C591.877,220.287,590.5,218.632,588.741,217.412Z" transform="translate(-499.494 -153.348)"/><g transform="translate(38.124 52.328)"><path class="f" d="M573.219,228.833a4.022,4.022,0,0,1-.572,1.057c-.112.137-.225.262-.337.376-3.871,3.871-8.747,0-11.572-2.275-4.032-3.244-8.8-8.923-12.552-12.49-.117-.112-1.5-1.291-1.348-1.493l3.448-4.525s9.275,8.4,14.723,10.306a35.418,35.418,0,0,1,6.344,2.588c.212.125.4.249.586.385C571.939,222.762,574.388,225.561,573.219,228.833Z" transform="translate(-546.827 -209.483)"/><path class="q" d="M579.965,223.167c-5.972.8-12.479,1.618-15.215,1.469a14.35,14.35,0,0,1-4.838-.672.757.757,0,0,1-.15-.049l-.024-.026c-3.583-1.517-5.785-4.889-.3-2.277a18.284,18.284,0,0,0,3.1,1.257,11.261,11.261,0,0,0,2.041.187c.1,0,.205,0,.31,0C569.945,223.036,584.734,211.949,579.965,223.167Z" transform="translate(-539.092 -202.275)"/></g><g transform="translate(75.522 24.687)"><path class="f" d="M594.93,248.709a15.636,15.636,0,0,0-.7,9.018c1.328,5.977-.183,6.379-.183,6.379s-8.1,5.142-14.84,7.243c-4.829,1.5-8.943,1.247-8.83-4.083l0-.073c.009-.324.016-.634.026-.936.227-11.982-2.272-12.591-2.887-26.007-.636-13.765-.5-21.915,3.909-24.135,4.8-2.42,11.409-4.083,20.781-1.869,7.038,1.66,9.357,3.526,9.3,8.736a40.888,40.888,0,0,1-.757,6.413A115.67,115.67,0,0,1,594.93,248.709Z" transform="translate(-567.241 -178.743)"/><path class="q" d="M593.5,244.741a15.636,15.636,0,0,0-.7,9.018c1.328,5.977-.183,6.379-.183,6.379s-8.1,5.142-14.84,7.243l-6.294-.6-2.521-1.98-.011-1.579c.009-.324.016-.634.026-.936a46.568,46.568,0,0,0,9.506-.247,39.409,39.409,0,0,0,9.322-2.336,3.632,3.632,0,0,0,2.292-4.037,52.12,52.12,0,0,1-.872-8.357c.018-2.638,1.24-7.1,2.239-10.314a20.765,20.765,0,0,0,.839-7.626,68.163,68.163,0,0,1,.007-8.69l4.992-2.7,2.779,1.035a40.888,40.888,0,0,1-.757,6.413A115.67,115.67,0,0,1,593.5,244.741Z" transform="translate(-565.816 -174.775)"/><g transform="translate(3.646)"><path class="ah" d="M571.951,209.64a11.8,11.8,0,0,1-2.673-8.392c.267-2.889,1.163-5.7,5.488-6.747,2.376-.573,5.75,1.213,8.165,3.906,7.533.63,9.986,5.813,10.284,11.7l-8.846-1.973Z" transform="translate(-569.232 -194.394)"/><path class="af" d="M591.2,210.312c-.17,6.745-5.99,10.654-5.99,10.654l.39,6.139-3.926,2.544-2.693,1.744-1.546-3.231-.213-3.957a2.04,2.04,0,0,0-1.619-1.881,7.431,7.431,0,0,1-3.829-2.314,2.648,2.648,0,0,1-.244-.3l-.009-.006c-2.55-3.475-3.515-16.786,5.215-20.563C585.751,195.227,591.373,203.556,591.2,210.312Z" transform="translate(-568.81 -191.282)"/></g><path class="ak" d="M574.311,216.5s-3.851,23.937-2.389,35.4l2.689,4.895,2.942-5.338s-2.816-19.995-1.266-34.555Z" transform="translate(-563.623 -176.009)"/><path class="al" d="M572.8,215.9l.039.315a6.3,6.3,0,0,0,.467,1.722h0l1.977.4L577,217.059l-1.975-2.3-.306.079a4.357,4.357,0,0,0-1.894,1.031Z" transform="translate(-562.617 -177.449)"/><path class="q" d="M581.991,212.388a6.263,6.263,0,0,1,1.892,1.947,24.819,24.819,0,0,0-2.424,1.268c-1.031.63-5.987,4.129-5.987,4.129l-1.456-2.991S579.19,213.172,581.991,212.388Z" transform="translate(-561.605 -179.426)"/><path class="q" d="M575.2,216.606a4.139,4.139,0,0,0-2.266,1.887s-.887-1.7.247-4.723a7.843,7.843,0,0,1,1.682-1.22Z" transform="translate(-562.784 -179.291)"/></g><g class="am" transform="translate(59.86 222.383)"><path class="d" d="M558.692,307.443c0,2.832,17.306,5.129,38.656,5.129S636,310.275,636,307.443s-17.306-5.129-38.655-5.129S558.692,304.611,558.692,307.443Z" transform="translate(-558.692 -302.314)"/></g><g transform="translate(69.757 218.413)"><path class="af" d="M570.082,302.5a8.626,8.626,0,0,0-.6,2.915c.086,1.158,3.772,1.244,4.2.645s.643-5.917.643-5.917" transform="translate(-559.62 -300.147)"/><path class="an" d="M579.131,305.171a24.605,24.605,0,0,1-.335,3.171h-4.248l-.209-.707a6.693,6.693,0,0,1-2.46.707h-3.585c-2.625,0-4.116-.333-4.182-.8-.277-1.931,2.858-1.843,3.675-1.843,2.345,0,4.882-1.1,5.437-2.288.4-.863.224-1.081.709-.92a1.211,1.211,0,0,1,.727.628,2.154,2.154,0,0,0,2.215,1.209,2.58,2.58,0,0,0,1.436-.692A1.547,1.547,0,0,1,579.131,305.171Z" transform="translate(-564.095 -298.234)"/></g><g transform="translate(115.041 214.228)"><path class="af" d="M592.368,300.4a34.753,34.753,0,0,0,1.293,4.153c.509,1.044,3.964-.242,4.14-.958s-1.594-5.732-1.594-5.732" transform="translate(-585.858 -297.862)"/><path class="an" d="M602.042,301.819c.447,1.121,1.108,3.294,1.108,3.294l-3.219,1.92-.632-.478a6.278,6.278,0,0,1-1.695,1.771,13.85,13.85,0,0,1-3.187,1.321c-2.942.672-5.215.346-5.448-.057-.973-1.691,2.927-2.621,3.684-2.922a5.258,5.258,0,0,0,3.25-4.29c.053-.951-.193-1.088.317-1.117a1.208,1.208,0,0,1,.909.315,2.153,2.153,0,0,0,2.506.3,2.566,2.566,0,0,0,1.077-1.174A1.55,1.55,0,0,1,602.042,301.819Z" transform="translate(-588.815 -295.499)"/></g><g transform="translate(76.734 110.05)"><path class="ah" d="M597.246,264.851s5.772-13.823-4.3-23.858c0,0-8.591,3.845-15.472,4.31a34.079,34.079,0,0,1-8.168-.2,175.58,175.58,0,0,0-.55,25.833Z" transform="translate(-567.357 -240.993)"/><path class="ah" d="M576.137,328.046c-.174.013-.348.013-.509.013a29.255,29.255,0,0,1-5.624-.385v-1.033c.2-15.824-1.717-41.686-2.09-49.86a9.184,9.184,0,0,1,.051-1.568c.621-5.983,6.8-5.2,9.4.3a22,22,0,0,1,1.469,4.23,38.742,38.742,0,0,1,.958,5.972C581,299.371,577.194,317.846,576.137,328.046Z" transform="translate(-567.903 -215.991)"/><path class="ah" d="M586.847,264.926c-.024.161-.062.337-.1.511-1.368,7.2-5.811,26.67-7.925,32.99v.013a3.805,3.805,0,0,1-2.724,1.991c-3.111.845-7.751-.311-8.148-6.52a14.869,14.869,0,0,1,.024-2.239c.41-5.04,1.519-32.88,1.742-35.568s.7-6.6,2.114-7.1C578.91,246.552,588.7,254.85,586.847,264.926Z" transform="translate(-567.889 -234.69)"/><path class="aj" d="M577.5,293.157c2.271-8.421,5.4-22.312,6.507-28.149l-1.506-6.681-7.24-8.683-4.043-.561s.66,13.125,5.386,23.551c0,0-.049,14.8-1.991,21.147l-1.74,4.876s.2.473.485,1.345a44.41,44.41,0,0,1,1.841,18.971c-1.444,11.2-2.327,27.356-2.327,27.356.161,0,.335,0,.509-.013,1.022-9.854,4.594-27.414,3.75-40.911a5.624,5.624,0,0,0-.092-1.422,34.742,34.742,0,0,1,.46-10.826Z" transform="translate(-565.146 -234.262)"/><path class="ah" d="M590.1,274.34c-4.792-4.508-11.458-2.374-8.344,4.622,3.328,7.48,13.624,28.248,19.205,43.051l.385.962a30.2,30.2,0,0,0,5.844-1.892c-2.656-9.608-4.589-26.168-10.108-37.709A31.213,31.213,0,0,0,590.1,274.34Z" transform="translate(-557.042 -215.223)"/><g transform="translate(6.021 8.936)"><path class="ah" d="M571.234,251.76c-.931-11.129,12.94-3.737,19.592-.062,2.8,1.546,3.825,4.64,4.2,7.553s3.973,32.9,4.7,38.376c1.627,12.334-9.147,5.589-10.165,2.171C586.987,291.17,571.74,257.826,571.234,251.76Z" transform="translate(-571.19 -245.871)"/></g><path class="ah" d="M588.412,269.95s.44,5.9,5.4,13.182c0,0-8.114-3.746-8.507-4.3a30.415,30.415,0,0,1-1.652-6.873C583.807,271.353,588.412,269.95,588.412,269.95Z" transform="translate(-554.814 -216.904)"/></g><path class="b" d="M541.483,207.088c6.212-3.8,8.007-7.443,8.007-7.443a13.654,13.654,0,0,0,.145-2.337c-.042-2.931-.932-7.824-6.04-9.709-7.531-2.762-12.391,2.337-17.581-6.681,0,0,.009.049.024.139C527.361,189.477,526.052,207.145,541.483,207.088Z" transform="translate(-526.015 -180.918)"/><path class="ao" d="M541.473,207.025c6.212-3.8,8.007-7.443,8.007-7.443a13.657,13.657,0,0,0,.145-2.337c-17.353,16.351-23.184-13.952-23.6-16.251C527.351,189.413,526.041,207.082,541.473,207.025Z" transform="translate(-526.004 -180.855)"/><path class="ap" d="M526.028,180.994A15.575,15.575,0,0,0,533.4,189.5c2.651,1.321,5.582,1.112,8.361,1.894a7.953,7.953,0,0,1,5.173,10.555" transform="translate(-526.004 -180.855)"/><path class="ap" d="M526.028,180.994s1.707,10.491,10.473,14.177c4.952,2.079,7.879,4.743,7.941,9.1" transform="translate(-526.004 -180.855)"/><g transform="translate(108.852 122.89)"><path class="q" d="M592.5,262.514a3.768,3.768,0,0,1-1.167-.256c-4.47-1.738-5.642-11.812-5.761-12.955l-.134-1.3,1.244.4c1.1.355,10.8,3.6,11.717,8.159.3,1.482-.31,2.883-1.8,4.164A5.842,5.842,0,0,1,592.5,262.514Zm-5.051-12.035c.52,3.367,1.927,9.187,4.5,10.189.986.381,2.171-.033,3.523-1.231,1.013-.868,1.42-1.7,1.249-2.537C596.191,254.258,590.679,251.686,587.447,250.479Z" transform="translate(-585.436 -248.002)"/></g><g transform="translate(15.233 18.68)"><rect class="aq" width="10.936" height="133.47" transform="translate(2.483 10.146) rotate(-41.533)"/><rect class="ar" width="10.936" height="3.813" transform="translate(0 7.251) rotate(-41.532)"/></g><rect class="l" width="10.936" height="133.47" transform="translate(17.715 28.826) rotate(-41.533)"/><rect class="as" width="10.936" height="3.813" transform="translate(15.233 25.931) rotate(-41.532)"/><path class="k" d="M628.349,296.4l-3.106,2.746-88.382-99.98-2.532-2.849,3.09-2.763,2.532,2.849Z" transform="translate(-519.098 -170.403)"/><rect class="q" width="10.936" height="2.134" transform="translate(104.752 127.181) rotate(-41.533)"/><g transform="translate(89.44 62.783)"><path class="af" d="M583.872,244.179,581,241.788s-1.084,1.409-1.625,1.579c-.145.046-.451-.073-.6-.073a5.086,5.086,0,0,0-2.323.72c-.678.31-1.57.592-1.6.863s.434.7.907.665a1.585,1.585,0,0,0,.233-.049,1.037,1.037,0,0,0,.055.286c.194.6,3.017,4.543,5.824.256A8.092,8.092,0,0,1,583.872,244.179Z" transform="translate(-574.839 -193.064)"/><path class="f" d="M581.484,228.328c1.279,3.933,2.64,10.149,5.212,15.415a3.447,3.447,0,0,0,.165.33c.013.027.027.042.04.07a4.538,4.538,0,0,0,.192.577,4.7,4.7,0,0,0,4.593,3.149c.137,0,.509.015.976.04a17.5,17.5,0,0,0,1.913,0c.8-.055,1.5-.205,1.731-.6a.013.013,0,0,0,.015-.013,2.385,2.385,0,0,0,.1-.4,1.1,1.1,0,0,0,.04-.22,1.273,1.273,0,0,0,.042-.234c.027-.22.04-.44.055-.659a2.836,2.836,0,0,0,.013-.33,22.462,22.462,0,0,0-.262-3.219c-.412-4.428-4.785-18.288-6.269-24.064a4,4,0,0,0-1.361-2.13,3.53,3.53,0,0,0-2.077-.826c-.015,0-.015,0-.027-.013a2.478,2.478,0,0,0-.33,0c-1.94.055-3.274,1.581-4.167,3.409a11.929,11.929,0,0,0-1.141,3.838A13.573,13.573,0,0,0,581.484,228.328Z" transform="translate(-569.862 -215.19)"/><path class="f" d="M577.549,252.779l2.422,2.187.013.013.632.551s4.91-4.263,8.733-7.866c3.534-3.356,7.137-7.095,9.377-11.577.11-.207.22-.441.317-.647v-.027a2.385,2.385,0,0,0,.1-.4,1.1,1.1,0,0,0,.04-.22,1.273,1.273,0,0,0,.042-.234c.027-.22.04-.44.055-.659a2.836,2.836,0,0,0,.013-.33,4.015,4.015,0,0,0-.894-2.585c-.055-.07-.123-.137-.178-.207a4.3,4.3,0,0,0-1.678-1,6.814,6.814,0,0,0-5.474.744c-.15.15-.315.315-.467.495-.33.357-.674.757-1.017,1.182a19.894,19.894,0,0,0-2.641,4.415C584.6,242.013,577.549,252.779,577.549,252.779Z" transform="translate(-572.584 -203.312)"/></g><path class="ah" d="M570.127,202.68s5.8-1.154,10.244,1.238a8.2,8.2,0,0,0,7.373.24l1.672-.784s-1.654-1.918-1.9-2.088a14.68,14.68,0,0,0-2.537-2.147c-.865-.363-4.49-1.533-4.953-1.608a9.963,9.963,0,0,0-2.907.005,7.342,7.342,0,0,0-2.27.766c-.586.282-2.264,1.339-2.264,1.339Z" transform="translate(-489.319 -167.185)"/><path class="af" d="M549.3,215.634s-4.169-3.633-4.384-6.181c-.236-2.814,1.742-4.166,3.043-2.614,2.05,2.442,1.682,6.439,1.682,6.439l.769.9Z" transform="translate(-510.31 -159.897)"/><path class="q" d="M578.871,266.845l.013.013.632.551s4.91-4.263,8.733-7.866c3.534-3.356,7.137-7.095,9.377-11.577.11-.207.22-.441.317-.647v-.027a2.385,2.385,0,0,0,.1-.4,1.1,1.1,0,0,0,.04-.22,1.273,1.273,0,0,0,.042-.234c.027-.22.04-.44.055-.659a2.836,2.836,0,0,0,.013-.33,22.462,22.462,0,0,0-.262-3.219c-.412-4.428-4.785-18.288-6.269-24.064a4,4,0,0,0-1.361-2.13,3.53,3.53,0,0,0-2.077-.826c-.015,0-.015,0-.027-.013a2.478,2.478,0,0,0-.33,0c.922,1.484,2.228,4.483,3.7,10.491,1.953,8.016,3.328,12.858,3.878,15.965a10.86,10.86,0,0,1,.247,3.341,10.348,10.348,0,0,1-1.4,2.914C590.916,253.492,582.362,264.453,578.871,266.845Z" transform="translate(-482.045 -152.407)"/><path class="ah" d="M578.993,219.1a22.518,22.518,0,0,1-.626-5s2.861-2.021,2.861-4.083c0-2.871-3.195,0-3.195,0a20.984,20.984,0,0,1-.815-4.039c-.258-3.222,5.155-5.587,5.155-5.587l2.838,2.063,1.368,2.678S586.7,216.361,578.993,219.1Z" transform="translate(-483.427 -164.724)"/></g><g transform="translate(652.943 349.001)"><path class="at" d="M.531,0H41.744a.528.528,0,0,1,.528.528V6.974a.528.528,0,0,1-.528.528H.531A.531.531,0,0,1,0,6.971V.531A.531.531,0,0,1,.531,0Z" transform="matrix(0.866, -0.499, 0.499, 0.866, 0, 21.101)"/><g class="au" transform="translate(2.852 1.338)"><g transform="translate(30.658)"><path class="av" d="M521.318,251.879a.162.162,0,0,1-.225-.059l-.773-1.343.286-.165.773,1.341A.164.164,0,0,1,521.318,251.879Z" transform="translate(-519.811 -250.313)"/><path class="av" d="M520.484,251.209a.082.082,0,0,1-.108-.029l-.333-.579.143-.082.333.579A.084.084,0,0,1,520.484,251.209Z" transform="translate(-520.042 -250.142)"/></g><g transform="translate(29.427 0.705)"><path class="av" d="M520.649,252.266a.165.165,0,0,1-.225-.06l-.773-1.343.286-.165.773,1.343A.163.163,0,0,1,520.649,252.266Z" transform="translate(-519.136 -250.698)"/><path class="av" d="M519.817,251.592a.083.083,0,0,1-.114-.026l-.333-.579.145-.082.332.577A.081.081,0,0,1,519.817,251.592Z" transform="translate(-519.37 -250.526)"/></g><g transform="translate(28.204 1.412)"><path class="av" d="M519.984,252.65a.171.171,0,0,1-.233-.059l-.771-1.341.291-.167.773,1.341A.169.169,0,0,1,519.984,252.65Z" transform="translate(-518.471 -251.084)"/><path class="av" d="M519.149,251.977a.083.083,0,0,1-.114-.026l-.333-.579.143-.082.333.579A.082.082,0,0,1,519.149,251.977Z" transform="translate(-518.702 -250.913)"/></g><g transform="translate(26.978 2.119)"><path class="av" d="M519.309,253.038a.165.165,0,0,1-.225-.06l-.773-1.343.286-.165.773,1.343A.165.165,0,0,1,519.309,253.038Z" transform="translate(-517.802 -251.47)"/><path class="av" d="M518.474,252.366a.08.08,0,0,1-.108-.029l-.333-.579.143-.082.333.579A.082.082,0,0,1,518.474,252.366Z" transform="translate(-518.033 -251.299)"/></g><g transform="translate(25.754 2.825)"><path class="av" d="M518.64,253.423a.165.165,0,0,1-.225-.06l-.773-1.343.288-.165.773,1.343A.164.164,0,0,1,518.64,253.423Z" transform="translate(-517.134 -251.855)"/><path class="av" d="M517.807,252.75a.082.082,0,0,1-.11-.029l-.332-.577.143-.082.332.577A.082.082,0,0,1,517.807,252.75Z" transform="translate(-517.365 -251.684)"/></g><g transform="translate(24.523 3.532)"><path class="av" d="M517.972,253.807a.164.164,0,0,1-.225-.06l-.773-1.341.286-.165.773,1.341A.165.165,0,0,1,517.972,253.807Z" transform="translate(-516.459 -252.241)"/><path class="av" d="M517.14,253.133a.081.081,0,0,1-.114-.026l-.333-.577.143-.082.333.577A.08.08,0,0,1,517.14,253.133Z" transform="translate(-516.693 -252.069)"/></g><g transform="translate(23.298 4.237)"><path class="av" d="M517.306,254.192a.17.17,0,0,1-.231-.057l-.773-1.341.291-.169.773,1.341A.167.167,0,0,1,517.306,254.192Z" transform="translate(-515.793 -252.626)"/><path class="av" d="M516.471,253.518a.081.081,0,0,1-.114-.026l-.333-.577.145-.082.332.577A.078.078,0,0,1,516.471,253.518Z" transform="translate(-516.024 -252.454)"/></g><g transform="translate(22.074 4.946)"><path class="av" d="M516.632,254.579a.163.163,0,0,1-.225-.06l-.773-1.341.286-.165.773,1.341A.165.165,0,0,1,516.632,254.579Z" transform="translate(-515.125 -253.013)"/><path class="av" d="M515.8,253.907a.078.078,0,0,1-.108-.029l-.333-.577.143-.082.333.577A.083.083,0,0,1,515.8,253.907Z" transform="translate(-515.356 -252.842)"/></g><g transform="translate(20.849 5.651)"><path class="av" d="M515.963,254.964a.163.163,0,0,1-.225-.06l-.773-1.341.286-.165.773,1.341A.163.163,0,0,1,515.963,254.964Z" transform="translate(-514.456 -253.398)"/><path class="av" d="M515.128,254.292a.079.079,0,0,1-.108-.029l-.333-.577.143-.082.333.577A.082.082,0,0,1,515.128,254.292Z" transform="translate(-514.687 -253.227)"/></g><g transform="translate(19.619 6.357)"><path class="av" d="M515.294,255.351a.164.164,0,0,1-.225-.062l-.773-1.341.288-.165.773,1.341A.166.166,0,0,1,515.294,255.351Z" transform="translate(-513.783 -253.783)"/><path class="av" d="M514.463,254.677a.084.084,0,0,1-.115-.027l-.332-.577.143-.082.333.577A.084.084,0,0,1,514.463,254.677Z" transform="translate(-514.016 -253.611)"/></g><g transform="translate(18.394 7.062)"><path class="av" d="M514.629,255.736a.169.169,0,0,1-.231-.059l-.773-1.341.291-.169.773,1.343A.169.169,0,0,1,514.629,255.736Z" transform="translate(-513.116 -254.168)"/><path class="av" d="M513.794,255.062a.083.083,0,0,1-.114-.026l-.333-.579.143-.082.333.579A.08.08,0,0,1,513.794,255.062Z" transform="translate(-513.347 -253.996)"/></g><g transform="translate(17.168 7.771)"><path class="av" d="M513.954,256.123a.165.165,0,0,1-.225-.06l-.773-1.343.288-.165.771,1.341A.165.165,0,0,1,513.954,256.123Z" transform="translate(-512.447 -254.555)"/><path class="av" d="M513.12,255.451a.082.082,0,0,1-.108-.029l-.333-.579.145-.082.332.579A.081.081,0,0,1,513.12,255.451Z" transform="translate(-512.678 -254.384)"/></g><g transform="translate(15.945 8.476)"><path class="av" d="M513.286,256.508a.167.167,0,0,1-.227-.06l-.771-1.343.286-.165.773,1.343A.165.165,0,0,1,513.286,256.508Z" transform="translate(-511.779 -254.94)"/><path class="av" d="M512.451,255.836a.08.08,0,0,1-.108-.029l-.333-.579.143-.082.333.579A.084.084,0,0,1,512.451,255.836Z" transform="translate(-512.01 -254.769)"/></g><g transform="translate(14.714 9.183)"><path class="av" d="M512.617,256.892a.165.165,0,0,1-.225-.06l-.773-1.343.286-.163.773,1.341A.165.165,0,0,1,512.617,256.892Z" transform="translate(-511.104 -255.326)"/><path class="av" d="M511.785,256.219a.083.083,0,0,1-.114-.026l-.333-.579.143-.082.333.579A.081.081,0,0,1,511.785,256.219Z" transform="translate(-511.338 -255.155)"/></g><g transform="translate(13.49 9.888)"><path class="av" d="M511.95,257.277a.17.17,0,0,1-.231-.057l-.771-1.343.291-.167.773,1.341A.168.168,0,0,1,511.95,257.277Z" transform="translate(-510.439 -255.711)"/><path class="av" d="M511.117,256.6a.083.083,0,0,1-.115-.026L510.67,256l.143-.082.333.579A.082.082,0,0,1,511.117,256.6Z" transform="translate(-510.67 -255.54)"/></g><g transform="translate(12.264 10.596)"><path class="av" d="M511.277,257.665a.165.165,0,0,1-.225-.06l-.773-1.341.286-.167.773,1.343A.165.165,0,0,1,511.277,257.665Z" transform="translate(-509.77 -256.097)"/><path class="av" d="M510.442,256.992a.08.08,0,0,1-.108-.029l-.333-.577.143-.082.333.577A.082.082,0,0,1,510.442,256.992Z" transform="translate(-510.001 -255.926)"/></g><g transform="translate(11.039 11.303)"><path class="av" d="M510.608,258.049a.163.163,0,0,1-.225-.06l-.773-1.341.288-.165.771,1.341A.163.163,0,0,1,510.608,258.049Z" transform="translate(-509.101 -256.483)"/><path class="av" d="M509.775,257.377a.081.081,0,0,1-.11-.029l-.333-.577.145-.082.332.577A.082.082,0,0,1,509.775,257.377Z" transform="translate(-509.332 -256.312)"/></g><g transform="translate(9.81 12.008)"><path class="av" d="M509.94,258.434a.163.163,0,0,1-.225-.06l-.773-1.341.286-.165.773,1.341A.164.164,0,0,1,509.94,258.434Z" transform="translate(-508.427 -256.868)"/><path class="av" d="M509.108,257.76a.081.081,0,0,1-.114-.026l-.333-.577.143-.082.333.577A.08.08,0,0,1,509.108,257.76Z" transform="translate(-508.661 -256.696)"/></g><g transform="translate(8.584 12.713)"><path class="av" d="M509.274,258.821a.171.171,0,0,1-.231-.059l-.773-1.341.291-.169.773,1.341A.17.17,0,0,1,509.274,258.821Z" transform="translate(-507.761 -257.253)"/><path class="av" d="M508.439,258.147a.082.082,0,0,1-.114-.027l-.333-.577.143-.082.333.577A.082.082,0,0,1,508.439,258.147Z" transform="translate(-507.992 -257.081)"/></g><g transform="translate(7.361 13.422)"><path class="av" d="M508.6,259.206a.165.165,0,0,1-.227-.06L507.6,257.8l.286-.165.773,1.341A.165.165,0,0,1,508.6,259.206Z" transform="translate(-507.093 -257.64)"/><path class="av" d="M507.765,258.534a.082.082,0,0,1-.11-.028l-.332-.579.143-.082.333.577A.084.084,0,0,1,507.765,258.534Z" transform="translate(-507.324 -257.469)"/></g><g transform="translate(6.135 14.127)"><path class="av" d="M507.931,259.591a.162.162,0,0,1-.225-.06l-.773-1.341.286-.165.773,1.341A.165.165,0,0,1,507.931,259.591Z" transform="translate(-506.424 -258.025)"/><path class="av" d="M507.1,258.921a.082.082,0,0,1-.108-.029l-.333-.579.143-.082.333.579A.083.083,0,0,1,507.1,258.921Z" transform="translate(-506.655 -257.854)"/></g><g transform="translate(4.906 14.833)"><path class="av" d="M507.262,259.978a.165.165,0,0,1-.225-.06l-.773-1.343.288-.165.773,1.343A.165.165,0,0,1,507.262,259.978Z" transform="translate(-505.751 -258.41)"/><path class="av" d="M506.429,259.3a.083.083,0,0,1-.114-.026l-.332-.579.143-.082.332.579A.079.079,0,0,1,506.429,259.3Z" transform="translate(-505.984 -258.238)"/></g><g transform="translate(3.68 15.538)"><path class="av" d="M506.6,260.363a.169.169,0,0,1-.231-.059l-.773-1.341.291-.168.773,1.343A.169.169,0,0,1,506.6,260.363Z" transform="translate(-505.084 -258.795)"/><path class="av" d="M505.762,259.689a.083.083,0,0,1-.114-.026l-.333-.579.143-.082.333.579A.081.081,0,0,1,505.762,259.689Z" transform="translate(-505.315 -258.623)"/></g><g transform="translate(2.455 16.247)"><path class="av" d="M505.922,260.75a.165.165,0,0,1-.225-.06l-.773-1.343.286-.165.773,1.343A.163.163,0,0,1,505.922,260.75Z" transform="translate(-504.415 -259.182)"/><path class="av" d="M505.087,260.078a.082.082,0,0,1-.108-.029l-.333-.579.143-.082.333.579A.081.081,0,0,1,505.087,260.078Z" transform="translate(-504.646 -259.011)"/></g><g transform="translate(1.231 16.952)"><path class="av" d="M505.254,261.135a.167.167,0,0,1-.227-.06l-.771-1.343.286-.165.773,1.343A.165.165,0,0,1,505.254,261.135Z" transform="translate(-503.747 -259.567)"/><path class="av" d="M504.419,260.462a.082.082,0,0,1-.11-.029l-.332-.577.143-.082.333.577A.084.084,0,0,1,504.419,260.462Z" transform="translate(-503.978 -259.396)"/></g><g transform="translate(0 17.659)"><path class="av" d="M504.585,261.519a.165.165,0,0,1-.225-.06l-.773-1.341.286-.165.773,1.341A.165.165,0,0,1,504.585,261.519Z" transform="translate(-503.072 -259.953)"/><path class="av" d="M503.753,260.846a.081.081,0,0,1-.114-.026l-.333-.579.143-.082.333.579A.08.08,0,0,1,503.753,260.846Z" transform="translate(-503.306 -259.782)"/></g></g></g><g transform="translate(684.235 559.471)"><path class="d" d="M587.189,369.617c0,2.839-15.3,5.142-34.181,5.142s-34.177-2.3-34.177-5.142,15.3-5.142,34.177-5.142S587.189,366.778,587.189,369.617Z" transform="translate(-518.831 -364.475)"/></g><g transform="translate(717.233 553.702)"><path class="af" d="M542.31,361.326s.115,4.7.2,5.9,3.907,1.288,4.351.665.667-6.128.667-6.128" transform="translate(-532.297 -361.326)"/><path class="an" d="M552.42,366.769a25.456,25.456,0,0,1-.348,3.286h-4.4l-.216-.735a6.919,6.919,0,0,1-2.548.735h-3.713c-2.719,0-4.263-.346-4.332-.824-.288-2,2.962-1.909,3.807-1.909,2.429,0,5.058-1.138,5.631-2.37.416-.894.233-1.119.735-.953a1.258,1.258,0,0,1,.755.65,2.23,2.23,0,0,0,2.293,1.253,2.659,2.659,0,0,0,1.488-.718A1.6,1.6,0,0,1,552.42,366.769Z" transform="translate(-536.844 -359.145)"/></g><g transform="translate(705.059 549.806)"><path class="af" d="M533.879,361.828a36.083,36.083,0,0,0,1.341,4.3c.527,1.081,4.107-.251,4.288-.993s-1.651-5.937-1.651-5.937" transform="translate(-527.137 -359.199)"/><path class="an" d="M543.9,363.3c.464,1.16,1.149,3.411,1.149,3.411l-3.336,1.988-.654-.493a6.481,6.481,0,0,1-1.755,1.834,14.375,14.375,0,0,1-3.3,1.368c-3.048.7-5.4.359-5.644-.06-1.006-1.751,3.032-2.713,3.818-3.026a5.445,5.445,0,0,0,3.365-4.442c.055-.986-.2-1.128.328-1.158a1.259,1.259,0,0,1,.942.324,2.229,2.229,0,0,0,2.6.313,2.661,2.661,0,0,0,1.116-1.216A1.606,1.606,0,0,1,543.9,363.3Z" transform="translate(-530.199 -356.752)"/></g><path class="aw" d="M546.706,327.677c1.581-1.167,3.3-2.479,4.943-3.845,3.731-3.134,7.066-6.538,7.478-9.017.912-5.556.2-22.063-.242-29.854-.015-.471-.042-.912-.072-1.326-.442-7.364-4.4-10.625-6.38-11.821-1.011,9.572-3.29,31.179-3.475,32.291C548.714,305.528,546.706,327.677,546.706,327.677Z" transform="translate(188.593 117.913)"/><path class="av" d="M546.7,322.723c1.581-1.167,3.3-2.479,4.942-3.845.141-6.087,1.953-14.587,4.5-25.227,3.026-13.413,1.123-15.881,1.123-15.881l-6.082.925c-1.011,9.473-2.109,19.7-2.237,20.455C548.712,300.573,546.7,322.723,546.7,322.723Z" transform="translate(188.591 122.867)"/><path class="ah" d="M538.953,353.278a146.871,146.871,0,0,0,1.889,18.711c.81,4.151,13.856,4.913,12.178,1.715-2.42-4.644,1.8-19.207,3.876-44.037.3-3.757,1.989-4.19,3.11-11.918s-3.149-14.454-3.149-14.454l-18.106-1.682-.233,22.55-.07,7.626S538.407,342.251,538.953,353.278Z" transform="translate(181.723 142.702)"/><path class="ah" d="M550.532,342.381s3.541,4.338,3.048,12.3-3.264,31.71-3.264,31.71-4.155.614-6.3-.178c0,0-4.479-44.051-4.5-49.052S550.532,342.381,550.532,342.381Z" transform="translate(182.616 171.124)"/><path class="aj" d="M538.953,350.11a140.276,140.276,0,0,1,5.259-14.637,28.207,28.207,0,0,1,5.133-7.949c9.187-9.639,2.869-22.1,2.869-22.1s-7.48,6.2-8,6.838c-.495.6-3.486,5.862-5.693,8.736l-.07,7.626S538.407,339.084,538.953,350.11Z" transform="translate(181.723 145.87)"/><path class="ah" d="M528.608,328.2s-4.105,13.51-3.455,17.744,15.664,43.852,15.664,43.852a15.138,15.138,0,0,0,6.021-1.491s-.322-17.44-3.268-28.352-6.364-17.592-9.3-18.568S529.421,330.466,528.608,328.2Z" transform="translate(170.605 164.816)"/><path class="ak" d="M538.462,332.576s-4.453,7.091-1.713,13.455-4.589,5.305-4.589,5.305-3.666-10.669-2.85-12.052,3.827-6.027,4.805-6.271A42.22,42.22,0,0,1,538.462,332.576Z" transform="translate(174.023 168.459)"/><path class="ah" d="M536.706,302.12s-9.524,44.1-10.768,55.979c-.528,5.038,4.766,13.36,9.654,8.8,5.831-5.437,15.276-30.332,18.207-34.731s13.9-8.429,6.41-30.741" transform="translate(171.286 142.551)"/><path class="af" d="M553.893,282.526s-1.3-4.413-.733-7.67,2.524-9.123,1.792-13.519-6.271-8.062-12.134-7.492-7.573,6.19-8.551,9.447-.813,8.225-.57,10.913,1.711,4.8,2.687,5.375,4.655-.181,5.3.52,1.134,4.854,1.134,4.854" transform="translate(177.615 102.915)"/><path class="aw" d="M554.478,273.327s-.326-2.574-1.3-3.486-7.493-.912-9.445-.667a29.98,29.98,0,0,0-7.412,2.966c-.637.474.619,2.947.619,2.947Z" transform="translate(179.8 115.601)"/><path class="af" d="M508.99,258.321c.046-.462.643-.242.8.139a2.675,2.675,0,0,1,.086.33c-.059-.762-.1-1.383-.082-1.535.044-.438.6-.278.786.064-.013-.306-.02-.537-.011-.636.046-.562.648-.333.8.13a6.954,6.954,0,0,1,.141.779,3.573,3.573,0,0,1-.007-.427c.048-.463.579-.348.735.033a5.738,5.738,0,0,1,.167.9c.073.463.209.96.273,1.425a9.6,9.6,0,0,0,.3,1.321,5.781,5.781,0,0,0,2.14,1.652l1.269-.689a16.64,16.64,0,0,1,.306,2.946c-.084.683-.584,1.539-.526,1.951a9.954,9.954,0,0,0,.526,1.51l-3.5,1.454a8.892,8.892,0,0,0-.94-2.579,28.153,28.153,0,0,1-2.392-2.878,15.183,15.183,0,0,1-.528-1.737l-.247-1.306-.112-1.273S508.974,258.473,508.99,258.321Z" transform="translate(157.201 105.05)"/><path class="aw" d="M510.939,263.773s1.182,6.851,2.35,12.334a53.316,53.316,0,0,0,4.089,12.634c.013.029.013.071.027.1,1.154,2.506,3.3,5.569,4.772,5.882a44.348,44.348,0,0,0,6.609-.029c3.189.185,11.209-.868,18.031-1.781.115-.013.214-.027.313-.042,3.177-.427,6.084-.812,8.077-1.026a4.174,4.174,0,0,0,2.464-1.1,3.748,3.748,0,0,0,1.2-2.066c.015-.015.015-.015.015-.029.456-2.207-1-3.973-2.876-5.268a2.784,2.784,0,0,0-.271-.172c2.321-2.306,4.7-4.829,4.7-4.829s-6.553.315-10.213.557c-2.493.17-19.5,4.713-21.537,5.355-.156.057-.3.115-.442.158a6.364,6.364,0,0,0-.641.114c-.114.029-.256.086-.4.128a21,21,0,0,0-2.478-4.658c-3.647-5.127-9.572-17.548-9.572-17.548l-3.3.984-.044.013-.013.015Z" transform="translate(158.839 110.157)"/><path class="ah" d="M553.023,278.573s-8.145.692-9.691,0-3.788-2.2-3.992-4.966.366-3.625-.692-5.171-1.995-1.019-2.158.447-.227,4.114-.61,4.309c-.519.262-1.136-1.6-.936-4.431a17.493,17.493,0,0,1,1.18-5.985c.733-1.629,1.13-1.537,1.792-1.832-.713-.346-1.482-.387-2.891-2.587-1.63-2.544-.733-6.511,3.583-6.494,7.54.029,15.554,1.506,15.718,7.086,0,0,2.647-.408,2.728,4.682s-3.177,11.239-3.42,12.827S553.836,278.206,553.023,278.573Z" transform="translate(178.242 101.315)"/><path class="aw" d="M533.623,322.674c-.3,2.548-2.535,6.494-1.011,7.049a29.046,29.046,0,0,0,6.153-.185h.086c.057,0,.1-.013.141-.013,2.708-.229,5.8-.528,8.39-.727,10.356-.441,15.641,1.623,16.679,1.041.5-.3.513-1.2.357-2.123a24.1,24.1,0,0,1-.172-6.866c.257-1.922.614-4.215,1.112-6.837,1.709-9.073,5.056-22.931,5.554-31.265.8-13.061-13.19-11.821-13.19-11.821-17.8-1.112-26.165,4.015-27.134,11.665-.071.54-.114,1.125-.157,1.737-.454,7.892,1.953,20.625,3.092,30.14A47.845,47.845,0,0,1,533.623,322.674Z" transform="translate(175.007 117.049)"/><path class="av" d="M533.624,317.023c-.3,2.548-2.535,6.494-1.011,7.049a29.046,29.046,0,0,0,6.153-.185c-2.75.2-3.263-1.909-2.649-3.318a20.158,20.158,0,0,0,1.766-8.432c-.128-3.79-1.553-12.336-2.392-20.411a65.587,65.587,0,0,1-.015-14.159c-.427.854-1.652,2.05-5.1,2.849-.071,7.934,2.094,19.555,3.149,28.4A47.839,47.839,0,0,1,533.624,317.023Z" transform="translate(175.006 122.699)"/><g transform="translate(419.801 227.946)"><path class="at" d="M444.326,230.893,464.187,183.5l-14.756,2.986-.233.038-29.5,5.972-.5.092-29.726,6.018-.5.092-14.49,2.935Zm4.964-35.3-9.414,22.474-33.417-14Z" transform="translate(-374.48 -183.5)"/><g transform="translate(8.075 1.634)"><g class="am" transform="translate(0 14.657)"><g transform="translate(0 0.141)"><path class="ax" d="M378.888,192.534l.321-.064.434,2.149a.163.163,0,1,1-.319.066Z" transform="translate(-378.888 -192.47)"/></g><g transform="translate(0.782)"><path class="ax" d="M379.315,192.441l.231-.048.214,1.057a.118.118,0,0,1-.231.048Z" transform="translate(-379.315 -192.393)"/></g></g><g class="am" transform="translate(1.511 14.351)"><g transform="translate(0 0.141)"><path class="ax" d="M379.713,192.367l.319-.064.436,2.149a.164.164,0,1,1-.321.066Z" transform="translate(-379.713 -192.303)"/></g><g transform="translate(0.78)"><path class="ax" d="M380.139,192.274l.233-.048.212,1.057a.118.118,0,1,1-.231.048Z" transform="translate(-380.139 -192.226)"/></g></g><g class="am" transform="translate(3.021 14.045)"><g transform="translate(0 0.141)"><path class="ax" d="M380.537,192.2l.321-.064.434,2.151a.163.163,0,1,1-.319.064Z" transform="translate(-380.537 -192.136)"/></g><g transform="translate(0.782)"><path class="ax" d="M380.964,192.107l.231-.048.214,1.057a.118.118,0,0,1-.231.048Z" transform="translate(-380.964 -192.059)"/></g></g><g class="am" transform="translate(4.532 13.739)"><g transform="translate(0 0.141)"><path class="ax" d="M381.362,192.033l.319-.064.436,2.151a.168.168,0,0,1-.126.2.171.171,0,0,1-.194-.136Z" transform="translate(-381.362 -191.969)"/></g><g transform="translate(0.79)"><path class="ax" d="M381.793,191.938l.222-.046.214,1.059a.118.118,0,0,1-.092.137.112.112,0,0,1-.13-.093Z" transform="translate(-381.793 -191.892)"/></g></g><g class="am" transform="translate(6.042 13.435)"><g transform="translate(0 0.137)"><path class="ax" d="M382.186,191.867l.328-.066.436,2.151a.179.179,0,0,1-.134.2.17.17,0,0,1-.194-.137Z" transform="translate(-382.186 -191.801)"/></g><g transform="translate(0.791)"><path class="ax" d="M382.618,191.77l.222-.044.214,1.057a.118.118,0,0,1-.093.137.112.112,0,0,1-.13-.093Z" transform="translate(-382.618 -191.726)"/></g></g><g class="am" transform="translate(7.553 13.138)"><g transform="translate(0 0.137)"><path class="ax" d="M383.011,191.707l.33-.068.434,2.141a.175.175,0,0,1-.136.2.17.17,0,0,1-.194-.137Z" transform="translate(-383.011 -191.639)"/></g><g transform="translate(0.791)"><path class="ax" d="M383.443,191.608l.222-.044.212,1.048a.112.112,0,0,1-.082.137.123.123,0,0,1-.139-.093Z" transform="translate(-383.443 -191.564)"/></g></g><g class="am" transform="translate(9.064 12.832)"><g transform="translate(0 0.137)"><path class="ax" d="M383.836,191.538l.328-.066.434,2.142a.17.17,0,0,1-.126.2.173.173,0,0,1-.2-.136Z" transform="translate(-383.836 -191.472)"/></g><g transform="translate(0.79)"><path class="ax" d="M384.267,191.441l.224-.044.213,1.048a.115.115,0,0,1-.084.137.121.121,0,0,1-.139-.093Z" transform="translate(-384.267 -191.397)"/></g></g><g class="am" transform="translate(10.574 12.525)"><g transform="translate(0 0.139)"><path class="ax" d="M384.66,191.373l.33-.068.432,2.142a.17.17,0,0,1-.125.2.178.178,0,0,1-.2-.134Z" transform="translate(-384.66 -191.305)"/></g><g transform="translate(0.791)"><path class="ax" d="M385.092,191.275l.231-.046.213,1.048a.12.12,0,0,1-.092.139.121.121,0,0,1-.139-.092Z" transform="translate(-385.092 -191.229)"/></g></g><g class="am" transform="translate(12.094 12.219)"><g transform="translate(0 0.141)"><path class="ax" d="M385.49,191.2l.319-.064.434,2.14a.164.164,0,1,1-.321.064Z" transform="translate(-385.49 -191.139)"/></g><g transform="translate(0.78)"><path class="ax" d="M385.916,191.108l.233-.046.211,1.048a.118.118,0,1,1-.231.048Z" transform="translate(-385.916 -191.062)"/></g></g><g class="am" transform="translate(13.604 11.913)"><g transform="translate(0 0.141)"><path class="ax" d="M386.314,191.036l.321-.064.432,2.14a.163.163,0,1,1-.319.066Z" transform="translate(-386.314 -190.972)"/></g><g transform="translate(0.782)"><path class="ax" d="M386.741,190.943l.231-.048.212,1.048a.121.121,0,0,1-.092.139.12.12,0,0,1-.139-.092Z" transform="translate(-386.741 -190.895)"/></g></g><g class="am" transform="translate(15.115 11.607)"><g transform="translate(0 0.141)"><path class="ax" d="M387.139,190.869l.319-.064.434,2.14a.169.169,0,0,1-.126.2.171.171,0,0,1-.194-.136Z" transform="translate(-387.139 -190.805)"/></g><g transform="translate(0.78)"><path class="ax" d="M387.565,190.776l.231-.048.213,1.048a.118.118,0,0,1-.231.048Z" transform="translate(-387.565 -190.728)"/></g></g><g class="am" transform="translate(16.624 11.301)"><g transform="translate(0 0.141)"><path class="ax" d="M387.963,190.7l.321-.064.432,2.141a.163.163,0,1,1-.319.064Z" transform="translate(-387.963 -190.638)"/></g><g transform="translate(0.782)"><path class="ax" d="M388.39,190.609l.231-.048.212,1.048a.121.121,0,0,1-.093.139.117.117,0,0,1-.137-.092Z" transform="translate(-388.39 -190.561)"/></g></g><g class="am" transform="translate(18.134 10.995)"><g transform="translate(0 0.141)"><path class="ax" d="M388.787,190.535l.321-.064.434,2.141a.164.164,0,1,1-.321.064Z" transform="translate(-388.787 -190.471)"/></g><g transform="translate(0.791)"><path class="ax" d="M389.219,190.44l.222-.046.213,1.05a.118.118,0,0,1-.092.137.112.112,0,0,1-.13-.093Z" transform="translate(-389.219 -190.394)"/></g></g><g class="am" transform="translate(19.645 10.689)"><g transform="translate(0 0.139)"><path class="ax" d="M389.612,190.369l.328-.066.434,2.141a.179.179,0,0,1-.136.2.172.172,0,0,1-.194-.137Z" transform="translate(-389.612 -190.303)"/></g><g transform="translate(0.79)"><path class="ax" d="M390.043,190.273l.224-.046.212,1.05a.123.123,0,0,1-.093.139.115.115,0,0,1-.13-.1Z" transform="translate(-390.043 -190.227)"/></g></g><g class="am" transform="translate(21.155 10.383)"><g transform="translate(0 0.139)"><path class="ax" d="M390.436,190.2l.33-.066.432,2.141a.179.179,0,0,1-.134.2.17.17,0,0,1-.194-.137Z" transform="translate(-390.436 -190.136)"/></g><g transform="translate(0.791)"><path class="ax" d="M390.868,190.106l.222-.046.212,1.05a.112.112,0,0,1-.082.137.121.121,0,0,1-.139-.093Z" transform="translate(-390.868 -190.06)"/></g></g><g class="am" transform="translate(22.666 10.079)"><g transform="translate(0 0.137)"><path class="ax" d="M391.261,190.037l.328-.068.434,2.141a.171.171,0,0,1-.126.2.173.173,0,0,1-.2-.136Z" transform="translate(-391.261 -189.969)"/></g><g transform="translate(0.79)"><path class="ax" d="M391.692,189.938l.224-.044.211,1.048a.112.112,0,0,1-.082.137.121.121,0,0,1-.139-.093Z" transform="translate(-391.692 -189.894)"/></g></g><g class="am" transform="translate(24.175 9.771)"><g transform="translate(0 0.139)"><path class="ax" d="M392.085,189.87l.33-.068.432,2.141a.17.17,0,0,1-.125.2.178.178,0,0,1-.2-.136Z" transform="translate(-392.085 -189.802)"/></g><g transform="translate(0.791)"><path class="ax" d="M392.517,189.772l.231-.046.213,1.048a.121.121,0,0,1-.093.139.119.119,0,0,1-.137-.092Z" transform="translate(-392.517 -189.726)"/></g></g><g class="am" transform="translate(25.696 9.465)"><g transform="translate(0 0.141)"><path class="ax" d="M392.915,189.7l.319-.064.434,2.14a.164.164,0,1,1-.321.066Z" transform="translate(-392.915 -189.636)"/></g><g transform="translate(0.78)"><path class="ax" d="M393.341,189.6l.231-.046.213,1.048a.118.118,0,0,1-.231.048Z" transform="translate(-393.341 -189.559)"/></g></g><g class="am" transform="translate(27.205 9.159)"><g transform="translate(0 0.141)"><path class="ax" d="M393.739,189.533l.321-.064.432,2.14a.17.17,0,0,1-.126.2.168.168,0,0,1-.192-.136Z" transform="translate(-393.739 -189.469)"/></g><g transform="translate(0.782)"><path class="ax" d="M394.166,189.438l.231-.046.213,1.048a.121.121,0,0,1-.093.139.117.117,0,0,1-.137-.092Z" transform="translate(-394.166 -189.392)"/></g></g><g class="am" transform="translate(28.715 8.854)"><g transform="translate(0 0.141)"><path class="ax" d="M394.563,189.366l.321-.064.434,2.14a.173.173,0,0,1-.126.2.17.17,0,0,1-.194-.136Z" transform="translate(-394.563 -189.302)"/></g><g transform="translate(0.782)"><path class="ax" d="M394.99,189.273l.231-.048.213,1.048a.118.118,0,0,1-.231.048Z" transform="translate(-394.99 -189.225)"/></g></g><g class="am" transform="translate(30.226 8.548)"><g transform="translate(0 0.141)"><path class="ax" d="M395.388,189.2l.319-.064.434,2.141a.168.168,0,0,1-.126.2.171.171,0,0,1-.194-.136Z" transform="translate(-395.388 -189.135)"/></g><g transform="translate(0.782)"><path class="ax" d="M395.815,189.106l.231-.048.212,1.05a.122.122,0,0,1-.093.137.12.12,0,0,1-.139-.092Z" transform="translate(-395.815 -189.058)"/></g></g><g class="am" transform="translate(31.736 8.242)"><g transform="translate(0 0.141)"><path class="ax" d="M396.212,189.032l.321-.064.432,2.141a.163.163,0,1,1-.319.064Z" transform="translate(-396.212 -188.968)"/></g><g transform="translate(0.791)"><path class="ax" d="M396.644,188.937l.222-.046.213,1.05a.117.117,0,0,1-.092.137.112.112,0,0,1-.13-.093Z" transform="translate(-396.644 -188.891)"/></g></g><g class="am" transform="translate(33.247 7.936)"><g transform="translate(0 0.139)"><path class="ax" d="M397.037,188.866l.328-.066.434,2.141a.179.179,0,0,1-.136.2.172.172,0,0,1-.194-.137Z" transform="translate(-397.037 -188.8)"/></g><g transform="translate(0.79)"><path class="ax" d="M397.468,188.77l.224-.046.211,1.05a.117.117,0,0,1-.092.137.112.112,0,0,1-.13-.093Z" transform="translate(-397.468 -188.724)"/></g></g><g class="am" transform="translate(34.756 7.632)"><g transform="translate(0 0.137)"><path class="ax" d="M397.861,188.7l.33-.066.432,2.141a.179.179,0,0,1-.134.2.171.171,0,0,1-.194-.137Z" transform="translate(-397.861 -188.633)"/></g><g transform="translate(0.791)"><path class="ax" d="M398.293,188.6l.222-.044.213,1.048a.113.113,0,0,1-.084.137.119.119,0,0,1-.137-.093Z" transform="translate(-398.293 -188.558)"/></g></g><g class="am" transform="translate(36.268 7.326)"><g transform="translate(0 0.137)"><path class="ax" d="M398.686,188.532l.328-.066.434,2.141a.168.168,0,1,1-.33.066Z" transform="translate(-398.686 -188.466)"/></g><g transform="translate(0.79)"><path class="ax" d="M399.117,188.435l.222-.044.212,1.048a.112.112,0,0,1-.082.137.121.121,0,0,1-.139-.093Z" transform="translate(-399.117 -188.391)"/></g></g><g class="am" transform="translate(37.779 7.027)"><g transform="translate(0 0.139)"><path class="ax" d="M399.511,188.372l.33-.068.43,2.132a.17.17,0,0,1-.126.2.176.176,0,0,1-.2-.136Z" transform="translate(-399.511 -188.304)"/></g><g transform="translate(0.791)"><path class="ax" d="M399.943,188.274l.231-.046.211,1.039a.123.123,0,0,1-.093.139.117.117,0,0,1-.137-.093Z" transform="translate(-399.943 -188.228)"/></g></g><g class="am" transform="translate(39.298 6.721)"><g transform="translate(0 0.139)"><path class="ax" d="M400.34,188.2l.321-.066.432,2.132a.173.173,0,0,1-.126.2.17.17,0,0,1-.194-.136Z" transform="translate(-400.34 -188.137)"/></g><g transform="translate(0.782)"><path class="ax" d="M400.767,188.107l.231-.046.211,1.039a.118.118,0,0,1-.231.048Z" transform="translate(-400.767 -188.061)"/></g></g><g class="am" transform="translate(40.809 6.415)"><g transform="translate(0 0.139)"><path class="ax" d="M401.165,188.036l.319-.066.432,2.132a.164.164,0,1,1-.321.066Z" transform="translate(-401.165 -187.97)"/></g><g transform="translate(0.782)"><path class="ax" d="M401.592,187.94l.231-.046.211,1.039a.123.123,0,0,1-.093.139.12.12,0,0,1-.139-.092Z" transform="translate(-401.592 -187.894)"/></g></g><g class="am" transform="translate(42.318 6.109)"><g transform="translate(0 0.141)"><path class="ax" d="M401.989,187.868l.321-.064.43,2.13a.163.163,0,1,1-.319.066Z" transform="translate(-401.989 -187.804)"/></g><g transform="translate(0.782)"><path class="ax" d="M402.416,187.773l.231-.046.211,1.039a.118.118,0,0,1-.231.048Z" transform="translate(-402.416 -187.727)"/></g></g><g class="am" transform="translate(43.83 5.803)"><g transform="translate(0 0.141)"><path class="ax" d="M402.814,187.7l.319-.064.432,2.132a.169.169,0,0,1-.126.2.171.171,0,0,1-.194-.136Z" transform="translate(-402.814 -187.637)"/></g><g transform="translate(0.78)"><path class="ax" d="M403.24,187.608l.233-.048.209,1.039a.118.118,0,1,1-.231.048Z" transform="translate(-403.24 -187.56)"/></g></g><g class="am" transform="translate(45.339 5.497)"><g transform="translate(0 0.141)"><path class="ax" d="M403.638,187.534l.321-.064.431,2.132a.168.168,0,0,1-.125.2.17.17,0,0,1-.194-.136Z" transform="translate(-403.638 -187.47)"/></g><g transform="translate(0.791)"><path class="ax" d="M404.07,187.439l.222-.046.211,1.04a.119.119,0,0,1-.092.137.112.112,0,0,1-.13-.093Z" transform="translate(-404.07 -187.393)"/></g></g><g class="am" transform="translate(46.85 5.192)"><g transform="translate(0 0.139)"><path class="ax" d="M404.463,187.368l.328-.066.432,2.132a.181.181,0,0,1-.136.2.172.172,0,0,1-.194-.137Z" transform="translate(-404.463 -187.302)"/></g><g transform="translate(0.79)"><path class="ax" d="M404.894,187.272l.222-.046.211,1.041a.117.117,0,0,1-.092.137.112.112,0,0,1-.13-.093Z" transform="translate(-404.894 -187.226)"/></g></g><g class="am" transform="translate(48.36 4.886)"><g transform="translate(0 0.139)"><path class="ax" d="M405.287,187.2l.328-.066.432,2.132a.179.179,0,0,1-.134.2.17.17,0,0,1-.194-.137Z" transform="translate(-405.287 -187.135)"/></g><g transform="translate(0.791)"><path class="ax" d="M405.719,187.1l.222-.046.211,1.04a.113.113,0,0,1-.084.137.12.12,0,0,1-.137-.093Z" transform="translate(-405.719 -187.059)"/></g></g><g class="am" transform="translate(49.871 4.58)"><g transform="translate(0 0.139)"><path class="ax" d="M406.112,187.034l.328-.066.432,2.132a.168.168,0,1,1-.33.066Z" transform="translate(-406.112 -186.968)"/></g><g transform="translate(0.79)"><path class="ax" d="M406.543,186.938l.222-.046.211,1.041a.112.112,0,0,1-.082.137.121.121,0,0,1-.139-.093Z" transform="translate(-406.543 -186.892)"/></g></g><g class="am" transform="translate(51.381 4.274)"><g transform="translate(0 0.139)"><path class="ax" d="M406.936,186.867l.328-.066.432,2.132a.17.17,0,0,1-.126.2.176.176,0,0,1-.2-.136Z" transform="translate(-406.936 -186.801)"/></g><g transform="translate(0.791)"><path class="ax" d="M407.368,186.771l.231-.046.211,1.039a.119.119,0,0,1-.233.048Z" transform="translate(-407.368 -186.725)"/></g></g><g class="am" transform="translate(52.899 3.968)"><g transform="translate(0 0.139)"><path class="ax" d="M407.765,186.7l.321-.066.43,2.132a.163.163,0,1,1-.319.064Z" transform="translate(-407.765 -186.634)"/></g><g transform="translate(0.782)"><path class="ax" d="M408.192,186.6l.231-.046.211,1.039a.118.118,0,0,1-.231.048Z" transform="translate(-408.192 -186.558)"/></g></g><g class="am" transform="translate(54.411 3.662)"><g transform="translate(0 0.139)"><path class="ax" d="M408.59,186.533l.319-.066.432,2.132a.164.164,0,1,1-.321.066Z" transform="translate(-408.59 -186.467)"/></g><g transform="translate(0.78)"><path class="ax" d="M409.016,186.437l.233-.046.209,1.039a.118.118,0,1,1-.231.048Z" transform="translate(-409.016 -186.391)"/></g></g><g class="am" transform="translate(55.92 3.356)"><g transform="translate(0 0.141)"><path class="ax" d="M409.414,186.365l.321-.064.431,2.13a.163.163,0,1,1-.319.066Z" transform="translate(-409.414 -186.301)"/></g><g transform="translate(0.782)"><path class="ax" d="M409.841,186.27l.231-.046.211,1.039a.121.121,0,0,1-.092.139.12.12,0,0,1-.139-.092Z" transform="translate(-409.841 -186.224)"/></g></g><g class="am" transform="translate(57.431 3.05)"><g transform="translate(0 0.141)"><path class="ax" d="M410.239,186.2l.319-.064.432,2.132a.168.168,0,0,1-.126.2.171.171,0,0,1-.194-.136Z" transform="translate(-410.239 -186.134)"/></g><g transform="translate(0.78)"><path class="ax" d="M410.665,186.1l.231-.048.211,1.039a.118.118,0,0,1-.231.048Z" transform="translate(-410.665 -186.057)"/></g></g><g class="am" transform="translate(58.941 2.744)"><g transform="translate(0 0.141)"><path class="ax" d="M411.063,186.031l.321-.064.43,2.132a.163.163,0,1,1-.319.064Z" transform="translate(-411.063 -185.967)"/></g><g transform="translate(0.791)"><path class="ax" d="M411.495,185.936l.222-.046.211,1.04a.119.119,0,0,1-.093.137.113.113,0,0,1-.13-.093Z" transform="translate(-411.495 -185.89)"/></g></g><g class="am" transform="translate(60.45 2.438)"><g transform="translate(0 0.139)"><path class="ax" d="M411.887,185.865l.33-.066.43,2.132a.178.178,0,0,1-.134.2.172.172,0,0,1-.194-.137Z" transform="translate(-411.887 -185.799)"/></g><g transform="translate(0.791)"><path class="ax" d="M412.319,185.769l.222-.046.211,1.04a.12.12,0,0,1-.092.139.115.115,0,0,1-.13-.1Z" transform="translate(-412.319 -185.723)"/></g></g><g class="am" transform="translate(61.962 2.132)"><g transform="translate(0 0.139)"><path class="ax" d="M412.712,185.7l.328-.066.432,2.132a.179.179,0,0,1-.136.2.168.168,0,0,1-.192-.137Z" transform="translate(-412.712 -185.632)"/></g><g transform="translate(0.791)"><path class="ax" d="M413.144,185.6l.222-.046.211,1.04a.115.115,0,0,1-.084.137.121.121,0,0,1-.139-.093Z" transform="translate(-413.144 -185.556)"/></g></g><g class="am" transform="translate(63.471 1.828)"><g transform="translate(0 0.137)"><path class="ax" d="M413.536,185.531l.33-.066.43,2.132a.167.167,0,1,1-.328.066Z" transform="translate(-413.536 -185.465)"/></g><g transform="translate(0.791)"><path class="ax" d="M413.968,185.434l.222-.044.211,1.039a.112.112,0,0,1-.082.137.121.121,0,0,1-.139-.093Z" transform="translate(-413.968 -185.39)"/></g></g><g class="am" transform="translate(64.982 1.52)"><g transform="translate(0 0.139)"><path class="ax" d="M414.361,185.364l.328-.066.432,2.132a.17.17,0,0,1-.126.2.179.179,0,0,1-.2-.136Z" transform="translate(-414.361 -185.298)"/></g><g transform="translate(0.79)"><path class="ax" d="M414.792,185.268l.233-.046.209,1.039a.118.118,0,1,1-.231.048Z" transform="translate(-414.792 -185.222)"/></g></g><g class="am" transform="translate(66.501 1.224)"><g transform="translate(0 0.13)"><path class="ax" d="M415.19,185.2l.321-.066.43,2.132a.163.163,0,1,1-.319.066Z" transform="translate(-415.19 -185.131)"/></g><g transform="translate(0.782)"><path class="ax" d="M415.617,185.1l.233-.037.209,1.03a.121.121,0,0,1-.092.139.12.12,0,0,1-.139-.092Z" transform="translate(-415.617 -185.06)"/></g></g><g class="am" transform="translate(68.014 0.918)"><g transform="translate(0 0.139)"><path class="ax" d="M416.016,185.035l.319-.066.43,2.123a.164.164,0,1,1-.321.066Z" transform="translate(-416.016 -184.969)"/></g><g transform="translate(0.78)"><path class="ax" d="M416.442,184.939l.231-.046.209,1.03a.118.118,0,1,1-.231.048Z" transform="translate(-416.442 -184.893)"/></g></g><g class="am" transform="translate(69.524 0.612)"><g transform="translate(0 0.139)"><path class="ax" d="M416.84,184.868l.321-.066.429,2.123a.163.163,0,1,1-.319.066Z" transform="translate(-416.84 -184.802)"/></g><g transform="translate(0.782)"><path class="ax" d="M417.267,184.772l.231-.046.209,1.03a.121.121,0,0,1-.093.139.119.119,0,0,1-.137-.092Z" transform="translate(-417.267 -184.726)"/></g></g><g class="am" transform="translate(71.033 0.306)"><g transform="translate(0 0.139)"><path class="ax" d="M417.664,184.7l.321-.066.431,2.123a.172.172,0,0,1-.126.2.17.17,0,0,1-.194-.136Z" transform="translate(-417.664 -184.635)"/></g><g transform="translate(0.782)"><path class="ax" d="M418.091,184.6l.231-.046.209,1.03a.118.118,0,1,1-.231.048Z" transform="translate(-418.091 -184.559)"/></g></g><g class="am" transform="translate(72.544)"><g transform="translate(0 0.139)"><path class="ax" d="M418.489,184.534l.319-.066.431,2.125a.164.164,0,1,1-.321.064Z" transform="translate(-418.489 -184.468)"/></g><g transform="translate(0.79)"><path class="ax" d="M418.92,184.438l.223-.046.209,1.03a.119.119,0,0,1-.093.139.112.112,0,0,1-.13-.093Z" transform="translate(-418.92 -184.392)"/></g></g></g></g><path class="ay" d="M378.219,193.857c-1.5,11.534,3.242,23.173,8.029,19.962,7.509-5.038,18.654-21.565,19.735-21.614a30.2,30.2,0,0,0,3.023.385,16.165,16.165,0,0,0,3.261-.491c.185-.044.407-.141.407-.33a.377.377,0,0,0-.187-.282,2.255,2.255,0,0,0-1.321-.333c-.383-.007-.87-.059-.975-.427a.58.58,0,0,1,.242-.59,1.728,1.728,0,0,1,.625-.253c1.183-.3,2.662-.577,3.845-.881-.722-.222-1.746-.452-2.479-.63a9.528,9.528,0,0,0-1.678-.284,22.285,22.285,0,0,0-3.5.134,10.7,10.7,0,0,0-3.715,1.4,15.214,15.214,0,0,0-2.493,1.682c-2.026,1.586-9.727,10.6-11.4,11.854" transform="translate(48.197 48.248)"/><g transform="translate(422.699 266.853)"><path class="ay" d="M404.844,212.392a52.937,52.937,0,0,0-3.536,12.4c-.81,5.631,2.328,14.615,1.975,21.16-.106,1.275-.275,4.336-.771,5.254-.608,1.125-1.953,2.367-2.085,3.867a2.311,2.311,0,0,0,1.495,2.253c1.05.48,1.738-.075,2.116-.042,2.185.187,2.6,1.76,6.351,2.237a5.99,5.99,0,0,0,3.926-1.073.8.8,0,0,0,.141-1.114c-.225-.324-3-1.147-4.261-1.872a7.709,7.709,0,0,1-2.724-3.349c-.207-.76.33-4.411.564-5.943,1.614-10.55,3.614-25.4,4.688-31.558" transform="translate(-355.799 -198.373)"/><path class="ah" d="M414.857,240.642c.266-.456.326-1.132.07-1.29a21.282,21.282,0,0,0-2.352-1.271c-.731-.3-1.889-.546-1.478-.348s-.326,1-1.008.984c-2.35-.066-4.1-1.506-5.446-1.784-1.936-.4-2.4-2.51-2.488-2.86a9.036,9.036,0,0,0-1.727,2.521,4.263,4.263,0,0,0-.258,1.938,4.279,4.279,0,0,1,.242,1.834,3.74,3.74,0,0,0,1.4.436,5.684,5.684,0,0,0,1.495-.024l.148-1.165a5.745,5.745,0,0,1,1.194.077,3.978,3.978,0,0,1,1.826.92c.288.282.571.729.936.872a7.931,7.931,0,0,0,3.017.617C412.945,242.163,414.4,241.419,414.857,240.642Z" transform="translate(-356.047 -180.337)"/><path class="ay" d="M393.077,204.739l-17.015,9.731s1.075,6.39,8.778,8.036c4.468.954,11.488-.321,13.342-.227s31.2,1.152,31.2,1.152,2.916.638,3.438-1.656c.819-3.6.007-4.73-2.411-6.333C426.336,212.743,410.758,207.621,393.077,204.739Z" transform="translate(-376.062 -204.739)"/></g><g transform="translate(423.052 268.059)"><path class="az" d="M402.829,214.272a52.983,52.983,0,0,0,.026,12.895c.777,5.637,6.578,15.053,8.046,21.442.251,1.255.934,4.244.711,5.263-.275,1.249-1.224,2.814-.936,4.292a2.315,2.315,0,0,0,2.057,1.755c1.141.169,1.651-.553,2.022-.626,2.152-.423,2.982.975,6.723.4a5.993,5.993,0,0,0,3.475-2.116.8.8,0,0,0-.17-1.11c-.308-.249-3.2-.273-4.613-.623a7.708,7.708,0,0,1-3.543-2.468c-.409-.674-.9-4.331-1.1-5.868-1.359-10.585-4.034-28.42-4.7-34.634" transform="translate(-354.469 -199.179)"/><path class="ah" d="M421.73,238.637c.13-.511,0-1.18-.289-1.26a21.64,21.64,0,0,0-2.612-.572c-.784-.086-1.964,0-1.517.073s-.037,1.055-.7,1.224c-2.275.586-4.36-.313-5.726-.213-1.973.148-3-1.749-3.18-2.061a9.027,9.027,0,0,0-.965,2.9,4.271,4.271,0,0,0,.288,1.934,4.275,4.275,0,0,1,.738,1.7,3.75,3.75,0,0,0,1.462.033,5.68,5.68,0,0,0,1.429-.436l-.178-1.16a5.668,5.668,0,0,1,1.169-.256,3.965,3.965,0,0,1,2.01.381,3.588,3.588,0,0,0,1.141.577,7.922,7.922,0,0,0,3.07-.238C420.312,240.627,421.508,239.509,421.73,238.637Z" transform="translate(-350.893 -180.081)"/><path class="az" d="M393.268,205.4l-17.013,9.729s.678,6.192,8.381,7.839c4.468.956,11.885-.121,13.737-.027s31.206,1.152,31.206,1.152,2.869.616,3.013-1.733c.194-3.136.432-4.653-1.988-6.256C426.527,213.4,410.951,208.279,393.268,205.4Z" transform="translate(-376.255 -205.397)"/></g><path class="ah" d="M379.95,202.673s-5.325,10.368-3.962,14.785,3.961,8.593,11.27,8.648,25.628.055,25.628.055a27.518,27.518,0,0,1,2.246-7.756,22.641,22.641,0,0,1,4.212-5.305s-18.583-5.726-19.87-6.957a16.5,16.5,0,0,1-2.552-3.964" transform="translate(46.389 59.984)"/><path class="aw" d="M381.5,184.129c-2.094,3.686-3.407,8.859-3.869,14.683a44.86,44.86,0,0,0,7.362,1.052" transform="translate(47.943 44.969)"/><path class="aw" d="M395.987,182.005c.975.322.61,2.647,1.586,2.971.707.234,2.092-.077,2.74.289,3.438,1.938,2.557,5.809,2.973,10.6,1.455,3.68,1.843,7.014.681,9.07-1.44,2.552-2.962,3.272-4.73,5.384-1.321,1.581-1.755,4.831-2.026,8.324-.046.6.454,1.654.308,2.24-.279,1.121-1.982,1.469-3.885,1.506-4.373.082-11.006-1.508-12.957-1.436-1.839.068-3.572-.823-3.393-1.909.125-.757.885-1.068,1.183-2.533.661-3.226,1.167-11.292,1.682-14.027,1.317-7,2.279-12.211,5.151-18.667" transform="translate(47.643 43.202)"/><path class="av" d="M396.411,193.532a32.85,32.85,0,0,0-3.968-5.2l-3.737,1.682c1.757,3.371,2.077,7.34,2.883,11.026a8.74,8.74,0,0,0,2.156-.212c.365-.594.227-.3.711-1.154A15.09,15.09,0,0,0,396.411,193.532Z" transform="translate(57.155 48.466)"/><path class="az" d="M403.043,183.233a18.624,18.624,0,0,0,.636-4.836c-.108-2.779-.46-6.8-5.076-8.456s-9.711-.661-11.224,2.669-1.16,8.37-1.381,11.065a16.592,16.592,0,0,1-2.2,5.921l9.943,4.281s1.623-3.532,2.292-3.955.9,1.258,3.116,1.072c.942-.079,1.945-1.766,2.7-3.843.024-.062.049-.139.071-.205a10.649,10.649,0,0,0,1.183-.1c.685-.205.632-.509.478-.943A11.211,11.211,0,0,1,403.043,183.233Z" transform="translate(53.075 32.514)"/><path class="az" d="M403.123,208.066a5.322,5.322,0,0,0,3.248,2.858,1.772,1.772,0,0,0,1.149-.216c.572.154,2.3.064,1.5-.83,1.224.729,2.436.484,3.79.194.453-.1.352-.626-.691-.735a5.1,5.1,0,0,1-3.541-2.114c.183-.194.4.071.976.07.641,0,.931-.339.9-.616-.018-.209-.808-.326-.991-.409l-2.074-.934a3.633,3.633,0,0,0-2.088-.4c-.139.013-1.473.311-1.059.747" transform="translate(69.148 62.26)"/><path class="az" d="M390.436,194.852s5.219,14.065,6.128,15.214c3.574,4.527,17.63,11.653,17.63,11.653a2.754,2.754,0,0,0,1.746-3.067c-4.325-1.9-12.308-10.654-14.054-11.724-1.132-.692-6.128-17.888-6.128-17.888" transform="translate(58.594 49.054)"/><path class="aw" d="M396.619,185.649c-3.779-1.444-7.392-1.451-10.286-4.345-2.935,2.259,3.547,15.32,5.149,15.67,1.638.359,3.77,7.568,4.173,8.548,5.23-.137,7.144-2.99,7.144-2.99C400.664,195.968,400.281,187.049,396.619,185.649Z" transform="translate(54.555 42.619)"/><path class="ah" d="M400.416,197.041c-.258-.982-1-1.762-1.169-2.766a4.522,4.522,0,0,1,.557-2.977,5.476,5.476,0,0,1,1.293-1.222c2.079-1.64,2.8-2.993,2.107-5.444a6.654,6.654,0,0,1-.354-2.46c.075-.751.227-1.537,1.035-1.63.562-.066.925.07,1.123.544.137.332-.136,2.709.652,1.363.755-1.29,1.425-1.387,1.39-4.36-.005-.352-.125-1.786.093-2a5.666,5.666,0,0,1,1.942,4,2.906,2.906,0,0,0,1.332-2.5,6.627,6.627,0,0,0-.548-2.977c-1.8-3.873-3.721-4.583-5.336-5.27a12,12,0,0,0-4.9-1.3c-1.7.046-3.808.551-4.3,1.826-2.356-.608-3.7,1.451-4.261,2.191a12.006,12.006,0,0,0-1.819,3.51c-.6,1.861-.742,3.843-1.218,5.743a8.368,8.368,0,0,1-2.244,4.224c-1.149,1.039-2.762,1.134-4.01,2.087a6.282,6.282,0,0,0-2.383,5.217c.086,1.993,1.112,4.144-.092,5.974-.392.594-.942,1.07-1.326,1.669a4.539,4.539,0,0,0,.09,4.686,8.312,8.312,0,0,0,4.061,3.47,11.924,11.924,0,0,0,4.393.6c2.865-.158,5.274.005,8.3-2.583,1.716-1.467.619-2.3,2.266-3.86.923-.872,2.233-1.337,2.909-2.469a4.409,4.409,0,0,0,.441-3.171C400.436,197.118,400.427,197.08,400.416,197.041Z" transform="translate(47.726 31.582)"/><rect class="a" width="38.699" height="38.699" rx="4.46" transform="matrix(0.755, -0.655, 0.655, 0.755, 360.798, 434.212)"/><g transform="translate(376.463 420.108)"><path class="b" d="M353.1,295.083c.654-.566,1.317-1.121,1.953-1.706a.692.692,0,0,1,.923-.123c1.042.656,2.074,1.33,3.12,1.982s2.138,1.3,3.2,1.953c.762.469,1.509.964,2.268,1.438.74.463,1.487.914,2.231,1.376.777.482,1.55.969,2.326,1.455.707.443,1.412.892,2.123,1.326.982.6,1.975,1.18,2.944,1.8.068.044.044.409-.053.5-.537.511-1.11.986-1.672,1.473-.529.462-1.061.921-1.59,1.387a.523.523,0,0,1-.74.035c-1.13-.738-2.292-1.429-3.44-2.142a2.467,2.467,0,0,1-.328-.262.7.7,0,0,0-1.062-.011q-1.9,1.676-3.821,3.321a.487.487,0,0,0-.125.711q.907,1.847,1.715,3.739c.432,1.015.4,1.026-.449,1.76-.806.7-1.616,1.389-2.409,2.1-.328.295-.551.273-.729-.132-.359-.821-.713-1.643-1.077-2.46-.379-.852-.773-1.7-1.154-2.552-.35-.78-.694-1.564-1.041-2.347l-1.594-3.6q-.758-1.723-1.519-3.442-.789-1.77-1.585-3.539c-.2-.436-.4-.866-.588-1.3a.83.83,0,0,1,.3-1.132c.658-.493,1.253-1.068,1.876-1.608Zm2.405,3c-.024.114-.06.181-.042.22q.577,1.182,1.165,2.356c.5,1.017,1,2.035,1.511,3.048.286.57.59,1.132.881,1.7.165.317.365.326.621.1.925-.806,1.854-1.6,2.779-2.409.24-.211.244-.375-.071-.544-.471-.253-.934-.528-1.378-.826-1.471-.989-2.931-1.995-4.4-2.988C356.235,298.514,355.879,298.314,355.506,298.084Z" transform="translate(-350.822 -284.463)"/><path class="b" d="M367.709,296.535c1.539,1.773,3.07,3.556,4.626,5.316.321.365.348.592-.051.921-.931.764-1.836,1.561-2.729,2.367-.368.332-.608.3-.934-.079q-4.581-5.314-9.192-10.6c-.566-.654-.559-.678.081-1.233.835-.724,1.689-1.425,2.5-2.178.407-.379.659-.357,1.019.066,1.546,1.819,3.123,3.614,4.688,5.419Z" transform="translate(-344.007 -286.419)"/><path class="b" d="M357.981,289.1a2.413,2.413,0,0,1,3.57.18,2.309,2.309,0,0,1-.392,3.5,2.375,2.375,0,0,1-3.568-.172A2.411,2.411,0,0,1,357.981,289.1Z" transform="translate(-345.677 -288.399)"/></g></g></svg>