<svg xmlns="http://www.w3.org/2000/svg" width="30.571" height="30.571" viewBox="0 0 30.571 30.571"><defs><style>.a{fill:#1b1464;}</style></defs><path class="a" d="M22.916,25.976a3.055,3.055,0,1,0-3.059-3.061A3.065,3.065,0,0,0,22.916,25.976Z" transform="translate(-7.631 -7.631)"/><path class="a" d="M33.838,16.907V13.96h-.384l-2.564.008.01,2.947Z" transform="translate(-11.872 -5.365)"/><path class="a" d="M15.285,0A15.285,15.285,0,1,0,30.571,15.285,15.3,15.3,0,0,0,15.285,0Zm8.693,13.5v7.117a3.363,3.363,0,0,1-3.36,3.36H9.952a3.363,3.363,0,0,1-3.36-3.36V9.953a3.363,3.363,0,0,1,3.36-3.36H20.618a3.363,3.363,0,0,1,3.36,3.36Z"/><path class="a" d="M25.212,23.713a4.755,4.755,0,1,1-9.16-1.784h-2.6v7.117a1.666,1.666,0,0,0,1.666,1.665H25.789a1.667,1.667,0,0,0,1.666-1.665V21.929h-2.6A4.69,4.69,0,0,1,25.212,23.713Z" transform="translate(-5.172 -8.427)"/></svg>