<svg xmlns="http://www.w3.org/2000/svg" xmlns:xlink="http://www.w3.org/1999/xlink" width="175" height="216" viewBox="0 0 175 216"><defs><clipPath id="a"><rect width="175" height="216" transform="translate(0 79)" fill="#fff"/></clipPath></defs><g transform="translate(0 -79)" clip-path="url(#a)"><g transform="translate(-181.603 -31.193)"><g transform="translate(0.003 119.714)"><g transform="translate(0 29.922)"><path d="M-117.392,133.706V73.8l51.848,29.948v.026Z" transform="translate(117.392 -73.797)" fill="#ffa73b"/></g><g transform="translate(51.848)"><path d="M-78.525,111.171V51.392l.052-.026,51.764,29.9Z" transform="translate(78.525 -51.366)" fill="#0c2e3a"/><path d="M-78.525,103.777v-.091l51.816-29.909.039.026v59.909Z" transform="translate(78.525 -43.881)" fill="#78001b"/></g><g transform="translate(0.049 59.896)"><path d="M-78.523,201.027V141.118l51.848,29.948v.026Z" transform="translate(130.325 -81.286)" fill="#ffa73b"/><path d="M-78.523,148.612v-.045l51.784-29.89.065.039V178.56Z" transform="translate(130.325 -88.781)" fill="#f5340b"/><path d="M-78.523,156.052V96.266l51.784,29.9Z" transform="translate(130.325 -96.266)" fill="#f5340b"/><path d="M-117.356,126.175l51.8-29.909v59.786l-.039.019Z" transform="translate(117.356 -96.266)" fill="#ff823b"/></g></g><path d="M-78.523,66.385V6.476l51.848,29.948v.026Z" transform="translate(130.377 53.356)" fill="#018790"/><path d="M-78.523,13.97v-.045l51.784-29.89.065.039V43.918Z" transform="translate(130.377 45.861)" fill="#018790"/><path d="M-78.523,21.41V-38.376l51.784,29.9Z" transform="translate(130.377 38.376)" fill="#e3651d"/><path d="M-117.395,36.456v-.091L-65.579,6.456l.039.026V66.391Z" transform="translate(117.395 53.349)" fill="#ffa73b"/><g transform="translate(0.003 149.636)"><path d="M-117.392,133.706V73.8l51.848,29.948v.026Z" transform="translate(117.392 -73.797)" fill="#ffa73b"/></g><g transform="translate(51.851 89.805)"><path d="M-78.486,58.854l51.8-29.909V88.731l-.039.019Z" transform="translate(78.538 -28.945)" fill="#00a6a6"/><path d="M-78.525,111.171V51.392l.052-.026,51.764,29.9Z" transform="translate(78.525 -21.457)" fill="#0c2e3a"/><path d="M-78.525,103.777v-.091l51.816-29.909.039.026v59.909Z" transform="translate(78.525 -13.972)" fill="#ffa73b"/></g><g transform="translate(51.851 119.701)"><path d="M-39.653,133.706V73.8L12.2,103.745v.026Z" transform="translate(91.508 -43.862)" fill="#78001b"/><path d="M-39.653,81.291v-.045l51.784-29.89.065.039v59.844Z" transform="translate(91.508 -51.356)" fill="#78001b"/><path d="M-78.525,103.777v-.091l51.816-29.909.039.026v59.909Z" transform="translate(78.525 -43.868)" fill="#78001b"/><g transform="translate(103.703 0.013)"><path d="M-.786,111.171V51.392l.052-.026,51.764,29.9Z" transform="translate(0.786 -51.366)" fill="#78001b"/><path d="M-.786,103.777v-.091L51.03,73.777l.039.026v59.909Z" transform="translate(0.786 -43.881)" fill="#f5340b"/></g><g transform="translate(51.851 59.909)"><path d="M-.783,201.027V141.118l51.848,29.948v.026Z" transform="translate(52.638 -81.286)" fill="#1dcdc3"/><path d="M-.783,148.612v-.045L51,118.677l.065.039V178.56Z" transform="translate(52.638 -88.781)" fill="#0c2e3a"/><path d="M12.109,192.235v-.015l17.43-10.061.022.013v20.143Z" transform="translate(56.944 -67.579)" fill="#0c2e3a"/><path d="M-.783,156.052V96.266L51,126.162Z" transform="translate(52.638 -96.266)" fill="#0c2e3a"/><path d="M-39.617,126.175l51.8-29.909v59.786l-.039.019Z" transform="translate(39.668 -96.266)" fill="#018790"/><path d="M-39.655,178.492v-59.78l.052-.026,51.764,29.9Z" transform="translate(39.655 -88.778)" fill="#018790"/><path d="M-39.655,216.027v-.09L12.16,186.027l.039.026v59.909Z" transform="translate(39.655 -66.287)" fill="#1dcdc3"/></g></g><g transform="translate(51.851)"><g transform="translate(51.851)"><path d="M-.783,66.385V6.476L51.065,36.424v.026Z" transform="translate(52.638 53.356)" fill="#78001b"/><path d="M-.783,13.97v-.045L51-15.965l.065.039V43.918Z" transform="translate(52.638 45.861)" fill="#78001b"/><path d="M-.783,21.41V-38.376L51-8.48Z" transform="translate(52.638 38.376)" fill="#00a6a6"/><path d="M-39.617-8.467l51.8-29.909V21.41l-.039.019Z" transform="translate(39.668 38.376)" fill="#00a6a6"/><path d="M-39.655,43.85v-59.78l.052-.026,51.764,29.9Z" transform="translate(39.655 45.864)" fill="#0c2e3a"/><path d="M-39.655,36.456v-.091L12.16,6.456l.039.026V66.391Z" transform="translate(39.655 53.349)" fill="#0c2e3a"/></g><g transform="translate(0 89.805)"><path d="M-39.653,133.706V73.8L12.2,103.745v.026Z" transform="translate(91.508 -13.965)" fill="#f5340b"/><path d="M-39.653,81.291v-.045l51.784-29.89.065.039v59.844Z" transform="translate(91.508 -21.46)" fill="#f5340b"/><path d="M-39.653,88.731V28.945l51.784,29.9Z" transform="translate(91.508 -28.945)" fill="#00a6a6"/><path d="M-78.486,58.854l51.8-29.909V88.731l-.039.019Z" transform="translate(78.538 -28.945)" fill="#ff823b"/><path d="M-78.525,103.777v-.091l51.816-29.909.039.026v59.909Z" transform="translate(78.525 -13.972)" fill="#ffa73b"/></g><g transform="translate(103.703 89.805)"><path d="M-.747,58.854l51.8-29.909V88.731l-.039.019Z" transform="translate(0.799 -28.945)" fill="#f5340b"/><path d="M-.786,111.171V51.392l.052-.026,51.764,29.9Z" transform="translate(0.786 -21.457)" fill="#f5340b"/><path d="M-.786,103.777v-.091L51.03,73.777l.039.026v59.909Z" transform="translate(0.786 -13.972)" fill="none"/></g></g><g transform="translate(155.554 119.701)"><path d="M38.086,133.706V73.8l51.848,29.948v.026Z" transform="translate(13.768 -43.862)" fill="#f5340b"/><path d="M38.086,81.291v-.045L89.87,51.356l.065.039v59.844Z" transform="translate(13.768 -51.356)" fill="#e3651d"/><path d="M-.786,103.777v-.091L51.03,73.777l.039.026v59.909Z" transform="translate(0.786 -43.868)" fill="#ffa73b"/><g transform="translate(103.703 0.013)"><path d="M76.953,111.171V51.392l.052-.026,51.764,29.9Z" transform="translate(-76.953 -51.366)" fill="#ffa73b"/></g><g transform="translate(170.843 17.774)"><path d="M127.284,88.963V64.691l.021-.011,21.018,12.139Z" transform="translate(-127.284 -64.68)" fill="#ffd497"/></g><g transform="translate(51.851 59.909)"><path d="M76.956,201.027V141.118L128.8,171.066v.026Z" transform="translate(-25.101 -81.286)" fill="#ffd497"/><path d="M38.123,126.175l51.8-29.909v59.786l-.039.019Z" transform="translate(-38.071 -96.266)" fill="#ff823b"/><path d="M38.084,178.492v-59.78l.052-.026,51.764,29.9Z" transform="translate(-38.084 -88.778)" fill="#ff823b"/><path d="M38.084,171.1v-.091L89.9,141.1l.039.026v59.909Z" transform="translate(-38.084 -81.293)" fill="#ffa73b"/></g></g><g transform="translate(155.554)"><g transform="translate(51.851)"><path d="M76.956,66.385V6.476L128.8,36.424v.026Z" transform="translate(-25.101 53.356)" fill="#ff7c4e"/><path d="M38.123-8.467l51.8-29.909V21.41l-.039.019Z" transform="translate(-38.071 38.376)" fill="#f54132"/><path d="M38.084,43.85v-59.78l.052-.026L89.9,13.941Z" transform="translate(-38.084 45.864)" fill="#f54132"/><path d="M38.084,36.456v-.091L89.9,6.456l.039.026V66.391Z" transform="translate(-38.084 53.349)" fill="#f54132"/></g><g transform="translate(0 89.805)"><path d="M38.086,133.706V73.8l51.848,29.948v.026Z" transform="translate(13.768 -13.965)" fill="#ffa73b"/><path d="M38.086,81.291v-.045L89.87,51.356l.065.039v59.844Z" transform="translate(13.768 -21.46)" fill="#ffa73b"/><path d="M38.086,88.731V28.945l51.784,29.9Z" transform="translate(13.768 -28.945)" fill="#e3651d"/><path d="M-.747,58.854l51.8-29.909V88.731l-.039.019Z" transform="translate(0.799 -28.945)" fill="#78001b"/><path d="M-.786,103.777v-.091L51.03,73.777l.039.026v59.909Z" transform="translate(0.786 -13.972)" fill="#ffa73b"/></g></g></g></g></svg>