<svg xmlns="http://www.w3.org/2000/svg" width="173.576" height="32.413" viewBox="0 0 173.576 32.413"><g transform="translate(-679 -163.95)"><path d="M25.65-30.05h2.8V0h-1.7V-28.4h-.4L14.2-16.15,2.1-28.4H1.7V0H0V-30.05H2.8l11.4,11.5ZM24.45,0V-23.3L14.2-12.95,3.95-23.3V0H2.25V-27.4L14.2-15.35,26.15-27.4V0ZM44.3,0H42.6V-27.8h8.9v1.7H44.3ZM40.35,0V-26.1h-7.2v-1.7h8.9V0Zm-7.2-30.05H51.5v1.65H33.15ZM59.8-10.4V0H58.1V-12.1H64a7.664,7.664,0,0,0,3.125-.65A8.386,8.386,0,0,0,69.7-14.5a8.3,8.3,0,0,0,1.75-2.6,7.839,7.839,0,0,0,.65-3.15,7.546,7.546,0,0,0-.65-3.075,8.706,8.706,0,0,0-1.75-2.6,8.528,8.528,0,0,0-2.575-1.8A7.422,7.422,0,0,0,64-28.4H57.55V0h-1.7V-30.05H64a9.331,9.331,0,0,1,3.775.775A10.084,10.084,0,0,1,70.9-27.15a10.083,10.083,0,0,1,2.125,3.125A9.331,9.331,0,0,1,73.8-20.25a9.331,9.331,0,0,1-.775,3.775A10.083,10.083,0,0,1,70.9-13.35a10.453,10.453,0,0,1-3.125,2.15A9.081,9.081,0,0,1,64-10.4ZM58.1-27.8H64a6.986,6.986,0,0,1,2.925.625,8.1,8.1,0,0,1,2.4,1.65,7.731,7.731,0,0,1,1.625,2.4,7.114,7.114,0,0,1,.6,2.875,7.114,7.114,0,0,1-.6,2.875,7.731,7.731,0,0,1-1.625,2.4,8.1,8.1,0,0,1-2.4,1.65A6.986,6.986,0,0,1,64-12.7H58.1Zm1.7,1.7v11.7H64a5.4,5.4,0,0,0,2.25-.475,6.463,6.463,0,0,0,1.85-1.25,5.818,5.818,0,0,0,1.275-1.85,5.567,5.567,0,0,0,.475-2.275,5.4,5.4,0,0,0-.475-2.25A6.215,6.215,0,0,0,68.1-24.35a6.215,6.215,0,0,0-1.85-1.275A5.4,5.4,0,0,0,64-26.1ZM92.35-2.25H79.45v-27.8h1.7v26.1h11.2v1.7Zm0,2.25H77.2V-30.05h1.7V-1.7H92.35Z" transform="translate(679 194)" fill="#ed4c67"/><path d="M5.113,0H2.994V-8.23H.28V-9.994H7.827V-8.23H5.113ZM12.77-7.786a3.362,3.362,0,0,1,.7.062L13.316-5.77a2.388,2.388,0,0,0-.615-.068,2.211,2.211,0,0,0-1.555.513,1.853,1.853,0,0,0-.557,1.436V0H8.5V-7.643h1.579l.308,1.285h.1a2.873,2.873,0,0,1,.96-1.036A2.368,2.368,0,0,1,12.77-7.786ZM20.275,0,20-.978h-.109a2.2,2.2,0,0,1-.95.824,3.244,3.244,0,0,1-1.4.291A2.669,2.669,0,0,1,15.5-.584a2.9,2.9,0,0,1-.684-2.075V-7.643h2.085v4.464A2.144,2.144,0,0,0,17.2-1.938a1.069,1.069,0,0,0,.937.414A1.408,1.408,0,0,0,19.4-2.109a3.625,3.625,0,0,0,.39-1.938v-3.6h2.085V0Zm6.952-6.3a1.322,1.322,0,0,0-1.039.42,1.946,1.946,0,0,0-.431,1.193h2.926a1.738,1.738,0,0,0-.4-1.193A1.366,1.366,0,0,0,27.228-6.3ZM27.521.137A3.945,3.945,0,0,1,24.637-.882,3.857,3.857,0,0,1,23.6-3.767a4.242,4.242,0,0,1,.96-2.97,3.42,3.42,0,0,1,2.656-1.049,3.366,3.366,0,0,1,2.522.923,3.491,3.491,0,0,1,.9,2.55V-3.3H25.71a2.007,2.007,0,0,0,.526,1.388,1.852,1.852,0,0,0,1.381.5,5.732,5.732,0,0,0,1.306-.144,6.533,6.533,0,0,0,1.285-.458V-.4A4.9,4.9,0,0,1,29.039,0,7.37,7.37,0,0,1,27.521.137ZM44.324,0H42.212V-4.313H38.254V0H36.135V-9.994h2.119v3.917h3.958V-9.994h2.112ZM55.139-5.093a4.922,4.922,0,0,1-1.4,3.78A5.729,5.729,0,0,1,49.677,0h-2.83V-9.994h3.138a5.284,5.284,0,0,1,3.8,1.292A4.752,4.752,0,0,1,55.139-5.093Zm-2.2.055q0-3.22-2.844-3.22H48.966V-1.75h.909Q52.938-1.75,52.938-5.038Zm9.9.854H60.19v-1.5h2.646V-8.347h1.5v2.666h2.646v1.5H64.333v2.632h-1.5ZM7.157,16.225a2.583,2.583,0,0,1-.974,2.133,4.232,4.232,0,0,1-2.71.779,6.366,6.366,0,0,1-2.83-.6V16.566a11.663,11.663,0,0,0,1.712.636,5.067,5.067,0,0,0,1.282.185,1.822,1.822,0,0,0,1.07-.267.912.912,0,0,0,.373-.793.875.875,0,0,0-.164-.523,1.836,1.836,0,0,0-.482-.441,12.4,12.4,0,0,0-1.3-.677,6.14,6.14,0,0,1-1.374-.827,3.105,3.105,0,0,1-.731-.923,2.634,2.634,0,0,1-.273-1.23,2.583,2.583,0,0,1,.9-2.085,3.735,3.735,0,0,1,2.485-.759,5.868,5.868,0,0,1,1.487.185,10.22,10.22,0,0,1,1.48.52l-.684,1.647A10,10,0,0,0,5.1,10.756a4.258,4.258,0,0,0-1.029-.13,1.362,1.362,0,0,0-.923.28.925.925,0,0,0-.321.731.905.905,0,0,0,.13.489,1.428,1.428,0,0,0,.414.4,12.787,12.787,0,0,0,1.343.7,5.345,5.345,0,0,1,1.921,1.343A2.622,2.622,0,0,1,7.157,16.225ZM11.97,12.7a1.322,1.322,0,0,0-1.039.42,1.946,1.946,0,0,0-.431,1.193h2.926a1.738,1.738,0,0,0-.4-1.193A1.366,1.366,0,0,0,11.97,12.7Zm.294,6.439a3.945,3.945,0,0,1-2.885-1.019A3.857,3.857,0,0,1,8.34,15.233a4.242,4.242,0,0,1,.96-2.97,3.42,3.42,0,0,1,2.656-1.049,3.366,3.366,0,0,1,2.522.923,3.491,3.491,0,0,1,.9,2.55V15.7H10.452a2.007,2.007,0,0,0,.526,1.388,1.852,1.852,0,0,0,1.381.5,5.732,5.732,0,0,0,1.306-.144,6.533,6.533,0,0,0,1.285-.458V18.6A4.9,4.9,0,0,1,13.781,19,7.37,7.37,0,0,1,12.264,19.137ZM20.3,17.476a4.52,4.52,0,0,0,1.313-.239v1.552a4.68,4.68,0,0,1-1.914.349,2.343,2.343,0,0,1-1.822-.632,2.752,2.752,0,0,1-.571-1.9V12.923h-1v-.882l1.148-.7.6-1.613h1.333v1.627h2.14v1.565h-2.14v3.685a.814.814,0,0,0,.25.656A.984.984,0,0,0,20.3,17.476ZM28.567,19l-.28-.978h-.109a2.2,2.2,0,0,1-.95.824,3.244,3.244,0,0,1-1.4.291,2.669,2.669,0,0,1-2.03-.721,2.9,2.9,0,0,1-.684-2.075V11.357H25.2v4.464a2.144,2.144,0,0,0,.294,1.241,1.069,1.069,0,0,0,.937.414,1.408,1.408,0,0,0,1.265-.584,3.625,3.625,0,0,0,.39-1.938v-3.6h2.085V19Zm7.984.137a2.535,2.535,0,0,1-2.112-.978H34.33q.109.957.109,1.107v3.1H32.354V11.357h1.7l.294.991h.1a2.412,2.412,0,0,1,2.167-1.135,2.48,2.48,0,0,1,2.119,1.046,4.837,4.837,0,0,1,.766,2.905,5.737,5.737,0,0,1-.359,2.126,2.982,2.982,0,0,1-1.022,1.374A2.619,2.619,0,0,1,36.552,19.137Zm-.615-6.255a1.316,1.316,0,0,0-1.128.475,2.728,2.728,0,0,0-.369,1.569v.226a3.22,3.22,0,0,0,.366,1.764,1.305,1.305,0,0,0,1.159.533q1.4,0,1.4-2.311a3.3,3.3,0,0,0-.345-1.692A1.178,1.178,0,0,0,35.937,12.882Zm9.078-3.876h3.11a5.994,5.994,0,0,1,3.086.6,2.106,2.106,0,0,1,.96,1.924,2.425,2.425,0,0,1-.42,1.47,1.679,1.679,0,0,1-1.118.69v.068A2.2,2.2,0,0,1,52,14.557a2.58,2.58,0,0,1,.42,1.545,2.546,2.546,0,0,1-.988,2.133A4.272,4.272,0,0,1,48.754,19H45.015Zm2.119,3.958h1.23a2.25,2.25,0,0,0,1.248-.267A.994.994,0,0,0,50,11.815a.882.882,0,0,0-.42-.824,2.7,2.7,0,0,0-1.33-.25H47.134Zm0,1.682v2.6h1.381a2.048,2.048,0,0,0,1.292-.335,1.236,1.236,0,0,0,.417-1.025q0-1.244-1.777-1.244Zm8.784.52a3.208,3.208,0,0,0,.373,1.716,1.332,1.332,0,0,0,1.213.581,1.311,1.311,0,0,0,1.2-.578,3.254,3.254,0,0,0,.366-1.719,3.157,3.157,0,0,0-.369-1.7,1.57,1.57,0,0,0-2.413,0A3.154,3.154,0,0,0,55.918,15.165Zm5.284,0a4.107,4.107,0,0,1-.984,2.919,3.569,3.569,0,0,1-2.741,1.053,3.835,3.835,0,0,1-1.941-.482,3.207,3.207,0,0,1-1.292-1.384,4.652,4.652,0,0,1-.451-2.105,4.084,4.084,0,0,1,.978-2.912,3.59,3.59,0,0,1,2.748-1.039,3.856,3.856,0,0,1,1.941.479,3.194,3.194,0,0,1,1.292,1.374A4.608,4.608,0,0,1,61.2,15.165ZM64.21,15.1l-2.461-3.739h2.365L65.6,13.791l1.5-2.434H69.46L66.972,15.1l2.6,3.9H67.2L65.6,16.382,63.984,19H61.619Z" transform="translate(783 174)" fill="#fff" opacity="0.465"/></g></svg>