<svg xmlns="http://www.w3.org/2000/svg" width="275.569" height="36.202" viewBox="0 0 275.569 36.202"><g transform="translate(-166 -2989.142)"><path d="M29.754-34.858H33V0H31.03V-32.944h-.464L16.472-18.734,2.436-32.944H1.972V0H0V-34.858H3.248l13.224,13.34ZM28.362,0V-27.028L16.472-15.022,4.582-27.028V0H2.61V-31.784L16.472-17.806,30.334-31.784V0ZM51.388,0H49.416V-32.248H59.74v1.972H51.388ZM46.806,0V-30.276H38.454v-1.972H48.778V0ZM38.454-34.858H59.74v1.914H38.454ZM69.368-12.064V0H67.4V-14.036H74.24a8.89,8.89,0,0,0,3.625-.754,9.728,9.728,0,0,0,2.987-2.03,9.633,9.633,0,0,0,2.03-3.016,9.094,9.094,0,0,0,.754-3.654,8.753,8.753,0,0,0-.754-3.567,10.1,10.1,0,0,0-2.03-3.016,9.893,9.893,0,0,0-2.987-2.088,8.61,8.61,0,0,0-3.625-.783H66.758V0H64.786V-34.858H74.24a10.824,10.824,0,0,1,4.379.9,11.7,11.7,0,0,1,3.625,2.465,11.7,11.7,0,0,1,2.465,3.625,10.824,10.824,0,0,1,.9,4.379,10.824,10.824,0,0,1-.9,4.379,11.7,11.7,0,0,1-2.465,3.625,12.125,12.125,0,0,1-3.625,2.494,10.534,10.534,0,0,1-4.379.928ZM67.4-32.248H74.24a8.1,8.1,0,0,1,3.393.725,9.4,9.4,0,0,1,2.784,1.914A8.967,8.967,0,0,1,82.3-26.825,8.252,8.252,0,0,1,83-23.49a8.252,8.252,0,0,1-.7,3.335,8.967,8.967,0,0,1-1.885,2.784,9.4,9.4,0,0,1-2.784,1.914,8.1,8.1,0,0,1-3.393.725H67.4Zm1.972,1.972V-16.7H74.24a6.258,6.258,0,0,0,2.61-.551A7.5,7.5,0,0,0,79-18.7a6.749,6.749,0,0,0,1.479-2.146,6.457,6.457,0,0,0,.551-2.639,6.258,6.258,0,0,0-.551-2.61A7.21,7.21,0,0,0,79-28.246a7.21,7.21,0,0,0-2.146-1.479,6.258,6.258,0,0,0-2.61-.551ZM107.126-2.61H92.162V-34.858h1.972V-4.582h12.992V-2.61Zm0,2.61H89.552V-34.858h1.972V-1.972h15.6Z" transform="translate(166 3024)" fill="#1b1464"/><path d="M1.386,0V-12.816H9.954v1.836h-6.3v3.546H9.576V-5.6H3.654v3.762h6.3V0ZM20.718-12.816H22.9V0H21.168L14.256-8.982V0H12.1V-12.816h1.728l6.894,8.964ZM28.692,0V-10.908H24.516v-1.908h10.71v1.908H31.032V0Zm8.136,0V-12.816H45.4v1.836H39.1v3.546h5.922V-5.6H39.1v3.762h6.3V0ZM58.086,0H55.638L54-4.266a1.43,1.43,0,0,0-.666-.828,2.535,2.535,0,0,0-1.17-.234H49.842V0h-2.3V-12.816h5.49a5.024,5.024,0,0,1,3.312.954,3.376,3.376,0,0,1,1.134,2.736A3.488,3.488,0,0,1,56.8-6.957a3.654,3.654,0,0,1-1.917,1.269A2.239,2.239,0,0,1,56.52-4.1ZM52.7-7.128a3.174,3.174,0,0,0,1.944-.486,1.747,1.747,0,0,0,.63-1.476,1.712,1.712,0,0,0-.621-1.449,3.214,3.214,0,0,0-1.953-.477h-2.9v3.888ZM62.82,0V-10.908H58.644v-1.908h10.71v1.908H65.16V0ZM79.164,0,77.886-3.006H71.622L70.326,0h-2.34l5.8-12.816h1.89L81.486,0ZM72.4-4.806h4.716L74.754-10.3ZM82.872,0V-12.816h2.322V0ZM96.588-12.816h2.178V0H97.038L90.126-8.982V0h-2.16V-12.816h1.728l6.894,8.964Zm15.624,0h1.836V0H112V-7.956L108.594,0h-1.53l-3.42-7.866V0h-2.052V-12.816h1.836l4.41,10.026ZM116.856,0V-12.816h8.568v1.836h-6.3v3.546h5.922V-5.6h-5.922v3.762h6.3V0Zm19.332-12.816h2.178V0h-1.728l-6.912-8.982V0h-2.16V-12.816h1.728l6.894,8.964ZM144.162,0V-10.908h-4.176v-1.908H150.7v1.908H146.5V0ZM5.724,23.162a9.349,9.349,0,0,1-2.763-.4A6.35,6.35,0,0,1,.774,21.632l.792-1.692a6.753,6.753,0,0,0,1.953,1.035,7.108,7.108,0,0,0,2.223.333A3.812,3.812,0,0,0,7.8,20.84a1.478,1.478,0,0,0,.729-1.314,1.214,1.214,0,0,0-.675-1.107,8.471,8.471,0,0,0-2.223-.729,9.231,9.231,0,0,1-3.51-1.35,2.835,2.835,0,0,1-1.1-2.412,3.45,3.45,0,0,1,.612-2.016,4.084,4.084,0,0,1,1.737-1.386,6.306,6.306,0,0,1,2.6-.5,8.058,8.058,0,0,1,2.565.405,5.363,5.363,0,0,1,1.989,1.125l-.774,1.692a5.91,5.91,0,0,0-3.78-1.368,3.324,3.324,0,0,0-1.962.513,1.624,1.624,0,0,0-.72,1.395,1.275,1.275,0,0,0,.639,1.152,7.579,7.579,0,0,0,2.187.738,15.6,15.6,0,0,1,2.61.819,3.884,3.884,0,0,1,1.548,1.134,2.741,2.741,0,0,1,.54,1.737,3.358,3.358,0,0,1-.612,2.007,3.908,3.908,0,0,1-1.764,1.323A7.2,7.2,0,0,1,5.724,23.162ZM12.978,23V10.184h8.568V12.02h-6.3v3.546h5.922V17.4H15.246v3.762h6.3V23Zm21.258,0H31.788L30.15,18.734a1.43,1.43,0,0,0-.666-.828,2.535,2.535,0,0,0-1.17-.234H25.992V23h-2.3V10.184h5.49a5.024,5.024,0,0,1,3.312.954,3.376,3.376,0,0,1,1.134,2.736,3.488,3.488,0,0,1-.675,2.169,3.654,3.654,0,0,1-1.917,1.269A2.239,2.239,0,0,1,32.67,18.9Zm-5.382-7.128a3.174,3.174,0,0,0,1.944-.486,1.747,1.747,0,0,0,.63-1.476,1.712,1.712,0,0,0-.621-1.449,3.213,3.213,0,0,0-1.953-.477h-2.9v3.888ZM45.54,10.184H47.9L42.192,23H40.3L34.6,10.184h2.412l4.266,9.9ZM49.122,23V10.184h2.322V23Zm10.908.162a6.526,6.526,0,0,1-3.3-.81,5.415,5.415,0,0,1-2.169-2.3,7.583,7.583,0,0,1-.756-3.483,7.541,7.541,0,0,1,.756-3.465,5.359,5.359,0,0,1,2.169-2.286,6.584,6.584,0,0,1,3.3-.8,7.249,7.249,0,0,1,2.439.405,5.253,5.253,0,0,1,1.9,1.125l-.756,1.692a6.1,6.1,0,0,0-1.719-1.017,5.243,5.243,0,0,0-1.827-.315A3.549,3.549,0,0,0,57.2,13.118a5.22,5.22,0,0,0-1.017,3.456,5.321,5.321,0,0,0,1.008,3.483,3.531,3.531,0,0,0,2.88,1.215,5.243,5.243,0,0,0,1.827-.315,6.1,6.1,0,0,0,1.719-1.017l.756,1.692a5.253,5.253,0,0,1-1.9,1.125A7.249,7.249,0,0,1,60.03,23.162ZM66.546,23V10.184h8.568V12.02h-6.3v3.546h5.922V17.4H68.814v3.762h6.3V23Zm14.868.162a9.349,9.349,0,0,1-2.763-.4,6.35,6.35,0,0,1-2.187-1.134l.792-1.692a6.753,6.753,0,0,0,1.953,1.035,7.108,7.108,0,0,0,2.223.333,3.812,3.812,0,0,0,2.061-.468,1.478,1.478,0,0,0,.729-1.314,1.214,1.214,0,0,0-.675-1.107,8.471,8.471,0,0,0-2.223-.729,9.231,9.231,0,0,1-3.51-1.35,2.835,2.835,0,0,1-1.1-2.412,3.45,3.45,0,0,1,.612-2.016,4.084,4.084,0,0,1,1.737-1.386,6.306,6.306,0,0,1,2.6-.5,8.058,8.058,0,0,1,2.565.405,5.363,5.363,0,0,1,1.989,1.125l-.774,1.692a5.91,5.91,0,0,0-3.78-1.368,3.324,3.324,0,0,0-1.962.513,1.624,1.624,0,0,0-.72,1.395,1.275,1.275,0,0,0,.639,1.152,7.579,7.579,0,0,0,2.187.738,15.6,15.6,0,0,1,2.61.819,3.884,3.884,0,0,1,1.548,1.134,2.741,2.741,0,0,1,.54,1.737,3.358,3.358,0,0,1-.612,2.007,3.908,3.908,0,0,1-1.764,1.323A7.2,7.2,0,0,1,81.414,23.162Z" transform="translate(290.873 3002.182)" fill="#1b1464" opacity="0.553"/></g></svg>