<svg xmlns="http://www.w3.org/2000/svg" width="11" height="11" viewBox="0 0 11 11"><defs><style>.a{fill:#fff;}</style></defs><g transform="translate(-0.001)"><path class="a" d="M5.5,0A5.5,5.5,0,1,0,11,5.5,5.5,5.5,0,0,0,5.5,0Zm2.9,8.025-.44.44a.812.812,0,0,1-.316.127A5.194,5.194,0,0,1,2.407,3.339a.82.82,0,0,1,.129-.3l.44-.44a.736.736,0,0,1,.688-.163l.093.031A.87.87,0,0,1,4.26,3l.222.813a.8.8,0,0,1-.182.7L4.005,4.8A3.123,3.123,0,0,0,6.2,7L6.5,6.7a.8.8,0,0,1,.7-.183L8,6.743a.871.871,0,0,1,.532.5l.031.094A.736.736,0,0,1,8.405,8.025Z" transform="translate(0)"/></g></svg>