<svg xmlns="http://www.w3.org/2000/svg" width="47.885" height="47.884" viewBox="0 0 47.885 47.884"><defs><style>.a{fill:#1b1464;}</style></defs><g transform="translate(0 0)"><path class="a" d="M203.317,152.616H197.7v8.422h8.423v-2.806h-5.617v-2.811h5.616V147H197.7v2.806h5.617Zm0,0" transform="translate(-179.209 -133.252)"/><path class="a" d="M326.231,161.028v-14.04h-2.806v5.617h-2.811v-5.617h-2.806v8.423h5.616v5.617Zm0,0" transform="translate(-288.085 -133.241)"/><path class="a" d="M400.089,69.011l-1.984-1.984,2.647-2.648,1.984,1.984Zm0,0" transform="translate(-360.872 -58.358)"/><path class="a" d="M326.222,13.754l2.592,1.074-1.433,3.459-2.592-1.074Zm0,0" transform="translate(-294.413 -12.468)"/><path class="a" d="M240.992,0H243.8V3.744h-2.806Zm0,0" transform="translate(-218.453)"/><path class="a" d="M146.756,13.75l1.433,3.459L145.6,18.283l-1.433-3.459Zm0,0" transform="translate(-130.681 -12.464)"/><path class="a" d="M66.34,64.375l2.648,2.648L67,69.006l-2.648-2.647Zm0,0" transform="translate(-58.337 -58.354)"/><path class="a" d="M400.749,402.756l-2.648-2.647,1.984-1.984,2.648,2.648Zm0,0" transform="translate(-360.869 -360.89)"/><path class="a" d="M453.241,328.81l-3.459-1.433,1.074-2.592,3.459,1.433Zm0,0" transform="translate(-407.715 -294.409)"/><path class="a" d="M471.969,241.008h3.744v2.806h-3.744Zm0,0" transform="translate(-427.828 -218.467)"/><path class="a" d="M453.252,144.191l1.074,2.592-3.459,1.433-1.074-2.592Zm0,0" transform="translate(-407.726 -130.706)"/><path class="a" d="M21.356,170.294A17.5,17.5,0,0,1,10.842,159.78h2.967V147H0v6.9a27.232,27.232,0,0,0,27.232,27.232h6.9V167.327H21.356Zm2.806,3.674v-3.835H31.33v8.2h-4.1A24.427,24.427,0,0,1,2.806,153.9v-4.1H11v7.168H7.168l.425,1.736a20.283,20.283,0,0,0,14.833,14.833Zm0,0" transform="translate(0 -133.252)"/></g></svg>