<svg xmlns="http://www.w3.org/2000/svg" width="24.788" height="24.788" viewBox="0 0 24.788 24.788"><defs><style>.a{fill:#1b1464;}</style></defs><g transform="translate(-0.001)"><path class="a" d="M12.395,0A12.394,12.394,0,1,0,24.789,12.394,12.395,12.395,0,0,0,12.395,0ZM18.94,18.084l-.992.993a1.829,1.829,0,0,1-.713.287A11.7,11.7,0,0,1,5.423,7.525a1.847,1.847,0,0,1,.291-.681l.992-.992a1.658,1.658,0,0,1,1.549-.366l.209.07A1.961,1.961,0,0,1,9.6,6.754l.5,1.832a1.8,1.8,0,0,1-.41,1.569l-.663.663a7.038,7.038,0,0,0,4.949,4.95l.662-.663a1.8,1.8,0,0,1,1.569-.412l1.832.5a1.963,1.963,0,0,1,1.2,1.132l.07.212A1.66,1.66,0,0,1,18.94,18.084Z"/></g></svg>