<svg xmlns="http://www.w3.org/2000/svg" xmlns:xlink="http://www.w3.org/1999/xlink" width="285.702" height="432.138" viewBox="0 0 285.702 432.138"><defs><style>.a{fill:#b8b0af;}.b{fill:#ffaa43;}.c{fill:#974c3c;}.d{fill:#ffdaad;opacity:0.32;}.e{opacity:0.35;fill:url(#a);}.f{fill:#fff3b6;}.g{fill:#f4ce7f;}.h{fill:#fefee8;}.i{fill:#f1cf85;}.j{fill:#e4e9f0;}.k{fill:#ec1917;}.l{fill:#cb1917;}.m,.o{opacity:0.55;}.n{fill:#c0ccdc;}.o{fill:#a16140;}.p{fill:none;}</style><linearGradient id="a" x1="0.461" y1="0.832" x2="0.504" y2="0.235" gradientUnits="objectBoundingBox"><stop offset="0.075" stop-color="#a9793c"/><stop offset="1" stop-color="#854f00"/></linearGradient></defs><g transform="translate(-335.148 -26.529)"><g transform="translate(335.148 26.529)"><path class="a" d="M335.254,102.989l-.106.066c13.573,39.366,51.914,233.86,51.914,233.86.7.051,1.442.121,2.2.2.227.022.461.048.692.073.578.062,1.171.132,1.779.205l.728.088c.834.106,1.687.219,2.576.348l.044.007c.875.125,1.782.264,2.7.41.289.044.582.092.875.139q1.043.165,2.126.348c.293.051.582.1.882.15,8.388,1.442,18.155,3.473,27.857,5.65h0c6.269,1.409,12.512,2.873,18.334,4.278h0c4.992,1.2,9.672,2.364,13.8,3.4,7.308,1.841,12.863,3.29,15.319,3.938l.165.044.692.183.552.146a194.14,194.14,0,0,1,24.867-10.829c6.554-2.3,18.678-6.433,24.256-8.157,10.751-3.326,18.576-5.412,18.576-5.412,5.153-62.209,49.327-222.79,49.327-222.79-5.438-16.629-26.484-14.217-26.484-14.217-18.99-19.677-68.053-30.254-105.359-30.177-43.808.092-100.521,24.23-100.521,24.23C346.818,86.1,335.422,102.887,335.254,102.989Z" transform="translate(-335.148 75.619)"/><g transform="translate(132.048)"><path class="b" d="M459.51,30.43c-2.415-1.266-4.812-2.584-7.213-3.9C445.249,57.258,429.158,42,429.158,42c-12.849,54.659-57.927,111.21-57.927,111.21,12.175,5.369,6.99,17.2,1.984,24.706,1.581.67,3.125,1.394,4.655,2.148,1.757-2.335,4.388-3.542,6.778-1.921,1.939,1.317,1.584,3.645.56,5.874q1.718.994,3.429,2.024c1.508-4.67,3.579-6.035,7.473-3.37,1.925,1.314.644,4.552-.977,7.312q1.564.955,3.151,1.907c1.468-3.993,4.714-7.7,8.058-5.142,3.272,2.5,1.266,6.459-.845,9.233,1.764.959,3.535,1.9,5.328,2.8.692-3.777,2.573-8.212,7.714-5.716,4.706,2.284,2.1,6.371-.593,9.178q2.542,1.2,5.083,2.375c1.705-2.595,4.93-4.41,7.535-2.507,1.969,1.438,1.566,3.952.593,6.232q2.7,1.241,5.383,2.5c11.3-27,19.97-6.748,19.97-6.748,20.1-58.128,68.375-113.121,68.375-113.121-17.859-4.329-9.581-18.265-3.766-25.522q-3.409-1.844-6.741-3.879c-1.153,1.328-3.015,2.009-6.046.816-3.868-1.53-3.586-3.923-2.207-6.038-1.292-.838-2.587-1.669-3.883-2.507-1.277,2.543-3.363,4.322-6.207,2.262-2.9-2.1-2.58-4.794-1.427-7.067q-2.2-1.328-4.443-2.58c-1.339,2.188-3.6,3.692-6.1,2.342-2.357-1.277-2.005-3.872-1.039-6.181-1.716-.911-3.425-1.833-5.152-2.726-1.588,3.107-4.549,5.983-7.286,4.219-2.551-1.643-1.325-5.065.289-7.813-1.75-.893-3.491-1.8-5.241-2.7-1.339,2.514-3.51,5.017-5.921,4.435S458.263,33.581,459.51,30.43Z" transform="translate(-371.231 -26.529)"/><g transform="translate(14.217 20.223)"><path class="c" d="M497.587,86.919l-2.192.962c-1.274.564-6.627,6.1-28.57,44.936-9.4,16.633-17.467,31.677-17.547,31.824l-.542,1.014-1.054-.329c-9.833-3.089-15.875,3.334-19.2,9.251a26.558,26.558,0,0,0-1.819,3.9l-.6,1.757-1.445-1.058c-5.464-3.993-44.244-21.954-44.639-22.133l-1.409-.655.919-1.292c9.014-12.7-3.177-23.209-3.294-23.3l-1.076-.9.984-1.05c3.367-3.59,9.061-12.746,16.958-27.286,13.657-25.141,29.368-58.121,29.529-58.454l.589-1.241,1.2.534c14.247,6.346,27.981-10.045,28.12-10.214l.922-1.123,1.021.951c2.375,2.225,28.94,19.762,38.828,26.239l1.138.739-.812,1.2c-9.943,14.748,1.694,23.974,2.17,24.34ZM464.566,131.6c18.847-33.4,25.536-42.385,28.267-45.031-3.111-3.162-10.294-12.5-2.166-25.679-5.7-3.733-31.04-20.354-37.024-24.885-3.378,3.678-15.615,15.531-29.181,10.5-2.975,6.2-16.816,34.865-29.031,57.323-7.374,13.555-12.9,22.543-16.486,26.821,2.928,3.008,10.869,12.9,3.586,24.618,6.635,3.092,34.425,16.1,42.308,20.889,2-4.534,8.911-17.207,22.685-13.625C449.471,158.91,456.534,145.838,464.566,131.6Z" transform="translate(-375.116 -32.055)"/></g><g transform="translate(28.889 45.075)"><path class="c" d="M392.778,67.645a4.285,4.285,0,0,0-.578-5.233l2.437-2.115a6.892,6.892,0,0,1,1.65,4.121,8.477,8.477,0,0,1-1.189,4.465,7.731,7.731,0,0,1-11.356,3.374,8.148,8.148,0,0,1-4.351-4.67q-.862-2.833,1.065-6.331a8.978,8.978,0,0,1,3.3-3.623,6.152,6.152,0,0,1,4.194-.677l-.765,3.059a3.545,3.545,0,0,0-2.433.424,4.953,4.953,0,0,0-1.921,2,4.369,4.369,0,0,0-.472,3.78,6.076,6.076,0,0,0,3.067,3,6.4,6.4,0,0,0,4.322.889A4.565,4.565,0,0,0,392.778,67.645Z" transform="translate(-379.125 9.034)"/><path class="c" d="M395.006,65.548l-14.163-7.6,1.68-3.048,14.166,7.616Z" transform="translate(-374.557 3.856)"/><path class="c" d="M400.811,62.009l-14.415.446a27.584,27.584,0,0,1,2.66,1.2l8.336,4.5-1.5,2.7L381.73,63.22l1.925-3.495,14.587-.487a25.3,25.3,0,0,1-2.862-1.314l-8.256-4.487,1.5-2.73L402.8,58.433Z" transform="translate(-372.198 -7.298)"/><path class="c" d="M398.221,66.1l-14.173-7.744,6.393-11.6,2.305,1.274-4.7,8.5,3.572,1.954,4.344-7.85,2.294,1.266-4.347,7.839,3.725,2.042,4.937-8.893,2.287,1.263Z" transform="translate(-366.033 -17.809)"/><path class="c" d="M407.191,52.591l-8.582-4.8c-.194-.11-.388-.22-.582-.333s-1.014-.611-2.459-1.5c1.537,1.511,2.591,2.584,3.173,3.22l6.415,7.074-1.226,2.2-9.365-1.727-4.406-.973c1.607.783,2.664,1.31,3.166,1.592L401.9,62.1l-1.519,2.734L386.2,56.989l2.291-4.154,9.416,1.768.893.194,2.174.556-1.9-1.929-6.836-7.381,2.291-4.154,14.188,7.949Z" transform="translate(-360.299 -30.75)"/><path class="c" d="M407.127,44.548l-4.348-.721L399.628,49.5l2.88,3.352-1.724,3.1L389.6,42.542l2.042-3.7,17.2,2.613Zm-14.309-2.613.187.19c.2.209.432.446.688.721s1.621,1.844,4.091,4.7l2.379-4.289-4.9-.834-1.628-.318Z" transform="translate(-351.264 -38.846)"/></g><g transform="translate(90.695 33.8)"><path class="c" d="M426.1,57.821c-13.764-7.261-29.917-19.644-30.082-19.765l1.665-2.291c.161.124,16.146,12.4,29.719,19.575Z" transform="translate(-396.014 -35.765)"/></g><g transform="translate(30.832 138.485)"><path class="c" d="M411.2,80.155l-1.555,2.181C398.975,75.09,379.85,66.9,379.656,66.819l1.131-2.448C380.981,64.455,400.329,72.759,411.2,80.155Z" transform="translate(-379.656 -64.371)"/></g><g transform="translate(55.918 54.237)"><g transform="translate(0 75.75)"><path class="c" d="M386.511,66.844l3.74,5.231-3,5.4,6.761-1.06,4.081,5.108.331-7.391,6.411-4.5-7-.87-.876-6.7L392.7,67.67Z" transform="translate(-386.511 -62.049)"/></g><g transform="translate(9.868 57.135)"><path class="c" d="M389.208,62.586l4.182,4.488L390.7,73.5l6.445-2.027,4.074,5.177.358-7.47,6.624-3.8L401,63.742l-.854-6.78-4.286,5.668Z" transform="translate(-389.208 -56.962)"/></g><g transform="translate(20.277 38.538)"><path class="c" d="M392.052,57.342l4.177,4.552L393.49,68.4l6.485-2.054,4.066,5.248.386-7.551,6.655-3.82-7.208-1.676-1.435-6.67-3.715,5.528Z" transform="translate(-392.052 -51.88)"/></g><g transform="translate(31.32 19.397)"><path class="c" d="M395.07,51.346l3.63,5.592-3.527,6.587,7.268-2.069,4.37,4.911.1-7.224,6.505-4.579-7.04-.979-.81-6.936-4.349,5.763Z" transform="translate(-395.07 -46.65)"/></g><g transform="translate(41.625)"><path class="c" d="M397.885,46.87,401.8,52l-2.817,6.667,6.55-2.086,4.048,5.392.443-7.715,6.992-4.349-7.508-1.273-1.266-7.285L405.088,47.7Z" transform="translate(-397.885 -41.35)"/></g></g><g transform="translate(45.561 46.187)"><path class="c" d="M437.4,40.606c-18.532,29.426-51.065,89.985-51.391,90.581l-2.331-1.175c.322-.6,32.9-61.319,51.483-90.863Z" transform="translate(-383.681 -39.15)"/></g><path class="d" d="M434.007,78.733c15-.424,39.516-7.63,51-14.053-1.812-1-3.619-2.02-5.4-3.107-1.152,1.328-3.015,2.009-6.046.816-3.868-1.53-3.586-3.923-2.207-6.038-1.292-.838-2.587-1.669-3.883-2.507-1.277,2.543-3.363,4.322-6.207,2.262-2.9-2.1-2.58-4.794-1.427-7.067q-2.2-1.328-4.443-2.58c-1.339,2.188-3.6,3.692-6.1,2.342-2.36-1.277-2.006-3.872-1.039-6.181-1.717-.911-3.425-1.833-5.153-2.726-1.588,3.107-4.549,5.983-7.286,4.219-2.551-1.643-1.325-5.065.289-7.813-1.749-.893-3.491-1.8-5.24-2.7-1.339,2.514-3.51,5.017-5.921,4.435s-1.453-4.45-.2-7.6c-2.415-1.266-4.812-2.584-7.213-3.9C410.483,57.258,394.392,42,394.392,42a197.962,197.962,0,0,1-10.089,30.5C390.835,73.924,419,79.161,434.007,78.733Z" transform="translate(-336.465 -26.529)"/><path class="e" d="M457.719,79.475c-19.659.2-40.1-14.012-54.172-32.233a410.481,410.481,0,0,1-31.933,49.075c5.354,3.063,6.7,7.506,6.071,12.109.011,4.4-2.192,9.16-4.615,13.05,1.328.626,2.653,1.27,3.949,1.958,1.8-2.386,4.5-3.568,6.957-1.819,1.83,1.3,1.687,3.436.849,5.552-.051.209-.121.421-.19.633q1.691,1.037,3.374,2.108a11.854,11.854,0,0,1,.692-1.489c1.489-3.535,3.564-4.3,7.129-1.753,2,1.435.706,4.794-.952,7.652q1.35.867,2.712,1.731c.959-2.236,2.444-4.256,4.176-4.959a3.635,3.635,0,0,1,4.717.15c3.433,2.73,1.4,6.854-.768,9.727,1.38.794,2.777,1.566,4.172,2.339.673-3.308,2.295-6.895,6.21-5.859a6.32,6.32,0,0,1,3.2.834c4.973,2.569,2.316,6.832-.465,9.738.19.1.384.19.574.289.871.406,1.738.816,2.609,1.219,1.705-2.595,4.93-4.41,7.535-2.507a3.37,3.37,0,0,1,.406.377,4.377,4.377,0,0,1,2.148.9c1.991,1.511,1.764,3.989.908,6.291.838.392,1.68.779,2.514,1.171,6.558-15.659,12.223-15.418,15.828-12.457a8.534,8.534,0,0,1,5.094,3.07c11.8-32.705,32.157-64.145,47.435-85.07C489.667,70.436,475.317,79.3,457.719,79.475Z" transform="translate(-370.215 28.558)"/></g><g transform="translate(13.119 113.977)"><path class="f" d="M338.8,115.713c2.123-11.235,13.544-27.428,24.988-29.91,11.235-2.437,19.82,6.166,31.586.52,11.447-5.5,25.953-23.568,39.219-17.376,6.042,2.818,11.6,6.2,18.62,4.97,7.733-1.358,13.668-7.711,20.951-10.4,6.035-2.229,17.236-4.326,23.176-1.076,5.841,3.2,7.1,11.3,12.26,15.209,5.3,4.018,12.3,2.295,18.312,3.7a28.442,28.442,0,0,1,17.819,13.189c3.766,6.284,4.955,10.43,11.586,13.778,5.738,2.9,7.144,4.2,8.428,11.034.8,4.307,3.271,15.293-.2,18.382-5.105,4.542-22.733-.951-28.962-.688-21.211.9-42,4.344-63.328,4.56-26.645.271-52.028-4.4-77.974-10.327-13.592-3.1-27.8-5.628-41.119-8.468C349.957,121.908,337.753,121.239,338.8,115.713Z" transform="translate(-338.733 -49.453)"/><path class="g" d="M553.674,114.072c-5.043-4.172-9.46-8.977-14.243-13.456-1.08-1.01-6.243-4.7-4.82-3.919-.973-.608-1.929-1.244-2.92-1.822-3.092-1.749-6.188-3.488-9.4-4.984-.82-.381-8.86-3.594-5.969-2.653a163.594,163.594,0,0,0-18.056-5.3c-3.363-.75-6.744-1.537-10.152-2.049-1.647-.249-2.675-.425-3.283-.556-.765-.029-1.6-.066-3.008-.135-3.773-.187-7.564-.289-11.337-.161-4.673.157-9.332.446-13.979.834a29.43,29.43,0,0,1-25.569-11.3l-.1-.128c-5.028-1.3-10.115-2.152-15.487-1.35-5.434.812-9.566,4.538-14.733,6.166A63.5,63.5,0,0,1,384.1,76.368c-6.079.234-13.548-1.021-19.312,1.3-5.094,2.053-9,6.357-13.687,9.233-3.235,1.983-6.529,3.766-9.874,5.4a34.465,34.465,0,0,0-2.437,7.422c-.812,4.307,6.419,5.661,11.641,6.474h0l.03.007c.611.1,1.2.183,1.742.267l.051.007c.278.044.534.088.791.132l.267.044c.3.055.589.106.842.161,13.317,2.84,27.527,5.365,41.119,8.468,25.946,5.929,51.329,10.6,77.974,10.327,2.375-.022,4.739-.1,7.1-.2.787-.029,1.577-.07,2.364-.11q2.382-.115,4.757-.271c.882-.059,1.768-.11,2.649-.172q2.975-.22,5.943-.472c13.5-1.145,26.92-2.759,40.511-3.337,5.874-.249,21.859,4.607,27.952,1.365C561.037,120,557.476,117.216,553.674,114.072Z" transform="translate(-338.733 -33.467)"/><g transform="translate(72.646 11.681)"><path class="h" d="M364.1,74.524c5.456-1.793,6.873,2.071,8.132,6.595,1.665,6,8.274,5.994,12.735,2.8,5.112-3.663,7.143-10.122,3.861-16.062-3.052-5.526-7.052-2.009-11.319-2.335-3.594-.274-5.629-4.029-9.171-4.578-3.122-.487-5.786,1.4-7.688,3.868-1.636,2.123-2.865,4.875-1.42,7.495a4,4,0,0,0,5.929,1.464Z" transform="translate(-358.584 -60.866)"/><path class="i" d="M362.713,63.241c-1.874.315-3.857,3.586-2.251,5.376,1.292,1.435,4.245-.121,6.005.864,4.326,2.419,2.141,10.843,9.025,8.783,3.041-.911,5.863-4.933,4.812-8.344-.783-2.547-3.352-3.14-5.617-3.52-2.942-.494-2.368-1.12-4.4-3.1a5.353,5.353,0,0,0-5.182-1.369C363.735,62.238,364.068,63.014,362.713,63.241Z" transform="translate(-355.156 -58.494)"/></g><g transform="translate(147.378 44.141)"><path class="h" d="M405.343,81.952c-5.53,1.53-6.781-2.4-7.843-6.975-1.409-6.071-8.014-6.382-12.6-3.4-5.266,3.414-7.568,9.771-4.545,15.861,2.814,5.665,6.96,2.342,11.209,2.873,3.579.443,5.449,4.289,8.966,5.01,3.1.633,5.841-1.123,7.846-3.5,1.724-2.042,3.07-4.735,1.742-7.422a4.02,4.02,0,0,0-5.863-1.746Z" transform="translate(-379.005 -69.736)"/><path class="i" d="M398.224,87c1.885-.223,4.007-3.4,2.478-5.259-1.23-1.5-4.245-.084-5.961-1.153-4.22-2.624-1.676-10.931-8.64-9.2-3.081.765-6.068,4.651-5.167,8.106.677,2.58,3.217,3.3,5.464,3.784,2.917.633,2.317,1.233,4.26,3.312a5.369,5.369,0,0,0,5.12,1.614C397.163,87.953,396.862,87.162,398.224,87Z" transform="translate(-374.312 -65.98)"/></g><g transform="translate(159.959 20.456)"><path class="h" d="M385.518,79.465c2.383-.446,5.427-1.79,7.583.227,2.068,1.936,3.243,4.827,5.68,6.642,7.78,5.786,16.172-2.811,13.672-11.641-2.005-7.089-11.356-13.054-18.4-11.03-4.706,1.354-13.061,7.616-11.392,13.829.648,2.423,2.763,3.5,4.512,1.457Z" transform="translate(-382.443 -63.264)"/><path class="i" d="M393.677,65.81c-3.422-2.24-8.969-.67-10.137,3.356-1.705,5.881,4.651,2.331,7.56,4.984,1.841,1.68,5.837,8.959,6.95,2.368.56-3.334-.966-8.948-4.08-10.529a4.026,4.026,0,0,0-2.188-.41Z" transform="translate(-380.286 -59.218)"/></g><g transform="translate(46.583 23.943)"><path class="h" d="M354.54,80.419c2.382-.446,5.423-1.789,7.583.227,2.064,1.936,3.242,4.827,5.68,6.638,7.777,5.789,16.172-2.81,13.672-11.637-2.006-7.089-11.356-13.057-18.4-11.03-4.706,1.35-13.057,7.616-11.392,13.829.651,2.423,2.763,3.5,4.512,1.453Z" transform="translate(-351.462 -64.216)"/><path class="i" d="M362.7,66.764c-3.425-2.243-8.97-.67-10.137,3.356-1.706,5.881,4.651,2.331,7.561,4.984,1.837,1.68,5.837,8.959,6.946,2.368.563-3.334-.963-8.948-4.081-10.529a4.005,4.005,0,0,0-2.185-.41Z" transform="translate(-349.303 -60.171)"/></g><g transform="translate(117.957 23.259)"><path class="h" d="M398.14,77.974c-2.408-.242-5.68.194-7.25-2.357-1.508-2.445-1.91-5.563-3.8-8-6.042-7.766-16.3-1.844-16.12,7.363.146,7.4,7.656,15.776,14.96,15.813,4.878.022,14.514-3.66,14.474-10.119-.015-2.518-1.782-4.154-3.985-2.671Z" transform="translate(-370.965 -64.03)"/><path class="i" d="M376.764,79.56c2.737,3.125,8.479,3.173,10.62-.377,3.129-5.189-3.9-3.557-6.031-6.935-1.35-2.137-3.367-10.272-6.1-4.238-1.387,3.056-1.328,8.9,1.277,11.3a4.166,4.166,0,0,0,2.005,1.01Z" transform="translate(-361.959 -59.262)"/></g><g transform="translate(125.592 61.527)"><path class="h" d="M376.127,90.688c2.382-.443,5.427-1.786,7.583.231,2.068,1.932,3.246,4.827,5.68,6.638,7.78,5.789,16.172-2.81,13.672-11.641-2.005-7.089-11.352-13.054-18.4-11.03C379.955,76.241,371.6,82.5,373.269,88.72c.648,2.419,2.763,3.5,4.512,1.453Z" transform="translate(-373.052 -74.487)"/><path class="i" d="M384.286,77.033c-3.422-2.24-8.969-.67-10.137,3.356-1.705,5.885,4.651,2.331,7.561,4.988,1.841,1.68,5.837,8.955,6.949,2.368.564-3.337-.966-8.951-4.08-10.532a4.025,4.025,0,0,0-2.188-.41Z" transform="translate(-370.894 -70.441)"/></g><g transform="translate(22.086 30.686)"><path class="h" d="M354.063,93.494c.794-2.412,1.175-5.874,3.894-6.873,2.606-.955,5.566-.618,8.252-1.973,8.578-4.326,5.584-16.278-2.92-18.309-6.829-1.632-16.322,4.055-18.1,11.542-1.182,5-.1,15.765,5.844,17.28,2.317.589,4.242-.827,3.4-3.444Z" transform="translate(-344.768 -66.059)"/><path class="i" d="M349.16,70.564c-3.524,2.053-4.937,7.934-2.188,10.982,4.022,4.461,4.2-3.14,7.81-4.516,2.287-.871,10.243-.981,5.35-5.237-2.477-2.159-7.857-3.506-10.682-1.409a4.389,4.389,0,0,0-1.409,1.811Z" transform="translate(-342.752 -57.346)"/></g><g transform="translate(98.567 46.186)"><path class="h" d="M388.843,73.7c-2.942-.176-5.222,1.457-7.828-.728-2.185-1.833-2.993-3.242-6.221-2.445-8.055,1.994-12.574,14.488-5.9,20.644,3.766,3.473,7.411,3.586,10.419-.553,2.331-3.209,5.251-4.41,8.794-2.4,2.92,1.658,7.985,5.079,10.6.962,1.621-2.551,1.409-8.245-.161-10.818-1.947-3.191-7.59-5.584-11.125-5.145Z" transform="translate(-365.667 -70.295)"/><path class="i" d="M379.334,71.58c-2.5.026-3.378-.1-4.772,2.053-1.456,2.24-2.408,3.736-4.622,5.24-1.566,1.065-3.385,1.983-2.156,4.388,1.614,3.151,4.571.948,6.456-.428,1.709-1.248,3.649-2.7,5.9-2.258,1.9.381,2.994,3.272,4.684.955,2.624-3.6-1.6-8.915-4.827-9.65a15.959,15.959,0,0,0-3.5-.022Z" transform="translate(-361.113 -66.876)"/></g><g transform="translate(170.683 50.184)"><path class="h" d="M408.552,74.79c-2.942-.179-5.222,1.456-7.831-.732-2.185-1.83-2.99-3.242-6.221-2.441-8.055,1.991-12.574,14.488-5.9,20.644,3.766,3.473,7.414,3.586,10.419-.553,2.335-3.209,5.252-4.413,8.794-2.4,2.924,1.658,7.989,5.083,10.6.966,1.617-2.551,1.405-8.245-.165-10.818-1.943-3.191-7.59-5.584-11.125-5.145Z" transform="translate(-385.373 -71.387)"/><path class="i" d="M399.04,72.673c-2.5.026-3.374-.1-4.772,2.049-1.457,2.243-2.408,3.74-4.622,5.244-1.562,1.065-3.385,1.983-2.155,4.388,1.614,3.151,4.574.948,6.459-.428,1.709-1.252,3.649-2.708,5.9-2.258,1.9.381,2.994,3.272,4.681.951,2.628-3.6-1.6-8.915-4.827-9.647a15.929,15.929,0,0,0-3.495-.022Z" transform="translate(-380.819 -67.968)"/></g><g transform="translate(135.854 5.127)"><path class="h" d="M395.4,66.5c-1.6-1.453-1.694-3.674-3.122-5.226-1.837-2-5.186-2.331-7.667-2.166-6.148.4-11.118,12.3-7.575,17.767,4.165,6.426,15.733,9.592,20.874,2.613,2.306-3.129,2.964-11.121-1.793-12.245Z" transform="translate(-375.856 -59.075)"/><path class="i" d="M385.194,61.534c-3.2-4.333-7.176,1.68-7.286,5.076-.15,4.666,3.645,7.041,7.652,6.928,3.572-.1,5.658-3.429,3.242-6.54A45.66,45.66,0,0,1,385.194,61.534Z" transform="translate(-370.409 -56.557)"/></g><g transform="translate(38.213 45.159)"><path class="h" d="M368.718,77.443c-1.6-1.457-1.694-3.678-3.118-5.23-1.837-2-5.189-2.327-7.667-2.163-6.148.4-11.118,12.3-7.575,17.767,4.165,6.423,15.732,9.588,20.874,2.609,2.3-3.125,2.964-11.121-1.8-12.241Z" transform="translate(-349.175 -70.014)"/><path class="i" d="M358.513,72.473c-3.2-4.333-7.176,1.68-7.286,5.076-.15,4.666,3.641,7.041,7.652,6.924,3.568-.1,5.654-3.429,3.239-6.536A45.34,45.34,0,0,1,358.513,72.473Z" transform="translate(-343.728 -67.496)"/></g><g transform="translate(62.344 40.38)"><path class="h" d="M376.27,70.315c-2.708.721-4.8,1.859-7.8,1.149-2.371-.564-3.868-2.741-6.415-2.756-6.682-.033-7.22,9.508-5.35,14.375,5.925,15.414,34.63,7.187,26.781-8.41C382.506,72.734,378.243,67.442,376.27,70.315Z" transform="translate(-355.769 -68.708)"/><path class="i" d="M365.5,70.964c-1.859-.168-3.883-1.409-5.511-1.442-2.357-.051-2.741,2.112-2.8,4.223-.1,3.213,1.373,4.688,4.018,5.961,4.4,2.119,13.353,2.876,15.132-3.594,1.27-4.622-2.423-8.347-6.4-5.687A13.33,13.33,0,0,1,365.5,70.964Z" transform="translate(-352.011 -66.544)"/></g><g transform="translate(108.434)"><path class="h" d="M388.867,59.277c-2.708.721-4.809,1.859-7.806,1.149-2.371-.56-3.868-2.741-6.415-2.752-6.682-.033-7.22,9.508-5.347,14.371,5.921,15.414,34.627,7.187,26.777-8.41C395.1,61.7,390.839,56.408,388.867,59.277Z" transform="translate(-368.363 -57.674)"/><path class="i" d="M378.095,59.933c-1.859-.168-3.879-1.409-5.511-1.446-2.357-.048-2.741,2.115-2.8,4.227-.095,3.209,1.372,4.688,4.022,5.961,4.395,2.115,13.35,2.873,15.128-3.6,1.27-4.618-2.423-8.347-6.4-5.687A13.391,13.391,0,0,1,378.095,59.933Z" transform="translate(-364.606 -55.512)"/></g></g><g transform="translate(0 173.697)"><path class="j" d="M595.415,85.246s-44.174,160.581-49.327,222.79c0,0-45.177,12.051-67.7,24.4,0,0-66.549-17.752-91.328-19.6,0,0-38.341-194.494-51.914-233.86,0,0,23.026-14.459,39.563,5.914,0,0,11.9-21.017,31.458,2.66,0,0,11.754-17.679,25.664,2.9,0,0,13.541-14.891,30.945,4.245,0,0,12.446-18.741,31.611.728,0,0,13.863-17.7,31.608.377,0,0,22.426-26.47,42.769-6.759C568.767,89.034,579.441,68.555,595.415,85.246Z" transform="translate(-335.148 -73.993)"/><path class="k" d="M404.42,89.6v0c-2.91,106.859-23.227,215.171-23.374,226.413,6.521-2.291,18.784-6.474,24.4-8.208,19.333-136.4,39.41-214.768,40.562-225.037C427.607,65.911,407.742,85.973,404.42,89.6Z" transform="translate(-213.08 -68.349)"/><path class="l" d="M385.916,320.545c1-23.15,14.4-232.133,15.2-235.492-18.4-17.3-30.634.187-30.813,0,.036.886,4.6,140.45-.582,234,8.391,2.108,14.481,3.711,16.212,4.168C385.891,322.334,385.876,321.445,385.916,320.545Z" transform="translate(-243.205 -64.914)"/><path class="l" d="M373.453,83.423c-16.424-18.188-38.3-4.461-38.3-4.461,13.573,39.366,51.914,233.86,51.914,233.86,4.644.348,10.756,1.251,17.617,2.5C403.8,306.5,383.165,189.609,373.453,83.423Z" transform="translate(-335.148 -73.986)"/><path class="l" d="M379.487,84.306c-13.463-18.3-24.658-1.486-24.658-1.486-.128-.154-.253-.285-.377-.435.377.435,21.28,224.565,23.736,233.34,6.269,1.405,12.512,2.869,18.334,4.274C396.606,296.5,388.4,205.752,379.487,84.306Z" transform="translate(-283.808 -69.269)"/></g><g class="m" transform="translate(157.481 178.401)"><path class="n" d="M411.886,97.019c4.336-4.977,8.691-9.142,14.781-11.707a23.661,23.661,0,0,1,26.016,4.454v0c.23.209-.227-.223,0,0,0,0,16.322-18.792,27.059-3.444.787-2.9,1.226-4.5,1.226-4.5-15.974-16.691-26.649,3.788-26.649,3.788-.23-.223-.461-.41-.692-.622h0a23.653,23.653,0,0,0-26.019-4.454,45.126,45.126,0,0,0-16.058,11.835c-16.472-17.112-29.807-2.481-31.608-.377l-1.332-1.285a52.39,52.39,0,0,0-.428,5.914C380.648,93.857,395.981,80.832,411.886,97.019Z" transform="translate(-378.181 -75.278)"/><path class="j" d="M392.652,175.234l.5-.135c1.105-13.357,4.015-31.256,7.894-51.12C397.146,143.5,394.1,161.353,392.652,175.234Z" transform="translate(-339.694 54.241)"/></g><path class="o" d="M490.19,94.167c-5.936-5-13.727-7.974-21.2-4.585a21.855,21.855,0,0,0-6.4,4.534c-.45.45-.875.926-1.306,1.394-.326.359-3.03-2.591-3.568-3.045-5.372-4.563-12.336-7.374-19.323-5.164a18.5,18.5,0,0,0-7.714,4.7c-.337-.5-.673-.959-1.006-1.413h0c-2.221-3.016-4.944-5.95-8.413-7.509-5.935-3.22-12.852,1.138-16.245,6.024-.128-.154-.249-.285-.377-.436h0c-19.33-22.949-31.081-2.225-31.081-2.225-.414-.512-.834-.984-1.259-1.453h0c-9.617-10.649-24.226-11.7-36.687-5.354,14.8,48.851,50.235,228.609,50.235,228.609,14.291,1.069,28.526,4.487,42.465,7.616h0c6.269,1.409,12.512,2.873,18.334,4.278h0q9.211,2.223,18.4,4.563c.754.194,11.6,2.606,11.579,3q.774-15.409,1.643-30.81,1.828-32.716,3.923-65.418,3.546-56.062,7.52-112.1.851-12.055,1.716-24.105C491.01,94.892,490.611,94.526,490.19,94.167Z" transform="translate(-333.927 104.287)"/><g transform="translate(157.353 256.87)"><path class="k" d="M431.375,99.229s-26.964-11.809-44.3,15.824-9.284,73.246,22.96,70.659S465.972,116.085,431.375,99.229Z" transform="translate(-378.146 -96.721)"/><path class="j" d="M425.7,100.53s-23.33-10.221-38.33,13.69-8.033,63.376,19.864,61.137S455.64,115.113,425.7,100.53Z" transform="translate(-374.144 -92.364)"/><g transform="translate(11.759 9.933)"><path class="k" d="M393.758,101.751s3.648,2.536,4.3,8.973c-1.5,6.521-5.127,11.491-10.781,13.625a84.064,84.064,0,0,0-1.844,8.347,8.633,8.633,0,0,1-4.07-4.132l3.232-14.17c-.187-2.554-.055-6.1-.055-6.1S388.239,103.412,393.758,101.751Zm-3.623,11.034q-1.12,3.689-1.954,6.887l.168-.055c4.1-1.281,5.61-7.29,5.61-7.29A7.579,7.579,0,0,0,390.135,112.785Z" transform="translate(-381.359 -93.275)"/><path class="k" d="M394.855,105.45l3.074-4.688s2.382,1.054,1.877,8.479c-.952,13.99-9.094,19.912-9.094,19.912-4.219-.787-5.061-5.863-5.061-5.863C386.979,107.28,392.326,104,392.326,104A2.6,2.6,0,0,0,394.855,105.45Zm.348,3.594a37.491,37.491,0,0,0-4.036,13.881C392.531,122.489,395.887,116.608,395.2,109.044Z" transform="translate(-369.944 -95.906)"/><path class="k" d="M400.549,99.435s3.612,2.47,4.439,8.717c-1.244,6.316-4.6,11.118-10.009,13.167a79.5,79.5,0,0,0-1.526,8.077,8.817,8.817,0,0,1-4.066-4.011l2.682-13.72c-.26-2.478-.245-5.917-.245-5.917A18.977,18.977,0,0,1,400.549,99.435Zm-3.166,10.686q-.966,3.574-1.672,6.671l.161-.051c3.927-1.23,5.2-7.048,5.2-7.048A7.251,7.251,0,0,0,397.383,110.121Z" transform="translate(-360.008 -99.435)"/></g><g transform="translate(13.724 36.26)"><path class="k" d="M392.9,122.178a8.33,8.33,0,0,1-3.173-3.429,50.36,50.36,0,0,0-3.107,11.579l6.536-5.27a17.352,17.352,0,0,1-7.81,11.711,5.622,5.622,0,0,1-3.451-4.132c.585-6.349,3.8-16.347,6.569-19.615a10.535,10.535,0,0,1,1.746-.406,24.56,24.56,0,0,0,5.09-2.891S393.954,115.595,392.9,122.178Z" transform="translate(-381.896 -98.395)"/><path class="k" d="M392.758,113.26l2.551-4.1s1.995.889,1.6,7.337c-.746,12.157-7.531,17.394-7.531,17.394-3.531-.637-4.252-5.036-4.252-5.036,1.061-13.921,5.518-16.823,5.518-16.823A2.135,2.135,0,0,0,392.758,113.26Zm.3,3.111a33.824,33.824,0,0,0-3.327,12.1C390.873,128.078,393.662,122.933,393.062,116.371Z" transform="translate(-373.311 -99.903)"/><path class="k" d="M389.94,113.667a13.852,13.852,0,0,1,6.983-5.6s3.089.355,4.121,6.858c-.637,4.948-3.045,7.842-5.039,9.193a7.243,7.243,0,0,0,3.667,1.811,13.709,13.709,0,0,1-3.495,5.405c-1.91-.787-2.675-3.707-3.246-5.581l-1.918,7.465a6.5,6.5,0,0,1-2.723-4.015l2.144-10.448Zm5.036,3.323-1.46,5.793c3.506-1.27,4.143-6.155,4.143-6.155A3.6,3.6,0,0,0,394.976,116.99Z" transform="translate(-364.891 -102.813)"/><path class="k" d="M399.27,122.3a122.059,122.059,0,0,0,1.219-15.667,14.01,14.01,0,0,0,3.835,1.281c-.9,11.582-2.532,20.3-2.532,20.3a13.232,13.232,0,0,0-3.784,2.657l-1.4-12.073s-.816,4.761-1.881,13.3a5.773,5.773,0,0,1-3.093-2.858,133.538,133.538,0,0,1,2.8-16.885,20.819,20.819,0,0,1,3.967-2.939Z" transform="translate(-355.992 -106.629)"/></g><path class="k" d="M396.96,103.163l-.9,3.714-2.656.7,2.376,1.922-.642,3.579,3-3.3,2.009,1.068-.626-2.548,1.453-2.916-2.139.743Z" transform="translate(-337.56 -79.587)"/></g></g><line class="p" x2="3.57" y2="7.641" transform="translate(545.729 285.909)"/></g></svg>