<svg xmlns="http://www.w3.org/2000/svg" xmlns:xlink="http://www.w3.org/1999/xlink" width="203" height="271" viewBox="0 0 203 271"><defs><clipPath id="a"><rect width="203" height="271" transform="translate(1163 497)" fill="#fff"/></clipPath></defs><g transform="translate(-1163 -497)" clip-path="url(#a)"><g transform="translate(1167.748 421.146)"><g transform="translate(259.206 93.032)"><g transform="translate(51.855 89.805)"><path d="M590.946,416.077v59.909L539.1,446.038v-.026Z" transform="translate(-539.098 -416.077)" fill="#ffa73b"/></g><g transform="translate(0 89.805)"><path d="M552.07,438.585v59.78l-.052.026-51.764-29.9Z" transform="translate(-500.216 -408.56)" fill="#0c2e3a"/><path d="M552.08,446.012v.091l-51.816,29.909-.039-.026V416.077Z" transform="translate(-500.226 -416.077)" fill="#78001b"/></g><g transform="translate(0.003)"><path d="M552.076,348.756v59.909l-51.848-29.948v-.026Z" transform="translate(-500.228 -348.756)" fill="#ffa73b"/><path d="M552.076,401.164v.045L500.293,431.1l-.065-.039V371.216Z" transform="translate(-500.228 -341.255)" fill="#f5340b"/><path d="M552.06,393.7v59.786l-51.784-29.9Z" transform="translate(-500.212 -333.746)" fill="#f5340b"/><path d="M590.9,423.582l-51.8,29.909V393.7l.039-.019Z" transform="translate(-487.247 -333.751)" fill="#ff823b"/></g></g><g transform="translate(259.206 182.838)"><g transform="translate(0.003 89.805)"><path d="M552.076,483.4v59.909l-51.848-29.948v-.026Z" transform="translate(-500.228 -483.398)" fill="#018790"/><path d="M552.076,535.806v.045l-51.784,29.89-.065-.039V505.858Z" transform="translate(-500.228 -475.897)" fill="#018790"/><path d="M552.06,528.342v59.786l-51.784-29.9Z" transform="translate(-500.212 -468.388)" fill="#e3651d"/><path d="M590.95,513.333v.091l-51.816,29.909-.039-.026V483.4Z" transform="translate(-487.247 -483.398)" fill="#ffa73b"/></g><g transform="translate(51.855)"><path d="M590.946,416.077v59.909L539.1,446.038v-.026Z" transform="translate(-539.098 -416.077)" fill="#ffa73b"/></g><path d="M552.028,490.9l-51.8,29.909V461.026l.039-.02Z" transform="translate(-500.226 -401.072)" fill="#00a6a6"/><path d="M552.07,438.585v59.78l-.052.026-51.764-29.9Z" transform="translate(-500.216 -408.56)" fill="#0c2e3a"/><path d="M552.08,446.012v.091l-51.816,29.909-.039-.026V416.077Z" transform="translate(-500.226 -416.077)" fill="#ffa73b"/></g><g transform="translate(155.503)"><g transform="translate(51.855 182.838)"><path d="M513.207,416.077v59.909l-51.848-29.948v-.026Z" transform="translate(-461.358 -416.077)" fill="#78001b"/><path d="M513.207,468.485v.045l-51.784,29.89-.065-.039V438.537Z" transform="translate(-461.358 -408.576)" fill="#78001b"/><path d="M552.08,446.012v.091l-51.816,29.909-.039-.026V416.077Z" transform="translate(-448.377 -416.077)" fill="#78001b"/></g><g transform="translate(0 182.838)"><path d="M474.331,438.585v59.78l-.052.026-51.764-29.9Z" transform="translate(-422.477 -408.56)" fill="#78001b"/><path d="M474.341,446.012v.091l-51.816,29.909-.039-.026V416.077Z" transform="translate(-422.486 -416.077)" fill="#f5340b"/></g><g transform="translate(0.003)"><path d="M474.337,348.756v59.909l-51.848-29.948v-.026Z" transform="translate(-422.489 -255.724)" fill="#1dcdc3"/><path d="M474.337,401.164v.045L422.553,431.1l-.065-.039V371.216Z" transform="translate(-422.489 -248.223)" fill="#0c2e3a"/><path d="M474.321,393.7v59.786l-51.784-29.9Z" transform="translate(-422.473 -240.713)" fill="#0c2e3a"/><path d="M513.159,423.582l-51.8,29.909V393.7l.039-.019Z" transform="translate(-409.508 -240.718)" fill="#018790"/><path d="M513.2,371.264v59.78l-.052.026-51.764-29.9Z" transform="translate(-409.498 -248.206)" fill="#018790"/><path d="M490.213,279.016v17.358l-.015.007L475.167,287.7Z" transform="translate(-404.895 -279.016)" fill="#018790"/><path d="M513.211,333.762v.09l-51.816,29.909-.039-.026V303.827Z" transform="translate(-409.508 -270.729)" fill="#1dcdc3"/></g></g><g transform="translate(155.503 182.838)"><g transform="translate(0.003 89.805)"><path d="M474.337,483.4v59.909l-51.848-29.948v-.026Z" transform="translate(-422.489 -483.398)" fill="#78001b"/><path d="M474.337,535.806v.045l-51.784,29.89-.065-.039V505.858Z" transform="translate(-422.489 -475.897)" fill="#78001b"/><path d="M474.321,528.342v59.786l-51.784-29.9Z" transform="translate(-422.473 -468.388)" fill="#00a6a6"/><path d="M513.159,558.224l-51.8,29.909V528.347l.039-.02Z" transform="translate(-409.508 -468.393)" fill="#00a6a6"/><path d="M513.2,505.906v59.78l-.052.026-51.764-29.9Z" transform="translate(-409.498 -475.881)" fill="#0c2e3a"/><path d="M513.211,513.333v.091l-51.816,29.909-.039-.026V483.4Z" transform="translate(-409.508 -483.398)" fill="#0c2e3a"/></g><g transform="translate(51.855)"><path d="M513.207,416.077v59.909l-51.848-29.948v-.026Z" transform="translate(-461.358 -416.077)" fill="#f5340b"/><path d="M513.207,468.485v.045l-51.784,29.89-.065-.039V438.537Z" transform="translate(-461.358 -408.576)" fill="#f5340b"/><path d="M513.19,461.021v59.786l-51.784-29.9Z" transform="translate(-461.342 -401.067)" fill="#00a6a6"/><path d="M552.028,490.9l-51.8,29.909V461.026l.039-.02Z" transform="translate(-448.377 -401.072)" fill="#ff823b"/><path d="M552.08,446.012v.091l-51.816,29.909-.039-.026V416.077Z" transform="translate(-448.377 -416.077)" fill="#ffa73b"/></g><path d="M474.289,490.9l-51.8,29.909V461.026l.039-.02Z" transform="translate(-422.486 -401.072)" fill="#f5340b"/><path d="M474.331,438.585v59.78l-.052.026-51.764-29.9Z" transform="translate(-422.477 -408.56)" fill="#f5340b"/><path d="M474.341,446.012v.091l-51.816,29.909-.039-.026V416.077Z" transform="translate(-422.486 -416.077)" fill="none"/></g><g transform="translate(44.124 88.114)"><g transform="translate(59.53 94.724)"><path d="M435.467,416.077v59.909l-51.848-29.948v-.026Z" transform="translate(-383.619 -416.077)" fill="#f5340b"/><path d="M435.467,468.485v.045l-51.784,29.89-.065-.039V438.537Z" transform="translate(-383.619 -408.576)" fill="#e3651d"/><path d="M474.341,446.012v.091l-51.816,29.909-.039-.026V416.077Z" transform="translate(-370.638 -416.077)" fill="#ffa73b"/></g><path d="M396.6,348.756v59.909L344.75,378.717v-.026Z" transform="translate(-337.071 -343.838)" fill="#ffd497"/><path d="M435.42,423.582l-51.8,29.909V393.7l.039-.019Z" transform="translate(-324.09 -328.832)" fill="#ff823b"/><path d="M363.186,419.595l-24.193,13.968V405.642l.018-.009Z" transform="translate(-338.993 -324.842)" fill="#ff823b"/><path d="M360.94,354.606l-16.526,9.541V345.075l.012-.006Z" transform="translate(-337.183 -345.069)" fill="#ffd497"/><path d="M435.462,371.264v59.78l-.052.026-51.764-29.9Z" transform="translate(-324.08 -336.32)" fill="#ff823b"/><path d="M435.471,378.691v.091l-51.816,29.909-.039-.026V348.756Z" transform="translate(-324.09 -343.838)" fill="#ffa73b"/></g><g transform="translate(0 182.838)"><g transform="translate(0 89.805)"><path d="M396.6,483.4v59.909L344.75,513.359v-.026Z" transform="translate(-292.947 -483.398)" fill="#ff7c4e"/><path d="M435.42,558.224l-51.8,29.909V528.347l.039-.02Z" transform="translate(-279.966 -468.393)" fill="#f54132"/><path d="M357.719,558.224l-51.8,29.909V528.347l.039-.02Z" transform="translate(-305.916 -468.393)" fill="#f54132"/><path d="M435.462,505.906v59.78l-.052.026-51.764-29.9Z" transform="translate(-279.956 -475.881)" fill="#f54132"/><path d="M435.471,513.333v.091l-51.816,29.909-.039-.026V483.4Z" transform="translate(-279.966 -483.398)" fill="#f54132"/></g><g transform="translate(103.654)"><path d="M435.467,416.077v59.909l-51.848-29.948v-.026Z" transform="translate(-383.619 -416.077)" fill="#ffa73b"/><path d="M435.467,468.485v.045l-51.784,29.89-.065-.039V438.537Z" transform="translate(-383.619 -408.576)" fill="#ffa73b"/><path d="M435.451,461.021v59.786l-51.784-29.9Z" transform="translate(-383.603 -401.067)" fill="#e3651d"/><path d="M474.289,490.9l-51.8,29.909V461.026l.039-.02Z" transform="translate(-370.638 -401.072)" fill="#78001b"/><path d="M474.341,446.012v.091l-51.816,29.909-.039-.026V416.077Z" transform="translate(-370.638 -416.077)" fill="#ffa73b"/></g></g></g></g></svg>