<svg xmlns="http://www.w3.org/2000/svg" width="9.726" height="11.422" viewBox="0 0 9.726 11.422"><defs><style>.a{fill:#aaa;}</style></defs><g transform="translate(0 0.001)"><path class="a" d="M122.618,158.457a2.176,2.176,0,1,0,2.176,2.176A2.179,2.179,0,0,0,122.618,158.457Zm1.292,1.766-1.559,1.559a.335.335,0,0,1-.474,0l-.6-.6a.335.335,0,0,1,.474-.474l.359.359,1.322-1.322a.335.335,0,1,1,.474.474Zm0,0" transform="translate(-117.754 -154.923)"/><path class="a" d="M9.715,3.1V3.089c0-.11-.008-.226-.01-.355a1.211,1.211,0,0,0-1.14-1.186A4.7,4.7,0,0,1,5.368.2L5.36.194a.731.731,0,0,0-.993,0L4.359.2a4.7,4.7,0,0,1-3.2,1.348A1.21,1.21,0,0,0,.022,2.734c0,.128-.005.244-.01.355V3.11a12.379,12.379,0,0,0,.5,4.518,5.752,5.752,0,0,0,1.38,2.149,7.219,7.219,0,0,0,2.7,1.6.835.835,0,0,0,.111.03.818.818,0,0,0,.321,0,.836.836,0,0,0,.111-.03,7.223,7.223,0,0,0,2.7-1.6,5.76,5.76,0,0,0,1.38-2.15A12.4,12.4,0,0,0,9.715,3.1ZM4.863,8.557A2.846,2.846,0,1,1,7.71,5.71,2.85,2.85,0,0,1,4.863,8.557Zm0,0" transform="translate(0)"/></g></svg>