<svg xmlns="http://www.w3.org/2000/svg" width="30.571" height="30.571" viewBox="0 0 30.571 30.571"><defs><style>.a{fill:#1b1464;}</style></defs><path class="a" d="M15.285,0A15.285,15.285,0,1,0,30.571,15.285,15.3,15.3,0,0,0,15.285,0ZM22.1,11.787c.007.151.01.3.01.457a10.008,10.008,0,0,1-15.4,8.429,7.1,7.1,0,0,0,5.209-1.457,3.522,3.522,0,0,1-3.287-2.444,3.532,3.532,0,0,0,1.588-.059A3.519,3.519,0,0,1,7.4,13.263c0-.015,0-.03,0-.044a3.5,3.5,0,0,0,1.593.44A3.524,3.524,0,0,1,7.9,8.961a9.99,9.99,0,0,0,7.251,3.677,3.521,3.521,0,0,1,6-3.21,7.022,7.022,0,0,0,2.235-.854,3.534,3.534,0,0,1-1.549,1.947,6.994,6.994,0,0,0,2.021-.554A7.077,7.077,0,0,1,22.1,11.787Z"/></svg>